%TF.GenerationSoftware,KiCad,Pcbnew,5.1.10-88a1d61d58~90~ubuntu21.04.1*%
%TF.CreationDate,2021-09-21T22:53:32+02:00*%
%TF.ProjectId,microphone-preamp,6d696372-6f70-4686-9f6e-652d70726561,v1.0.0*%
%TF.SameCoordinates,Original*%
%TF.FileFunction,Copper,L2,Bot*%
%TF.FilePolarity,Positive*%
%FSLAX46Y46*%
G04 Gerber Fmt 4.6, Leading zero omitted, Abs format (unit mm)*
G04 Created by KiCad (PCBNEW 5.1.10-88a1d61d58~90~ubuntu21.04.1) date 2021-09-21 22:53:32*
%MOMM*%
%LPD*%
G01*
G04 APERTURE LIST*
%TA.AperFunction,ComponentPad*%
%ADD10C,1.600000*%
%TD*%
%TA.AperFunction,ComponentPad*%
%ADD11R,1.600000X1.600000*%
%TD*%
%TA.AperFunction,ComponentPad*%
%ADD12O,2.190000X1.740000*%
%TD*%
%TA.AperFunction,ComponentPad*%
%ADD13O,1.600000X1.600000*%
%TD*%
%TA.AperFunction,ComponentPad*%
%ADD14C,1.700000*%
%TD*%
%TA.AperFunction,ComponentPad*%
%ADD15O,1.600000X2.400000*%
%TD*%
%TA.AperFunction,ComponentPad*%
%ADD16R,1.600000X2.400000*%
%TD*%
%TA.AperFunction,ComponentPad*%
%ADD17O,1.740000X2.190000*%
%TD*%
%TA.AperFunction,ViaPad*%
%ADD18C,3.500000*%
%TD*%
%TA.AperFunction,Conductor*%
%ADD19C,0.635000*%
%TD*%
%TA.AperFunction,Conductor*%
%ADD20C,0.254000*%
%TD*%
%TA.AperFunction,Conductor*%
%ADD21C,0.100000*%
%TD*%
G04 APERTURE END LIST*
D10*
%TO.P,C2,2*%
%TO.N,GND*%
X135600000Y-73700000D03*
D11*
%TO.P,C2,1*%
%TO.N,Net-(C2-Pad1)*%
X135600000Y-76200000D03*
%TD*%
D10*
%TO.P,C5,2*%
%TO.N,Net-(C5-Pad2)*%
X143300000Y-112100000D03*
%TO.P,C5,1*%
%TO.N,Net-(C5-Pad1)*%
X138300000Y-112100000D03*
%TD*%
%TO.P,C4,2*%
%TO.N,Net-(C4-Pad2)*%
X154100000Y-112100000D03*
%TO.P,C4,1*%
%TO.N,Net-(C4-Pad1)*%
X149100000Y-112100000D03*
%TD*%
D12*
%TO.P,J2,3*%
%TO.N,+12V*%
X126500000Y-84080000D03*
%TO.P,J2,2*%
%TO.N,Net-(C2-Pad1)*%
X126500000Y-81540000D03*
%TO.P,J2,1*%
%TO.N,GND*%
%TA.AperFunction,ComponentPad*%
G36*
G01*
X125654999Y-78130000D02*
X127345001Y-78130000D01*
G75*
G02*
X127595000Y-78379999I0J-249999D01*
G01*
X127595000Y-79620001D01*
G75*
G02*
X127345001Y-79870000I-249999J0D01*
G01*
X125654999Y-79870000D01*
G75*
G02*
X125405000Y-79620001I0J249999D01*
G01*
X125405000Y-78379999D01*
G75*
G02*
X125654999Y-78130000I249999J0D01*
G01*
G37*
%TD.AperFunction*%
%TD*%
D13*
%TO.P,R11,2*%
%TO.N,Net-(J7-Pad10)*%
X145660000Y-61000000D03*
D10*
%TO.P,R11,1*%
%TO.N,+12V*%
X135500000Y-61000000D03*
%TD*%
D13*
%TO.P,R10,2*%
%TO.N,Net-(J7-Pad1)*%
X159660000Y-61000000D03*
D10*
%TO.P,R10,1*%
%TO.N,-12V*%
X149500000Y-61000000D03*
%TD*%
D14*
%TO.P,J7,10*%
%TO.N,Net-(J7-Pad10)*%
X164540000Y-81660000D03*
%TO.P,J7,8*%
%TO.N,GND*%
X164540000Y-79120000D03*
%TO.P,J7,6*%
X164540000Y-76580000D03*
%TO.P,J7,4*%
X164540000Y-74040000D03*
%TO.P,J7,2*%
%TO.N,Net-(J7-Pad1)*%
X164540000Y-71500000D03*
%TO.P,J7,9*%
%TO.N,Net-(J7-Pad10)*%
X162000000Y-81660000D03*
%TO.P,J7,7*%
%TO.N,GND*%
X162000000Y-79120000D03*
%TO.P,J7,5*%
X162000000Y-76580000D03*
%TO.P,J7,3*%
X162000000Y-74040000D03*
%TO.P,J7,1*%
%TO.N,Net-(J7-Pad1)*%
%TA.AperFunction,ComponentPad*%
G36*
G01*
X161150000Y-72100000D02*
X161150000Y-70900000D01*
G75*
G02*
X161400000Y-70650000I250000J0D01*
G01*
X162600000Y-70650000D01*
G75*
G02*
X162850000Y-70900000I0J-250000D01*
G01*
X162850000Y-72100000D01*
G75*
G02*
X162600000Y-72350000I-250000J0D01*
G01*
X161400000Y-72350000D01*
G75*
G02*
X161150000Y-72100000I0J250000D01*
G01*
G37*
%TD.AperFunction*%
%TD*%
D10*
%TO.P,C10,2*%
%TO.N,GND*%
X155800000Y-66000000D03*
D11*
%TO.P,C10,1*%
%TO.N,+12V*%
X153300000Y-66000000D03*
%TD*%
D10*
%TO.P,C9,2*%
%TO.N,-12V*%
X137100000Y-66200000D03*
D11*
%TO.P,C9,1*%
%TO.N,GND*%
X134600000Y-66200000D03*
%TD*%
D15*
%TO.P,U2,8*%
%TO.N,Net-(U2-Pad8)*%
X142500000Y-70880000D03*
%TO.P,U2,4*%
%TO.N,-12V*%
X150120000Y-78500000D03*
%TO.P,U2,7*%
%TO.N,+12V*%
X145040000Y-70880000D03*
%TO.P,U2,3*%
%TO.N,GND*%
X147580000Y-78500000D03*
%TO.P,U2,6*%
%TO.N,Net-(C8-Pad2)*%
X147580000Y-70880000D03*
%TO.P,U2,2*%
%TO.N,Net-(C8-Pad1)*%
X145040000Y-78500000D03*
%TO.P,U2,5*%
%TO.N,Net-(U2-Pad5)*%
X150120000Y-70880000D03*
D16*
%TO.P,U2,1*%
%TO.N,Net-(U2-Pad1)*%
X142500000Y-78500000D03*
%TD*%
D15*
%TO.P,U1,8*%
%TO.N,GAIN2*%
X143500000Y-97380000D03*
%TO.P,U1,4*%
%TO.N,-12V*%
X151120000Y-105000000D03*
%TO.P,U1,7*%
%TO.N,+12V*%
X146040000Y-97380000D03*
%TO.P,U1,3*%
%TO.N,Net-(C4-Pad2)*%
X148580000Y-105000000D03*
%TO.P,U1,6*%
%TO.N,Net-(R8-Pad1)*%
X148580000Y-97380000D03*
%TO.P,U1,2*%
%TO.N,Net-(C5-Pad2)*%
X146040000Y-105000000D03*
%TO.P,U1,5*%
%TO.N,Net-(C8-Pad2)*%
X151120000Y-97380000D03*
D16*
%TO.P,U1,1*%
%TO.N,GAIN1*%
X143500000Y-105000000D03*
%TD*%
D13*
%TO.P,R9,2*%
%TO.N,Net-(J6-Pad2)*%
X157200000Y-103060000D03*
D10*
%TO.P,R9,1*%
%TO.N,Net-(R8-Pad1)*%
X157200000Y-92900000D03*
%TD*%
D13*
%TO.P,R8,2*%
%TO.N,Net-(C8-Pad1)*%
X148600000Y-82740000D03*
D10*
%TO.P,R8,1*%
%TO.N,Net-(R8-Pad1)*%
X148600000Y-92900000D03*
%TD*%
D13*
%TO.P,R7,2*%
%TO.N,Net-(J5-Pad2)*%
X124140000Y-109800000D03*
D10*
%TO.P,R7,1*%
%TO.N,GAIN1*%
X134300000Y-109800000D03*
%TD*%
D13*
%TO.P,R6,2*%
%TO.N,GND*%
X155340000Y-119000000D03*
D10*
%TO.P,R6,1*%
%TO.N,Net-(C4-Pad2)*%
X165500000Y-119000000D03*
%TD*%
D13*
%TO.P,R5,2*%
%TO.N,GND*%
X132800000Y-95040000D03*
D10*
%TO.P,R5,1*%
%TO.N,Net-(C5-Pad2)*%
X132800000Y-105200000D03*
%TD*%
D13*
%TO.P,R4,2*%
%TO.N,GND*%
X134260000Y-113000000D03*
D10*
%TO.P,R4,1*%
%TO.N,Net-(J4-Pad3)*%
X124100000Y-113000000D03*
%TD*%
D13*
%TO.P,R3,2*%
%TO.N,Net-(C5-Pad1)*%
X134260000Y-119400000D03*
D10*
%TO.P,R3,1*%
%TO.N,Net-(J4-Pad2)*%
X124100000Y-119400000D03*
%TD*%
D13*
%TO.P,R2,2*%
%TO.N,Net-(C4-Pad1)*%
X134260000Y-116200000D03*
D10*
%TO.P,R2,1*%
%TO.N,Net-(J4-Pad2)*%
X124100000Y-116200000D03*
%TD*%
D13*
%TO.P,R1,2*%
%TO.N,Net-(J4-Pad2)*%
X134100000Y-90860000D03*
D10*
%TO.P,R1,1*%
%TO.N,Net-(J1-Pad2)*%
X134100000Y-80700000D03*
%TD*%
D12*
%TO.P,J6,2*%
%TO.N,Net-(J6-Pad2)*%
X164400000Y-98660000D03*
%TO.P,J6,1*%
%TO.N,GND*%
%TA.AperFunction,ComponentPad*%
G36*
G01*
X165245001Y-102070000D02*
X163554999Y-102070000D01*
G75*
G02*
X163305000Y-101820001I0J249999D01*
G01*
X163305000Y-100579999D01*
G75*
G02*
X163554999Y-100330000I249999J0D01*
G01*
X165245001Y-100330000D01*
G75*
G02*
X165495000Y-100579999I0J-249999D01*
G01*
X165495000Y-101820001D01*
G75*
G02*
X165245001Y-102070000I-249999J0D01*
G01*
G37*
%TD.AperFunction*%
%TD*%
%TO.P,J5,2*%
%TO.N,Net-(J5-Pad2)*%
X126500000Y-93140000D03*
%TO.P,J5,1*%
%TO.N,GAIN2*%
%TA.AperFunction,ComponentPad*%
G36*
G01*
X125654999Y-89730000D02*
X127345001Y-89730000D01*
G75*
G02*
X127595000Y-89979999I0J-249999D01*
G01*
X127595000Y-91220001D01*
G75*
G02*
X127345001Y-91470000I-249999J0D01*
G01*
X125654999Y-91470000D01*
G75*
G02*
X125405000Y-91220001I0J249999D01*
G01*
X125405000Y-89979999D01*
G75*
G02*
X125654999Y-89730000I249999J0D01*
G01*
G37*
%TD.AperFunction*%
%TD*%
%TO.P,J4,3*%
%TO.N,Net-(J4-Pad3)*%
X126500000Y-106080000D03*
%TO.P,J4,2*%
%TO.N,Net-(J4-Pad2)*%
X126500000Y-103540000D03*
%TO.P,J4,1*%
%TO.N,Net-(C2-Pad1)*%
%TA.AperFunction,ComponentPad*%
G36*
G01*
X125654999Y-100130000D02*
X127345001Y-100130000D01*
G75*
G02*
X127595000Y-100379999I0J-249999D01*
G01*
X127595000Y-101620001D01*
G75*
G02*
X127345001Y-101870000I-249999J0D01*
G01*
X125654999Y-101870000D01*
G75*
G02*
X125405000Y-101620001I0J249999D01*
G01*
X125405000Y-100379999D01*
G75*
G02*
X125654999Y-100130000I249999J0D01*
G01*
G37*
%TD.AperFunction*%
%TD*%
D17*
%TO.P,J3,3*%
%TO.N,Net-(C4-Pad1)*%
X148880000Y-121000000D03*
%TO.P,J3,2*%
%TO.N,Net-(C5-Pad1)*%
X146340000Y-121000000D03*
%TO.P,J3,1*%
%TO.N,GND*%
%TA.AperFunction,ComponentPad*%
G36*
G01*
X142930000Y-121845001D02*
X142930000Y-120154999D01*
G75*
G02*
X143179999Y-119905000I249999J0D01*
G01*
X144420001Y-119905000D01*
G75*
G02*
X144670000Y-120154999I0J-249999D01*
G01*
X144670000Y-121845001D01*
G75*
G02*
X144420001Y-122095000I-249999J0D01*
G01*
X143179999Y-122095000D01*
G75*
G02*
X142930000Y-121845001I0J249999D01*
G01*
G37*
%TD.AperFunction*%
%TD*%
D12*
%TO.P,J1,2*%
%TO.N,Net-(J1-Pad2)*%
X126500000Y-73440000D03*
%TO.P,J1,1*%
%TO.N,GND*%
%TA.AperFunction,ComponentPad*%
G36*
G01*
X125654999Y-70030000D02*
X127345001Y-70030000D01*
G75*
G02*
X127595000Y-70279999I0J-249999D01*
G01*
X127595000Y-71520001D01*
G75*
G02*
X127345001Y-71770000I-249999J0D01*
G01*
X125654999Y-71770000D01*
G75*
G02*
X125405000Y-71520001I0J249999D01*
G01*
X125405000Y-70279999D01*
G75*
G02*
X125654999Y-70030000I249999J0D01*
G01*
G37*
%TD.AperFunction*%
%TD*%
D13*
%TO.P,D4,2*%
%TO.N,-12V*%
X136000000Y-97480000D03*
D11*
%TO.P,D4,1*%
%TO.N,Net-(C5-Pad2)*%
X136000000Y-105100000D03*
%TD*%
D13*
%TO.P,D3,2*%
%TO.N,Net-(C4-Pad2)*%
X165000000Y-113020000D03*
D11*
%TO.P,D3,1*%
%TO.N,+12V*%
X165000000Y-105400000D03*
%TD*%
D13*
%TO.P,D2,2*%
%TO.N,Net-(C5-Pad2)*%
X139000000Y-105120000D03*
D11*
%TO.P,D2,1*%
%TO.N,+12V*%
X139000000Y-97500000D03*
%TD*%
D13*
%TO.P,D1,2*%
%TO.N,-12V*%
X162000000Y-105380000D03*
D11*
%TO.P,D1,1*%
%TO.N,Net-(C4-Pad2)*%
X162000000Y-113000000D03*
%TD*%
D10*
%TO.P,C8,2*%
%TO.N,Net-(C8-Pad2)*%
X155400000Y-89200000D03*
%TO.P,C8,1*%
%TO.N,Net-(C8-Pad1)*%
X155400000Y-86700000D03*
%TD*%
%TO.P,C7,2*%
%TO.N,GND*%
X154700000Y-76400000D03*
%TO.P,C7,1*%
%TO.N,-12V*%
X154700000Y-78900000D03*
%TD*%
%TO.P,C6,2*%
%TO.N,GND*%
X159200000Y-106400000D03*
%TO.P,C6,1*%
%TO.N,-12V*%
X156700000Y-106400000D03*
%TD*%
%TO.P,C3,2*%
%TO.N,GND*%
X147500000Y-65900000D03*
%TO.P,C3,1*%
%TO.N,+12V*%
X145000000Y-65900000D03*
%TD*%
%TO.P,C1,2*%
%TO.N,GND*%
X142900000Y-92700000D03*
%TO.P,C1,1*%
%TO.N,+12V*%
X145400000Y-92700000D03*
%TD*%
D18*
%TO.N,GND*%
X166000000Y-61500000D03*
X124500000Y-61500000D03*
X124500000Y-123000000D03*
X166000000Y-123000000D03*
%TD*%
D19*
%TO.N,+12V*%
X140400000Y-65900000D02*
X135500000Y-61000000D01*
X145000000Y-65900000D02*
X140400000Y-65900000D01*
X146317501Y-64582499D02*
X145000000Y-65900000D01*
X151882499Y-64582499D02*
X146317501Y-64582499D01*
X153300000Y-66000000D02*
X151882499Y-64582499D01*
X145000000Y-70840000D02*
X145040000Y-70880000D01*
X145000000Y-65900000D02*
X145000000Y-70840000D01*
X146040000Y-93340000D02*
X145400000Y-92700000D01*
X146040000Y-97380000D02*
X146040000Y-93340000D01*
X144322490Y-95662490D02*
X146040000Y-97380000D01*
X140837510Y-95662490D02*
X144322490Y-95662490D01*
X139000000Y-97500000D02*
X140837510Y-95662490D01*
X148660000Y-100000000D02*
X146040000Y-97380000D01*
X149380882Y-100000000D02*
X148660000Y-100000000D01*
X157709902Y-104500000D02*
X153880882Y-104500000D01*
X158147403Y-104062499D02*
X157709902Y-104500000D01*
X163662499Y-104062499D02*
X158147403Y-104062499D01*
X153880882Y-104500000D02*
X149380882Y-100000000D01*
X165000000Y-105400000D02*
X163662499Y-104062499D01*
%TO.N,Net-(C2-Pad1)*%
X124887490Y-83152510D02*
X126500000Y-81540000D01*
X124887490Y-99387490D02*
X124887490Y-83152510D01*
X126500000Y-101000000D02*
X124887490Y-99387490D01*
%TO.N,Net-(C4-Pad2)*%
X162020000Y-113020000D02*
X162000000Y-113000000D01*
X165000000Y-113020000D02*
X162020000Y-113020000D01*
X165500000Y-113520000D02*
X165000000Y-113020000D01*
X165500000Y-119000000D02*
X165500000Y-113520000D01*
X155000000Y-113000000D02*
X154100000Y-112100000D01*
X162000000Y-113000000D02*
X155000000Y-113000000D01*
X148580000Y-106580000D02*
X154100000Y-112100000D01*
X148580000Y-105000000D02*
X148580000Y-106580000D01*
%TO.N,Net-(C4-Pad1)*%
X148880000Y-112320000D02*
X149100000Y-112100000D01*
X148880000Y-121000000D02*
X148880000Y-112320000D01*
%TO.N,Net-(C5-Pad2)*%
X140837501Y-103282499D02*
X139000000Y-105120000D01*
X144714001Y-103282499D02*
X140837501Y-103282499D01*
X146040000Y-104608498D02*
X144714001Y-103282499D01*
X146040000Y-105000000D02*
X146040000Y-104608498D01*
X136020000Y-105120000D02*
X136000000Y-105100000D01*
X139000000Y-105120000D02*
X136020000Y-105120000D01*
X132900000Y-105100000D02*
X132800000Y-105200000D01*
X136000000Y-105100000D02*
X132900000Y-105100000D01*
X146040000Y-109360000D02*
X143300000Y-112100000D01*
X146040000Y-105000000D02*
X146040000Y-109360000D01*
%TO.N,Net-(C5-Pad1)*%
X146340000Y-121000000D02*
X146340000Y-120140000D01*
X139710000Y-113950000D02*
X140150000Y-113950000D01*
X134260000Y-119400000D02*
X139710000Y-113950000D01*
X140150000Y-113950000D02*
X138300000Y-112100000D01*
X146340000Y-120140000D02*
X140150000Y-113950000D01*
%TO.N,-12V*%
X154300000Y-78500000D02*
X154700000Y-78900000D01*
X150120000Y-78500000D02*
X154300000Y-78500000D01*
X137100000Y-67743240D02*
X137100000Y-66200000D01*
X142424359Y-73067599D02*
X137100000Y-67743240D01*
X144687599Y-73067599D02*
X142424359Y-73067599D01*
X150120000Y-78500000D02*
X144687599Y-73067599D01*
X145217510Y-99097510D02*
X151120000Y-105000000D01*
X137617510Y-99097510D02*
X145217510Y-99097510D01*
X136000000Y-97480000D02*
X137617510Y-99097510D01*
X156990784Y-106400000D02*
X156700000Y-106400000D01*
X158308285Y-105082499D02*
X156990784Y-106400000D01*
X159832401Y-105082499D02*
X158308285Y-105082499D01*
X160129902Y-105380000D02*
X159832401Y-105082499D01*
X162000000Y-105380000D02*
X160129902Y-105380000D01*
X152520000Y-106400000D02*
X151120000Y-105000000D01*
X156700000Y-106400000D02*
X152520000Y-106400000D01*
%TO.N,Net-(C8-Pad2)*%
X149297510Y-72597510D02*
X147580000Y-70880000D01*
X152847412Y-72597510D02*
X149297510Y-72597510D01*
X156717501Y-87882499D02*
X156717501Y-76467599D01*
X156717501Y-76467599D02*
X152847412Y-72597510D01*
X155400000Y-89200000D02*
X156717501Y-87882499D01*
%TO.N,Net-(C8-Pad1)*%
X148600000Y-82060000D02*
X145040000Y-78500000D01*
X148600000Y-82740000D02*
X148600000Y-82060000D01*
X151440000Y-82740000D02*
X155400000Y-86700000D01*
X148600000Y-82740000D02*
X151440000Y-82740000D01*
%TO.N,Net-(J1-Pad2)*%
X126840000Y-73440000D02*
X134100000Y-80700000D01*
X126500000Y-73440000D02*
X126840000Y-73440000D01*
%TO.N,Net-(J4-Pad3)*%
X126000000Y-106580000D02*
X126500000Y-106080000D01*
X126500000Y-110600000D02*
X126500000Y-106080000D01*
X124100000Y-113000000D02*
X126500000Y-110600000D01*
%TO.N,Net-(J4-Pad2)*%
X124100000Y-119400000D02*
X124100000Y-116200000D01*
X128112510Y-105152510D02*
X126500000Y-103540000D01*
X128112510Y-112187490D02*
X128112510Y-105152510D01*
X124100000Y-116200000D02*
X128112510Y-112187490D01*
%TO.N,Net-(J6-Pad2)*%
X161600000Y-98660000D02*
X157200000Y-103060000D01*
X164400000Y-98660000D02*
X161600000Y-98660000D01*
%TO.N,GAIN1*%
X138700000Y-109800000D02*
X134300000Y-109800000D01*
X143500000Y-105000000D02*
X138700000Y-109800000D01*
%TO.N,Net-(R8-Pad1)*%
X148600000Y-92900000D02*
X157200000Y-92900000D01*
X148600000Y-97360000D02*
X148580000Y-97380000D01*
X148600000Y-92900000D02*
X148600000Y-97360000D01*
%TO.N,Net-(J7-Pad10)*%
X164540000Y-81660000D02*
X162000000Y-81660000D01*
X160632499Y-68882597D02*
X155249902Y-63500000D01*
X160632499Y-80292499D02*
X160632499Y-68882597D01*
X162000000Y-81660000D02*
X160632499Y-80292499D01*
X148160000Y-63500000D02*
X145660000Y-61000000D01*
X155249902Y-63500000D02*
X148160000Y-63500000D01*
%TO.N,Net-(J7-Pad1)*%
X164540000Y-71500000D02*
X162000000Y-71500000D01*
X162000000Y-63340000D02*
X159660000Y-61000000D01*
X162000000Y-71500000D02*
X162000000Y-63340000D01*
%TD*%
D20*
%TO.N,GND*%
X168340000Y-125340000D02*
X122160000Y-125340000D01*
X122160000Y-122095000D01*
X142291928Y-122095000D01*
X142304188Y-122219482D01*
X142340498Y-122339180D01*
X142399463Y-122449494D01*
X142478815Y-122546185D01*
X142575506Y-122625537D01*
X142685820Y-122684502D01*
X142805518Y-122720812D01*
X142930000Y-122733072D01*
X143514250Y-122730000D01*
X143673000Y-122571250D01*
X143673000Y-121127000D01*
X142453750Y-121127000D01*
X142295000Y-121285750D01*
X142291928Y-122095000D01*
X122160000Y-122095000D01*
X122160000Y-112858665D01*
X122665000Y-112858665D01*
X122665000Y-113141335D01*
X122720147Y-113418574D01*
X122828320Y-113679727D01*
X122985363Y-113914759D01*
X123185241Y-114114637D01*
X123420273Y-114271680D01*
X123681426Y-114379853D01*
X123958665Y-114435000D01*
X124241335Y-114435000D01*
X124518574Y-114379853D01*
X124611670Y-114341291D01*
X124187962Y-114765000D01*
X123958665Y-114765000D01*
X123681426Y-114820147D01*
X123420273Y-114928320D01*
X123185241Y-115085363D01*
X122985363Y-115285241D01*
X122828320Y-115520273D01*
X122720147Y-115781426D01*
X122665000Y-116058665D01*
X122665000Y-116341335D01*
X122720147Y-116618574D01*
X122828320Y-116879727D01*
X122985363Y-117114759D01*
X123147501Y-117276897D01*
X123147500Y-118323104D01*
X122985363Y-118485241D01*
X122828320Y-118720273D01*
X122720147Y-118981426D01*
X122665000Y-119258665D01*
X122665000Y-119541335D01*
X122720147Y-119818574D01*
X122828320Y-120079727D01*
X122985363Y-120314759D01*
X123185241Y-120514637D01*
X123420273Y-120671680D01*
X123681426Y-120779853D01*
X123958665Y-120835000D01*
X124241335Y-120835000D01*
X124518574Y-120779853D01*
X124779727Y-120671680D01*
X125014759Y-120514637D01*
X125214637Y-120314759D01*
X125371680Y-120079727D01*
X125479853Y-119818574D01*
X125535000Y-119541335D01*
X125535000Y-119258665D01*
X125479853Y-118981426D01*
X125371680Y-118720273D01*
X125214637Y-118485241D01*
X125052500Y-118323104D01*
X125052500Y-117276896D01*
X125214637Y-117114759D01*
X125371680Y-116879727D01*
X125479853Y-116618574D01*
X125535000Y-116341335D01*
X125535000Y-116112038D01*
X128297999Y-113349039D01*
X132868096Y-113349039D01*
X132908754Y-113483087D01*
X133028963Y-113737420D01*
X133196481Y-113963414D01*
X133404869Y-114152385D01*
X133646119Y-114297070D01*
X133910960Y-114391909D01*
X134133000Y-114270624D01*
X134133000Y-113127000D01*
X134387000Y-113127000D01*
X134387000Y-114270624D01*
X134609040Y-114391909D01*
X134873881Y-114297070D01*
X135115131Y-114152385D01*
X135323519Y-113963414D01*
X135491037Y-113737420D01*
X135611246Y-113483087D01*
X135651904Y-113349039D01*
X135529915Y-113127000D01*
X134387000Y-113127000D01*
X134133000Y-113127000D01*
X132990085Y-113127000D01*
X132868096Y-113349039D01*
X128297999Y-113349039D01*
X128752946Y-112894093D01*
X128789288Y-112864268D01*
X128908316Y-112719231D01*
X128944806Y-112650961D01*
X132868096Y-112650961D01*
X132990085Y-112873000D01*
X134133000Y-112873000D01*
X134133000Y-111729376D01*
X134387000Y-111729376D01*
X134387000Y-112873000D01*
X135529915Y-112873000D01*
X135651904Y-112650961D01*
X135611246Y-112516913D01*
X135491037Y-112262580D01*
X135323519Y-112036586D01*
X135115131Y-111847615D01*
X134873881Y-111702930D01*
X134609040Y-111608091D01*
X134387000Y-111729376D01*
X134133000Y-111729376D01*
X133910960Y-111608091D01*
X133646119Y-111702930D01*
X133404869Y-111847615D01*
X133196481Y-112036586D01*
X133028963Y-112262580D01*
X132908754Y-112516913D01*
X132868096Y-112650961D01*
X128944806Y-112650961D01*
X128996762Y-112553759D01*
X129051227Y-112374213D01*
X129065010Y-112234275D01*
X129065010Y-112234274D01*
X129069618Y-112187491D01*
X129065010Y-112140706D01*
X129065010Y-105199295D01*
X129069618Y-105152510D01*
X129060375Y-105058665D01*
X131365000Y-105058665D01*
X131365000Y-105341335D01*
X131420147Y-105618574D01*
X131528320Y-105879727D01*
X131685363Y-106114759D01*
X131885241Y-106314637D01*
X132120273Y-106471680D01*
X132381426Y-106579853D01*
X132658665Y-106635000D01*
X132941335Y-106635000D01*
X133218574Y-106579853D01*
X133479727Y-106471680D01*
X133714759Y-106314637D01*
X133914637Y-106114759D01*
X133956237Y-106052500D01*
X134582687Y-106052500D01*
X134610498Y-106144180D01*
X134669463Y-106254494D01*
X134748815Y-106351185D01*
X134845506Y-106430537D01*
X134955820Y-106489502D01*
X135075518Y-106525812D01*
X135200000Y-106538072D01*
X136800000Y-106538072D01*
X136924482Y-106525812D01*
X137044180Y-106489502D01*
X137154494Y-106430537D01*
X137251185Y-106351185D01*
X137330537Y-106254494D01*
X137389502Y-106144180D01*
X137411246Y-106072500D01*
X137923104Y-106072500D01*
X138085241Y-106234637D01*
X138320273Y-106391680D01*
X138581426Y-106499853D01*
X138858665Y-106555000D01*
X139141335Y-106555000D01*
X139418574Y-106499853D01*
X139679727Y-106391680D01*
X139914759Y-106234637D01*
X140114637Y-106034759D01*
X140271680Y-105799727D01*
X140379853Y-105538574D01*
X140435000Y-105261335D01*
X140435000Y-105032038D01*
X141232040Y-104234999D01*
X142061928Y-104234999D01*
X142061928Y-105091033D01*
X138305462Y-108847500D01*
X135376896Y-108847500D01*
X135214759Y-108685363D01*
X134979727Y-108528320D01*
X134718574Y-108420147D01*
X134441335Y-108365000D01*
X134158665Y-108365000D01*
X133881426Y-108420147D01*
X133620273Y-108528320D01*
X133385241Y-108685363D01*
X133185363Y-108885241D01*
X133028320Y-109120273D01*
X132920147Y-109381426D01*
X132865000Y-109658665D01*
X132865000Y-109941335D01*
X132920147Y-110218574D01*
X133028320Y-110479727D01*
X133185363Y-110714759D01*
X133385241Y-110914637D01*
X133620273Y-111071680D01*
X133881426Y-111179853D01*
X134158665Y-111235000D01*
X134441335Y-111235000D01*
X134718574Y-111179853D01*
X134979727Y-111071680D01*
X135214759Y-110914637D01*
X135376896Y-110752500D01*
X137803319Y-110752500D01*
X137620273Y-110828320D01*
X137385241Y-110985363D01*
X137185363Y-111185241D01*
X137028320Y-111420273D01*
X136920147Y-111681426D01*
X136865000Y-111958665D01*
X136865000Y-112241335D01*
X136920147Y-112518574D01*
X137028320Y-112779727D01*
X137185363Y-113014759D01*
X137385241Y-113214637D01*
X137620273Y-113371680D01*
X137881426Y-113479853D01*
X138158665Y-113535000D01*
X138387962Y-113535000D01*
X138582961Y-113730000D01*
X135601291Y-116711670D01*
X135639853Y-116618574D01*
X135695000Y-116341335D01*
X135695000Y-116058665D01*
X135639853Y-115781426D01*
X135531680Y-115520273D01*
X135374637Y-115285241D01*
X135174759Y-115085363D01*
X134939727Y-114928320D01*
X134678574Y-114820147D01*
X134401335Y-114765000D01*
X134118665Y-114765000D01*
X133841426Y-114820147D01*
X133580273Y-114928320D01*
X133345241Y-115085363D01*
X133145363Y-115285241D01*
X132988320Y-115520273D01*
X132880147Y-115781426D01*
X132825000Y-116058665D01*
X132825000Y-116341335D01*
X132880147Y-116618574D01*
X132988320Y-116879727D01*
X133145363Y-117114759D01*
X133345241Y-117314637D01*
X133580273Y-117471680D01*
X133841426Y-117579853D01*
X134118665Y-117635000D01*
X134401335Y-117635000D01*
X134678574Y-117579853D01*
X134771671Y-117541291D01*
X134347962Y-117965000D01*
X134118665Y-117965000D01*
X133841426Y-118020147D01*
X133580273Y-118128320D01*
X133345241Y-118285363D01*
X133145363Y-118485241D01*
X132988320Y-118720273D01*
X132880147Y-118981426D01*
X132825000Y-119258665D01*
X132825000Y-119541335D01*
X132880147Y-119818574D01*
X132988320Y-120079727D01*
X133145363Y-120314759D01*
X133345241Y-120514637D01*
X133580273Y-120671680D01*
X133841426Y-120779853D01*
X134118665Y-120835000D01*
X134401335Y-120835000D01*
X134678574Y-120779853D01*
X134939727Y-120671680D01*
X135174759Y-120514637D01*
X135374637Y-120314759D01*
X135531680Y-120079727D01*
X135604054Y-119905000D01*
X142291928Y-119905000D01*
X142295000Y-120714250D01*
X142453750Y-120873000D01*
X143673000Y-120873000D01*
X143673000Y-119428750D01*
X143514250Y-119270000D01*
X142930000Y-119266928D01*
X142805518Y-119279188D01*
X142685820Y-119315498D01*
X142575506Y-119374463D01*
X142478815Y-119453815D01*
X142399463Y-119550506D01*
X142340498Y-119660820D01*
X142304188Y-119780518D01*
X142291928Y-119905000D01*
X135604054Y-119905000D01*
X135639853Y-119818574D01*
X135695000Y-119541335D01*
X135695000Y-119312038D01*
X139930000Y-115077038D01*
X144122767Y-119269805D01*
X144085750Y-119270000D01*
X143927000Y-119428750D01*
X143927000Y-120873000D01*
X143947000Y-120873000D01*
X143947000Y-121127000D01*
X143927000Y-121127000D01*
X143927000Y-122571250D01*
X144085750Y-122730000D01*
X144670000Y-122733072D01*
X144794482Y-122720812D01*
X144914180Y-122684502D01*
X145024494Y-122625537D01*
X145121185Y-122546185D01*
X145200537Y-122449494D01*
X145259502Y-122339180D01*
X145272615Y-122295953D01*
X145499822Y-122482417D01*
X145761276Y-122622166D01*
X146044969Y-122708224D01*
X146340000Y-122737282D01*
X146635032Y-122708224D01*
X146918725Y-122622166D01*
X147180179Y-122482417D01*
X147409345Y-122294345D01*
X147597417Y-122065179D01*
X147610000Y-122041638D01*
X147622583Y-122065179D01*
X147810655Y-122294345D01*
X148039822Y-122482417D01*
X148301276Y-122622166D01*
X148584969Y-122708224D01*
X148880000Y-122737282D01*
X149175032Y-122708224D01*
X149458725Y-122622166D01*
X149720179Y-122482417D01*
X149949345Y-122294345D01*
X150137417Y-122065179D01*
X150277166Y-121803724D01*
X150363224Y-121520031D01*
X150385000Y-121298935D01*
X150385000Y-120701064D01*
X150363224Y-120479968D01*
X150277166Y-120196275D01*
X150137417Y-119934821D01*
X149949345Y-119705655D01*
X149832500Y-119609763D01*
X149832500Y-119349039D01*
X153948096Y-119349039D01*
X153988754Y-119483087D01*
X154108963Y-119737420D01*
X154276481Y-119963414D01*
X154484869Y-120152385D01*
X154726119Y-120297070D01*
X154990960Y-120391909D01*
X155213000Y-120270624D01*
X155213000Y-119127000D01*
X155467000Y-119127000D01*
X155467000Y-120270624D01*
X155689040Y-120391909D01*
X155953881Y-120297070D01*
X156195131Y-120152385D01*
X156403519Y-119963414D01*
X156571037Y-119737420D01*
X156691246Y-119483087D01*
X156731904Y-119349039D01*
X156609915Y-119127000D01*
X155467000Y-119127000D01*
X155213000Y-119127000D01*
X154070085Y-119127000D01*
X153948096Y-119349039D01*
X149832500Y-119349039D01*
X149832500Y-118650961D01*
X153948096Y-118650961D01*
X154070085Y-118873000D01*
X155213000Y-118873000D01*
X155213000Y-117729376D01*
X155467000Y-117729376D01*
X155467000Y-118873000D01*
X156609915Y-118873000D01*
X156731904Y-118650961D01*
X156691246Y-118516913D01*
X156571037Y-118262580D01*
X156403519Y-118036586D01*
X156195131Y-117847615D01*
X155953881Y-117702930D01*
X155689040Y-117608091D01*
X155467000Y-117729376D01*
X155213000Y-117729376D01*
X154990960Y-117608091D01*
X154726119Y-117702930D01*
X154484869Y-117847615D01*
X154276481Y-118036586D01*
X154108963Y-118262580D01*
X153988754Y-118516913D01*
X153948096Y-118650961D01*
X149832500Y-118650961D01*
X149832500Y-113336418D01*
X150014759Y-113214637D01*
X150214637Y-113014759D01*
X150371680Y-112779727D01*
X150479853Y-112518574D01*
X150535000Y-112241335D01*
X150535000Y-111958665D01*
X150479853Y-111681426D01*
X150371680Y-111420273D01*
X150214637Y-111185241D01*
X150014759Y-110985363D01*
X149779727Y-110828320D01*
X149518574Y-110720147D01*
X149241335Y-110665000D01*
X148958665Y-110665000D01*
X148681426Y-110720147D01*
X148420273Y-110828320D01*
X148185241Y-110985363D01*
X147985363Y-111185241D01*
X147828320Y-111420273D01*
X147720147Y-111681426D01*
X147665000Y-111958665D01*
X147665000Y-112241335D01*
X147720147Y-112518574D01*
X147828320Y-112779727D01*
X147927501Y-112928162D01*
X147927500Y-119609762D01*
X147810655Y-119705655D01*
X147622583Y-119934822D01*
X147610000Y-119958363D01*
X147597417Y-119934821D01*
X147409345Y-119705655D01*
X147180178Y-119517583D01*
X146931934Y-119384895D01*
X140856607Y-113309569D01*
X140826778Y-113273222D01*
X140790436Y-113243397D01*
X139735000Y-112187962D01*
X139735000Y-111958665D01*
X139679853Y-111681426D01*
X139571680Y-111420273D01*
X139414637Y-111185241D01*
X139214759Y-110985363D01*
X138979727Y-110828320D01*
X138787096Y-110748530D01*
X138886723Y-110738717D01*
X139066269Y-110684252D01*
X139231741Y-110595806D01*
X139376778Y-110476778D01*
X139406607Y-110440431D01*
X143008967Y-106838072D01*
X144300000Y-106838072D01*
X144424482Y-106825812D01*
X144544180Y-106789502D01*
X144654494Y-106730537D01*
X144751185Y-106651185D01*
X144830537Y-106554494D01*
X144889502Y-106444180D01*
X144925812Y-106324482D01*
X144927581Y-106306517D01*
X145020393Y-106419608D01*
X145087500Y-106474682D01*
X145087501Y-108965460D01*
X143387962Y-110665000D01*
X143158665Y-110665000D01*
X142881426Y-110720147D01*
X142620273Y-110828320D01*
X142385241Y-110985363D01*
X142185363Y-111185241D01*
X142028320Y-111420273D01*
X141920147Y-111681426D01*
X141865000Y-111958665D01*
X141865000Y-112241335D01*
X141920147Y-112518574D01*
X142028320Y-112779727D01*
X142185363Y-113014759D01*
X142385241Y-113214637D01*
X142620273Y-113371680D01*
X142881426Y-113479853D01*
X143158665Y-113535000D01*
X143441335Y-113535000D01*
X143718574Y-113479853D01*
X143979727Y-113371680D01*
X144214759Y-113214637D01*
X144414637Y-113014759D01*
X144571680Y-112779727D01*
X144679853Y-112518574D01*
X144735000Y-112241335D01*
X144735000Y-112012038D01*
X146680436Y-110066603D01*
X146716778Y-110036778D01*
X146835806Y-109891741D01*
X146924252Y-109726269D01*
X146978717Y-109546723D01*
X146992500Y-109406785D01*
X146997108Y-109360001D01*
X146992500Y-109313216D01*
X146992500Y-106474682D01*
X147059608Y-106419608D01*
X147238932Y-106201101D01*
X147310000Y-106068142D01*
X147381068Y-106201101D01*
X147560393Y-106419608D01*
X147627501Y-106474682D01*
X147627501Y-106533206D01*
X147622892Y-106580000D01*
X147641283Y-106766722D01*
X147695749Y-106946269D01*
X147781448Y-107106601D01*
X147784195Y-107111741D01*
X147903223Y-107256778D01*
X147939563Y-107286601D01*
X152665000Y-112012039D01*
X152665000Y-112241335D01*
X152720147Y-112518574D01*
X152828320Y-112779727D01*
X152985363Y-113014759D01*
X153185241Y-113214637D01*
X153420273Y-113371680D01*
X153681426Y-113479853D01*
X153958665Y-113535000D01*
X154187961Y-113535000D01*
X154293397Y-113640436D01*
X154323222Y-113676778D01*
X154468259Y-113795806D01*
X154633731Y-113884252D01*
X154766351Y-113924482D01*
X154813277Y-113938717D01*
X154999999Y-113957108D01*
X155046784Y-113952500D01*
X160582687Y-113952500D01*
X160610498Y-114044180D01*
X160669463Y-114154494D01*
X160748815Y-114251185D01*
X160845506Y-114330537D01*
X160955820Y-114389502D01*
X161075518Y-114425812D01*
X161200000Y-114438072D01*
X162800000Y-114438072D01*
X162924482Y-114425812D01*
X163044180Y-114389502D01*
X163154494Y-114330537D01*
X163251185Y-114251185D01*
X163330537Y-114154494D01*
X163389502Y-114044180D01*
X163411246Y-113972500D01*
X163923104Y-113972500D01*
X164085241Y-114134637D01*
X164320273Y-114291680D01*
X164547501Y-114385801D01*
X164547500Y-117923104D01*
X164385363Y-118085241D01*
X164228320Y-118320273D01*
X164120147Y-118581426D01*
X164065000Y-118858665D01*
X164065000Y-119141335D01*
X164120147Y-119418574D01*
X164228320Y-119679727D01*
X164385363Y-119914759D01*
X164585241Y-120114637D01*
X164820273Y-120271680D01*
X165081426Y-120379853D01*
X165358665Y-120435000D01*
X165641335Y-120435000D01*
X165918574Y-120379853D01*
X166179727Y-120271680D01*
X166414759Y-120114637D01*
X166614637Y-119914759D01*
X166771680Y-119679727D01*
X166879853Y-119418574D01*
X166935000Y-119141335D01*
X166935000Y-118858665D01*
X166879853Y-118581426D01*
X166771680Y-118320273D01*
X166614637Y-118085241D01*
X166452500Y-117923104D01*
X166452500Y-113566785D01*
X166457108Y-113520000D01*
X166442499Y-113371680D01*
X166438717Y-113333277D01*
X166415815Y-113257781D01*
X166435000Y-113161335D01*
X166435000Y-112878665D01*
X166379853Y-112601426D01*
X166271680Y-112340273D01*
X166114637Y-112105241D01*
X165914759Y-111905363D01*
X165679727Y-111748320D01*
X165418574Y-111640147D01*
X165141335Y-111585000D01*
X164858665Y-111585000D01*
X164581426Y-111640147D01*
X164320273Y-111748320D01*
X164085241Y-111905363D01*
X163923104Y-112067500D01*
X163423380Y-112067500D01*
X163389502Y-111955820D01*
X163330537Y-111845506D01*
X163251185Y-111748815D01*
X163154494Y-111669463D01*
X163044180Y-111610498D01*
X162924482Y-111574188D01*
X162800000Y-111561928D01*
X161200000Y-111561928D01*
X161075518Y-111574188D01*
X160955820Y-111610498D01*
X160845506Y-111669463D01*
X160748815Y-111748815D01*
X160669463Y-111845506D01*
X160610498Y-111955820D01*
X160582687Y-112047500D01*
X155535000Y-112047500D01*
X155535000Y-111958665D01*
X155479853Y-111681426D01*
X155371680Y-111420273D01*
X155214637Y-111185241D01*
X155014759Y-110985363D01*
X154779727Y-110828320D01*
X154518574Y-110720147D01*
X154241335Y-110665000D01*
X154012039Y-110665000D01*
X149674901Y-106327863D01*
X149778932Y-106201101D01*
X149850000Y-106068142D01*
X149921068Y-106201101D01*
X150100393Y-106419608D01*
X150318900Y-106598932D01*
X150568193Y-106732182D01*
X150838692Y-106814236D01*
X151120000Y-106841943D01*
X151401309Y-106814236D01*
X151543933Y-106770972D01*
X151813397Y-107040436D01*
X151843222Y-107076778D01*
X151988259Y-107195806D01*
X152153731Y-107284252D01*
X152333277Y-107338717D01*
X152520000Y-107357108D01*
X152566785Y-107352500D01*
X155623104Y-107352500D01*
X155785241Y-107514637D01*
X156020273Y-107671680D01*
X156281426Y-107779853D01*
X156558665Y-107835000D01*
X156841335Y-107835000D01*
X157118574Y-107779853D01*
X157379727Y-107671680D01*
X157614759Y-107514637D01*
X157736694Y-107392702D01*
X158386903Y-107392702D01*
X158458486Y-107636671D01*
X158713996Y-107757571D01*
X158988184Y-107826300D01*
X159270512Y-107840217D01*
X159550130Y-107798787D01*
X159816292Y-107703603D01*
X159941514Y-107636671D01*
X160013097Y-107392702D01*
X159200000Y-106579605D01*
X158386903Y-107392702D01*
X157736694Y-107392702D01*
X157814637Y-107314759D01*
X157948692Y-107114131D01*
X157963329Y-107141514D01*
X158207298Y-107213097D01*
X159020395Y-106400000D01*
X159006253Y-106385858D01*
X159185858Y-106206253D01*
X159200000Y-106220395D01*
X159214143Y-106206253D01*
X159393748Y-106385858D01*
X159379605Y-106400000D01*
X160192702Y-107213097D01*
X160436671Y-107141514D01*
X160557571Y-106886004D01*
X160626300Y-106611816D01*
X160640069Y-106332500D01*
X160923104Y-106332500D01*
X161085241Y-106494637D01*
X161320273Y-106651680D01*
X161581426Y-106759853D01*
X161858665Y-106815000D01*
X162141335Y-106815000D01*
X162418574Y-106759853D01*
X162679727Y-106651680D01*
X162914759Y-106494637D01*
X163114637Y-106294759D01*
X163271680Y-106059727D01*
X163379853Y-105798574D01*
X163435000Y-105521335D01*
X163435000Y-105238665D01*
X163420939Y-105167978D01*
X163561928Y-105308966D01*
X163561928Y-106200000D01*
X163574188Y-106324482D01*
X163610498Y-106444180D01*
X163669463Y-106554494D01*
X163748815Y-106651185D01*
X163845506Y-106730537D01*
X163955820Y-106789502D01*
X164075518Y-106825812D01*
X164200000Y-106838072D01*
X165800000Y-106838072D01*
X165924482Y-106825812D01*
X166044180Y-106789502D01*
X166154494Y-106730537D01*
X166251185Y-106651185D01*
X166330537Y-106554494D01*
X166389502Y-106444180D01*
X166425812Y-106324482D01*
X166438072Y-106200000D01*
X166438072Y-104600000D01*
X166425812Y-104475518D01*
X166389502Y-104355820D01*
X166330537Y-104245506D01*
X166251185Y-104148815D01*
X166154494Y-104069463D01*
X166044180Y-104010498D01*
X165924482Y-103974188D01*
X165800000Y-103961928D01*
X164908966Y-103961928D01*
X164369106Y-103422068D01*
X164339277Y-103385721D01*
X164194240Y-103266693D01*
X164028768Y-103178247D01*
X163849222Y-103123782D01*
X163709284Y-103109999D01*
X163662499Y-103105391D01*
X163615714Y-103109999D01*
X158635000Y-103109999D01*
X158635000Y-102972038D01*
X159537038Y-102070000D01*
X162666928Y-102070000D01*
X162679188Y-102194482D01*
X162715498Y-102314180D01*
X162774463Y-102424494D01*
X162853815Y-102521185D01*
X162950506Y-102600537D01*
X163060820Y-102659502D01*
X163180518Y-102695812D01*
X163305000Y-102708072D01*
X164114250Y-102705000D01*
X164273000Y-102546250D01*
X164273000Y-101327000D01*
X164527000Y-101327000D01*
X164527000Y-102546250D01*
X164685750Y-102705000D01*
X165495000Y-102708072D01*
X165619482Y-102695812D01*
X165739180Y-102659502D01*
X165849494Y-102600537D01*
X165946185Y-102521185D01*
X166025537Y-102424494D01*
X166084502Y-102314180D01*
X166120812Y-102194482D01*
X166133072Y-102070000D01*
X166130000Y-101485750D01*
X165971250Y-101327000D01*
X164527000Y-101327000D01*
X164273000Y-101327000D01*
X162828750Y-101327000D01*
X162670000Y-101485750D01*
X162666928Y-102070000D01*
X159537038Y-102070000D01*
X161994538Y-99612500D01*
X163009763Y-99612500D01*
X163104047Y-99727385D01*
X163060820Y-99740498D01*
X162950506Y-99799463D01*
X162853815Y-99878815D01*
X162774463Y-99975506D01*
X162715498Y-100085820D01*
X162679188Y-100205518D01*
X162666928Y-100330000D01*
X162670000Y-100914250D01*
X162828750Y-101073000D01*
X164273000Y-101073000D01*
X164273000Y-101053000D01*
X164527000Y-101053000D01*
X164527000Y-101073000D01*
X165971250Y-101073000D01*
X166130000Y-100914250D01*
X166133072Y-100330000D01*
X166120812Y-100205518D01*
X166084502Y-100085820D01*
X166025537Y-99975506D01*
X165946185Y-99878815D01*
X165849494Y-99799463D01*
X165739180Y-99740498D01*
X165695953Y-99727385D01*
X165882417Y-99500179D01*
X166022166Y-99238725D01*
X166108224Y-98955032D01*
X166137282Y-98660000D01*
X166108224Y-98364968D01*
X166022166Y-98081275D01*
X165882417Y-97819821D01*
X165694345Y-97590655D01*
X165465179Y-97402583D01*
X165203725Y-97262834D01*
X164920032Y-97176776D01*
X164698936Y-97155000D01*
X164101064Y-97155000D01*
X163879968Y-97176776D01*
X163596275Y-97262834D01*
X163334821Y-97402583D01*
X163105655Y-97590655D01*
X163009763Y-97707500D01*
X161646785Y-97707500D01*
X161600000Y-97702892D01*
X161553215Y-97707500D01*
X161413277Y-97721283D01*
X161330913Y-97746268D01*
X161233730Y-97775748D01*
X161151276Y-97819821D01*
X161068259Y-97864194D01*
X160923222Y-97983222D01*
X160893393Y-98019569D01*
X157287962Y-101625000D01*
X157058665Y-101625000D01*
X156781426Y-101680147D01*
X156520273Y-101788320D01*
X156285241Y-101945363D01*
X156085363Y-102145241D01*
X155928320Y-102380273D01*
X155820147Y-102641426D01*
X155765000Y-102918665D01*
X155765000Y-103201335D01*
X155820147Y-103478574D01*
X155848697Y-103547500D01*
X154275421Y-103547500D01*
X150087489Y-99359569D01*
X150057660Y-99323222D01*
X149912623Y-99204194D01*
X149747151Y-99115748D01*
X149567605Y-99061283D01*
X149427667Y-99047500D01*
X149380882Y-99042892D01*
X149334097Y-99047500D01*
X149252819Y-99047500D01*
X149381101Y-98978932D01*
X149599608Y-98799608D01*
X149778932Y-98581101D01*
X149850000Y-98448142D01*
X149921068Y-98581101D01*
X150100393Y-98799608D01*
X150318900Y-98978932D01*
X150568193Y-99112182D01*
X150838692Y-99194236D01*
X151120000Y-99221943D01*
X151401309Y-99194236D01*
X151671808Y-99112182D01*
X151921101Y-98978932D01*
X152139608Y-98799608D01*
X152318932Y-98581101D01*
X152452182Y-98331808D01*
X152534236Y-98061309D01*
X152555000Y-97850491D01*
X152555000Y-96909508D01*
X152534236Y-96698691D01*
X152452182Y-96428192D01*
X152318932Y-96178899D01*
X152139607Y-95960392D01*
X151921100Y-95781068D01*
X151671807Y-95647818D01*
X151401308Y-95565764D01*
X151120000Y-95538057D01*
X150838691Y-95565764D01*
X150568192Y-95647818D01*
X150318899Y-95781068D01*
X150100392Y-95960393D01*
X149921068Y-96178900D01*
X149850000Y-96311858D01*
X149778932Y-96178899D01*
X149599607Y-95960392D01*
X149552500Y-95921732D01*
X149552500Y-93976896D01*
X149676896Y-93852500D01*
X156123104Y-93852500D01*
X156285241Y-94014637D01*
X156520273Y-94171680D01*
X156781426Y-94279853D01*
X157058665Y-94335000D01*
X157341335Y-94335000D01*
X157618574Y-94279853D01*
X157879727Y-94171680D01*
X158114759Y-94014637D01*
X158314637Y-93814759D01*
X158471680Y-93579727D01*
X158579853Y-93318574D01*
X158635000Y-93041335D01*
X158635000Y-92758665D01*
X158579853Y-92481426D01*
X158471680Y-92220273D01*
X158314637Y-91985241D01*
X158114759Y-91785363D01*
X157879727Y-91628320D01*
X157618574Y-91520147D01*
X157341335Y-91465000D01*
X157058665Y-91465000D01*
X156781426Y-91520147D01*
X156520273Y-91628320D01*
X156285241Y-91785363D01*
X156123104Y-91947500D01*
X149676896Y-91947500D01*
X149514759Y-91785363D01*
X149279727Y-91628320D01*
X149018574Y-91520147D01*
X148741335Y-91465000D01*
X148458665Y-91465000D01*
X148181426Y-91520147D01*
X147920273Y-91628320D01*
X147685241Y-91785363D01*
X147485363Y-91985241D01*
X147328320Y-92220273D01*
X147220147Y-92481426D01*
X147165000Y-92758665D01*
X147165000Y-93041335D01*
X147220147Y-93318574D01*
X147328320Y-93579727D01*
X147485363Y-93814759D01*
X147647500Y-93976896D01*
X147647501Y-95888904D01*
X147560392Y-95960393D01*
X147381068Y-96178900D01*
X147310000Y-96311858D01*
X147238932Y-96178899D01*
X147059607Y-95960392D01*
X146992500Y-95905319D01*
X146992500Y-93386785D01*
X146997108Y-93340000D01*
X146978717Y-93153278D01*
X146924252Y-92973730D01*
X146853485Y-92841335D01*
X146835806Y-92808259D01*
X146835000Y-92807277D01*
X146835000Y-92558665D01*
X146779853Y-92281426D01*
X146671680Y-92020273D01*
X146514637Y-91785241D01*
X146314759Y-91585363D01*
X146079727Y-91428320D01*
X145818574Y-91320147D01*
X145541335Y-91265000D01*
X145258665Y-91265000D01*
X144981426Y-91320147D01*
X144720273Y-91428320D01*
X144485241Y-91585363D01*
X144285363Y-91785241D01*
X144151308Y-91985869D01*
X144136671Y-91958486D01*
X143892702Y-91886903D01*
X143079605Y-92700000D01*
X143892702Y-93513097D01*
X144136671Y-93441514D01*
X144150324Y-93412659D01*
X144285363Y-93614759D01*
X144485241Y-93814637D01*
X144720273Y-93971680D01*
X144981426Y-94079853D01*
X145087501Y-94100953D01*
X145087501Y-95080462D01*
X145029097Y-95022059D01*
X144999268Y-94985712D01*
X144854231Y-94866684D01*
X144688759Y-94778238D01*
X144509213Y-94723773D01*
X144369275Y-94709990D01*
X144322490Y-94705382D01*
X144275705Y-94709990D01*
X140884295Y-94709990D01*
X140837510Y-94705382D01*
X140790725Y-94709990D01*
X140650787Y-94723773D01*
X140471241Y-94778238D01*
X140305769Y-94866684D01*
X140160732Y-94985712D01*
X140130903Y-95022059D01*
X139091034Y-96061928D01*
X138200000Y-96061928D01*
X138075518Y-96074188D01*
X137955820Y-96110498D01*
X137845506Y-96169463D01*
X137748815Y-96248815D01*
X137669463Y-96345506D01*
X137610498Y-96455820D01*
X137574188Y-96575518D01*
X137561928Y-96700000D01*
X137561928Y-97694890D01*
X137435000Y-97567962D01*
X137435000Y-97338665D01*
X137379853Y-97061426D01*
X137271680Y-96800273D01*
X137114637Y-96565241D01*
X136914759Y-96365363D01*
X136679727Y-96208320D01*
X136418574Y-96100147D01*
X136141335Y-96045000D01*
X135858665Y-96045000D01*
X135581426Y-96100147D01*
X135320273Y-96208320D01*
X135085241Y-96365363D01*
X134885363Y-96565241D01*
X134728320Y-96800273D01*
X134620147Y-97061426D01*
X134565000Y-97338665D01*
X134565000Y-97621335D01*
X134620147Y-97898574D01*
X134728320Y-98159727D01*
X134885363Y-98394759D01*
X135085241Y-98594637D01*
X135320273Y-98751680D01*
X135581426Y-98859853D01*
X135858665Y-98915000D01*
X136087962Y-98915000D01*
X136910903Y-99737941D01*
X136940732Y-99774288D01*
X137085769Y-99893316D01*
X137251241Y-99981762D01*
X137430787Y-100036227D01*
X137570725Y-100050010D01*
X137617510Y-100054618D01*
X137664295Y-100050010D01*
X144822972Y-100050010D01*
X148037850Y-103264888D01*
X148028192Y-103267818D01*
X147778899Y-103401068D01*
X147560392Y-103580393D01*
X147381068Y-103798900D01*
X147310000Y-103931858D01*
X147238932Y-103798899D01*
X147059607Y-103580392D01*
X146841100Y-103401068D01*
X146591807Y-103267818D01*
X146321308Y-103185764D01*
X146040000Y-103158057D01*
X145945869Y-103167328D01*
X145420608Y-102642068D01*
X145390779Y-102605721D01*
X145245742Y-102486693D01*
X145080270Y-102398247D01*
X144900724Y-102343782D01*
X144760786Y-102329999D01*
X144714001Y-102325391D01*
X144667216Y-102329999D01*
X140884286Y-102329999D01*
X140837501Y-102325391D01*
X140790716Y-102329999D01*
X140650778Y-102343782D01*
X140471232Y-102398247D01*
X140305760Y-102486693D01*
X140160723Y-102605721D01*
X140130898Y-102642063D01*
X139087962Y-103685000D01*
X138858665Y-103685000D01*
X138581426Y-103740147D01*
X138320273Y-103848320D01*
X138085241Y-104005363D01*
X137923104Y-104167500D01*
X137423380Y-104167500D01*
X137389502Y-104055820D01*
X137330537Y-103945506D01*
X137251185Y-103848815D01*
X137154494Y-103769463D01*
X137044180Y-103710498D01*
X136924482Y-103674188D01*
X136800000Y-103661928D01*
X135200000Y-103661928D01*
X135075518Y-103674188D01*
X134955820Y-103710498D01*
X134845506Y-103769463D01*
X134748815Y-103848815D01*
X134669463Y-103945506D01*
X134610498Y-104055820D01*
X134582687Y-104147500D01*
X133776896Y-104147500D01*
X133714759Y-104085363D01*
X133479727Y-103928320D01*
X133218574Y-103820147D01*
X132941335Y-103765000D01*
X132658665Y-103765000D01*
X132381426Y-103820147D01*
X132120273Y-103928320D01*
X131885241Y-104085363D01*
X131685363Y-104285241D01*
X131528320Y-104520273D01*
X131420147Y-104781426D01*
X131365000Y-105058665D01*
X129060375Y-105058665D01*
X129055949Y-105013731D01*
X129051227Y-104965787D01*
X128996762Y-104786241D01*
X128908316Y-104620769D01*
X128789288Y-104475732D01*
X128752941Y-104445903D01*
X128192827Y-103885789D01*
X128208224Y-103835032D01*
X128237282Y-103540000D01*
X128208224Y-103244968D01*
X128122166Y-102961275D01*
X127982417Y-102699821D01*
X127794345Y-102470655D01*
X127728886Y-102416934D01*
X127838387Y-102358405D01*
X127972962Y-102247962D01*
X128083405Y-102113387D01*
X128165472Y-101959851D01*
X128216008Y-101793255D01*
X128233072Y-101620001D01*
X128233072Y-100379999D01*
X128216008Y-100206745D01*
X128165472Y-100040149D01*
X128083405Y-99886613D01*
X127972962Y-99752038D01*
X127838387Y-99641595D01*
X127684851Y-99559528D01*
X127518255Y-99508992D01*
X127345001Y-99491928D01*
X126338966Y-99491928D01*
X125839990Y-98992952D01*
X125839990Y-95389040D01*
X131408091Y-95389040D01*
X131502930Y-95653881D01*
X131647615Y-95895131D01*
X131836586Y-96103519D01*
X132062580Y-96271037D01*
X132316913Y-96391246D01*
X132450961Y-96431904D01*
X132673000Y-96309915D01*
X132673000Y-95167000D01*
X132927000Y-95167000D01*
X132927000Y-96309915D01*
X133149039Y-96431904D01*
X133283087Y-96391246D01*
X133537420Y-96271037D01*
X133763414Y-96103519D01*
X133952385Y-95895131D01*
X134097070Y-95653881D01*
X134191909Y-95389040D01*
X134070624Y-95167000D01*
X132927000Y-95167000D01*
X132673000Y-95167000D01*
X131529376Y-95167000D01*
X131408091Y-95389040D01*
X125839990Y-95389040D01*
X125839990Y-94690960D01*
X131408091Y-94690960D01*
X131529376Y-94913000D01*
X132673000Y-94913000D01*
X132673000Y-93770085D01*
X132927000Y-93770085D01*
X132927000Y-94913000D01*
X134070624Y-94913000D01*
X134191909Y-94690960D01*
X134097070Y-94426119D01*
X133952385Y-94184869D01*
X133763414Y-93976481D01*
X133537420Y-93808963D01*
X133291441Y-93692702D01*
X142086903Y-93692702D01*
X142158486Y-93936671D01*
X142413996Y-94057571D01*
X142688184Y-94126300D01*
X142970512Y-94140217D01*
X143250130Y-94098787D01*
X143516292Y-94003603D01*
X143641514Y-93936671D01*
X143713097Y-93692702D01*
X142900000Y-92879605D01*
X142086903Y-93692702D01*
X133291441Y-93692702D01*
X133283087Y-93688754D01*
X133149039Y-93648096D01*
X132927000Y-93770085D01*
X132673000Y-93770085D01*
X132450961Y-93648096D01*
X132316913Y-93688754D01*
X132062580Y-93808963D01*
X131836586Y-93976481D01*
X131647615Y-94184869D01*
X131502930Y-94426119D01*
X131408091Y-94690960D01*
X125839990Y-94690960D01*
X125839990Y-94580762D01*
X125979968Y-94623224D01*
X126201064Y-94645000D01*
X126798936Y-94645000D01*
X127020032Y-94623224D01*
X127303725Y-94537166D01*
X127565179Y-94397417D01*
X127794345Y-94209345D01*
X127982417Y-93980179D01*
X128122166Y-93718725D01*
X128208224Y-93435032D01*
X128237282Y-93140000D01*
X128208224Y-92844968D01*
X128185638Y-92770512D01*
X141459783Y-92770512D01*
X141501213Y-93050130D01*
X141596397Y-93316292D01*
X141663329Y-93441514D01*
X141907298Y-93513097D01*
X142720395Y-92700000D01*
X141907298Y-91886903D01*
X141663329Y-91958486D01*
X141542429Y-92213996D01*
X141473700Y-92488184D01*
X141459783Y-92770512D01*
X128185638Y-92770512D01*
X128122166Y-92561275D01*
X127982417Y-92299821D01*
X127794345Y-92070655D01*
X127728886Y-92016934D01*
X127838387Y-91958405D01*
X127972962Y-91847962D01*
X128083405Y-91713387D01*
X128165472Y-91559851D01*
X128216008Y-91393255D01*
X128233072Y-91220001D01*
X128233072Y-90718665D01*
X132665000Y-90718665D01*
X132665000Y-91001335D01*
X132720147Y-91278574D01*
X132828320Y-91539727D01*
X132985363Y-91774759D01*
X133185241Y-91974637D01*
X133420273Y-92131680D01*
X133681426Y-92239853D01*
X133958665Y-92295000D01*
X134241335Y-92295000D01*
X134518574Y-92239853D01*
X134779727Y-92131680D01*
X135014759Y-91974637D01*
X135214637Y-91774759D01*
X135259712Y-91707298D01*
X142086903Y-91707298D01*
X142900000Y-92520395D01*
X143713097Y-91707298D01*
X143641514Y-91463329D01*
X143386004Y-91342429D01*
X143111816Y-91273700D01*
X142829488Y-91259783D01*
X142549870Y-91301213D01*
X142283708Y-91396397D01*
X142158486Y-91463329D01*
X142086903Y-91707298D01*
X135259712Y-91707298D01*
X135371680Y-91539727D01*
X135479853Y-91278574D01*
X135535000Y-91001335D01*
X135535000Y-90718665D01*
X135479853Y-90441426D01*
X135371680Y-90180273D01*
X135214637Y-89945241D01*
X135014759Y-89745363D01*
X134779727Y-89588320D01*
X134518574Y-89480147D01*
X134241335Y-89425000D01*
X133958665Y-89425000D01*
X133681426Y-89480147D01*
X133420273Y-89588320D01*
X133185241Y-89745363D01*
X132985363Y-89945241D01*
X132828320Y-90180273D01*
X132720147Y-90441426D01*
X132665000Y-90718665D01*
X128233072Y-90718665D01*
X128233072Y-89979999D01*
X128216008Y-89806745D01*
X128165472Y-89640149D01*
X128083405Y-89486613D01*
X127972962Y-89352038D01*
X127838387Y-89241595D01*
X127684851Y-89159528D01*
X127518255Y-89108992D01*
X127345001Y-89091928D01*
X125839990Y-89091928D01*
X125839990Y-85520762D01*
X125979968Y-85563224D01*
X126201064Y-85585000D01*
X126798936Y-85585000D01*
X127020032Y-85563224D01*
X127303725Y-85477166D01*
X127565179Y-85337417D01*
X127794345Y-85149345D01*
X127982417Y-84920179D01*
X128122166Y-84658725D01*
X128208224Y-84375032D01*
X128237282Y-84080000D01*
X128208224Y-83784968D01*
X128122166Y-83501275D01*
X127982417Y-83239821D01*
X127794345Y-83010655D01*
X127565179Y-82822583D01*
X127541638Y-82810000D01*
X127565179Y-82797417D01*
X127794345Y-82609345D01*
X127982417Y-82380179D01*
X128122166Y-82118725D01*
X128208224Y-81835032D01*
X128237282Y-81540000D01*
X128208224Y-81244968D01*
X128122166Y-80961275D01*
X127982417Y-80699821D01*
X127795953Y-80472615D01*
X127839180Y-80459502D01*
X127949494Y-80400537D01*
X128046185Y-80321185D01*
X128125537Y-80224494D01*
X128184502Y-80114180D01*
X128220812Y-79994482D01*
X128233072Y-79870000D01*
X128230000Y-79285750D01*
X128071250Y-79127000D01*
X126627000Y-79127000D01*
X126627000Y-79147000D01*
X126373000Y-79147000D01*
X126373000Y-79127000D01*
X124928750Y-79127000D01*
X124770000Y-79285750D01*
X124766928Y-79870000D01*
X124779188Y-79994482D01*
X124815498Y-80114180D01*
X124874463Y-80224494D01*
X124953815Y-80321185D01*
X125050506Y-80400537D01*
X125160820Y-80459502D01*
X125204047Y-80472615D01*
X125017583Y-80699821D01*
X124877834Y-80961275D01*
X124791776Y-81244968D01*
X124762718Y-81540000D01*
X124791776Y-81835032D01*
X124807173Y-81885789D01*
X124247055Y-82445907D01*
X124210713Y-82475732D01*
X124180889Y-82512073D01*
X124091684Y-82620770D01*
X124003239Y-82786241D01*
X123948773Y-82965788D01*
X123930382Y-83152510D01*
X123934991Y-83199305D01*
X123934990Y-99340705D01*
X123930382Y-99387490D01*
X123934990Y-99434274D01*
X123948773Y-99574212D01*
X124003238Y-99753758D01*
X124091684Y-99919231D01*
X124210712Y-100064268D01*
X124247059Y-100094097D01*
X124766928Y-100613966D01*
X124766928Y-101620001D01*
X124783992Y-101793255D01*
X124834528Y-101959851D01*
X124916595Y-102113387D01*
X125027038Y-102247962D01*
X125161613Y-102358405D01*
X125271114Y-102416934D01*
X125205655Y-102470655D01*
X125017583Y-102699821D01*
X124877834Y-102961275D01*
X124791776Y-103244968D01*
X124762718Y-103540000D01*
X124791776Y-103835032D01*
X124877834Y-104118725D01*
X125017583Y-104380179D01*
X125205655Y-104609345D01*
X125434821Y-104797417D01*
X125458362Y-104810000D01*
X125434821Y-104822583D01*
X125205655Y-105010655D01*
X125017583Y-105239821D01*
X124877834Y-105501275D01*
X124791776Y-105784968D01*
X124762718Y-106080000D01*
X124791776Y-106375032D01*
X124877834Y-106658725D01*
X125017583Y-106920179D01*
X125205655Y-107149345D01*
X125295707Y-107223249D01*
X125323223Y-107256777D01*
X125468260Y-107375806D01*
X125547501Y-107418161D01*
X125547500Y-109520416D01*
X125519853Y-109381426D01*
X125411680Y-109120273D01*
X125254637Y-108885241D01*
X125054759Y-108685363D01*
X124819727Y-108528320D01*
X124558574Y-108420147D01*
X124281335Y-108365000D01*
X123998665Y-108365000D01*
X123721426Y-108420147D01*
X123460273Y-108528320D01*
X123225241Y-108685363D01*
X123025363Y-108885241D01*
X122868320Y-109120273D01*
X122760147Y-109381426D01*
X122705000Y-109658665D01*
X122705000Y-109941335D01*
X122760147Y-110218574D01*
X122868320Y-110479727D01*
X123025363Y-110714759D01*
X123225241Y-110914637D01*
X123460273Y-111071680D01*
X123721426Y-111179853D01*
X123998665Y-111235000D01*
X124281335Y-111235000D01*
X124558574Y-111179853D01*
X124583387Y-111169575D01*
X124187962Y-111565000D01*
X123958665Y-111565000D01*
X123681426Y-111620147D01*
X123420273Y-111728320D01*
X123185241Y-111885363D01*
X122985363Y-112085241D01*
X122828320Y-112320273D01*
X122720147Y-112581426D01*
X122665000Y-112858665D01*
X122160000Y-112858665D01*
X122160000Y-78130000D01*
X124766928Y-78130000D01*
X124770000Y-78714250D01*
X124928750Y-78873000D01*
X126373000Y-78873000D01*
X126373000Y-77653750D01*
X126627000Y-77653750D01*
X126627000Y-78873000D01*
X128071250Y-78873000D01*
X128230000Y-78714250D01*
X128233072Y-78130000D01*
X128220812Y-78005518D01*
X128184502Y-77885820D01*
X128125537Y-77775506D01*
X128046185Y-77678815D01*
X127949494Y-77599463D01*
X127839180Y-77540498D01*
X127719482Y-77504188D01*
X127595000Y-77491928D01*
X126785750Y-77495000D01*
X126627000Y-77653750D01*
X126373000Y-77653750D01*
X126214250Y-77495000D01*
X125405000Y-77491928D01*
X125280518Y-77504188D01*
X125160820Y-77540498D01*
X125050506Y-77599463D01*
X124953815Y-77678815D01*
X124874463Y-77775506D01*
X124815498Y-77885820D01*
X124779188Y-78005518D01*
X124766928Y-78130000D01*
X122160000Y-78130000D01*
X122160000Y-73440000D01*
X124762718Y-73440000D01*
X124791776Y-73735032D01*
X124877834Y-74018725D01*
X125017583Y-74280179D01*
X125205655Y-74509345D01*
X125434821Y-74697417D01*
X125696275Y-74837166D01*
X125979968Y-74923224D01*
X126201064Y-74945000D01*
X126798936Y-74945000D01*
X126980117Y-74927155D01*
X132665000Y-80612038D01*
X132665000Y-80841335D01*
X132720147Y-81118574D01*
X132828320Y-81379727D01*
X132985363Y-81614759D01*
X133185241Y-81814637D01*
X133420273Y-81971680D01*
X133681426Y-82079853D01*
X133958665Y-82135000D01*
X134241335Y-82135000D01*
X134518574Y-82079853D01*
X134779727Y-81971680D01*
X135014759Y-81814637D01*
X135214637Y-81614759D01*
X135371680Y-81379727D01*
X135479853Y-81118574D01*
X135535000Y-80841335D01*
X135535000Y-80558665D01*
X135479853Y-80281426D01*
X135371680Y-80020273D01*
X135214637Y-79785241D01*
X135014759Y-79585363D01*
X134779727Y-79428320D01*
X134518574Y-79320147D01*
X134241335Y-79265000D01*
X134012038Y-79265000D01*
X130147038Y-75400000D01*
X134161928Y-75400000D01*
X134161928Y-77000000D01*
X134174188Y-77124482D01*
X134210498Y-77244180D01*
X134269463Y-77354494D01*
X134348815Y-77451185D01*
X134445506Y-77530537D01*
X134555820Y-77589502D01*
X134675518Y-77625812D01*
X134800000Y-77638072D01*
X136400000Y-77638072D01*
X136524482Y-77625812D01*
X136644180Y-77589502D01*
X136754494Y-77530537D01*
X136851185Y-77451185D01*
X136930537Y-77354494D01*
X136989502Y-77244180D01*
X137025812Y-77124482D01*
X137038072Y-77000000D01*
X137038072Y-75400000D01*
X137025812Y-75275518D01*
X136989502Y-75155820D01*
X136930537Y-75045506D01*
X136851185Y-74948815D01*
X136754494Y-74869463D01*
X136644180Y-74810498D01*
X136524482Y-74774188D01*
X136400000Y-74761928D01*
X136392785Y-74761928D01*
X136413097Y-74692702D01*
X135600000Y-73879605D01*
X134786903Y-74692702D01*
X134807215Y-74761928D01*
X134800000Y-74761928D01*
X134675518Y-74774188D01*
X134555820Y-74810498D01*
X134445506Y-74869463D01*
X134348815Y-74948815D01*
X134269463Y-75045506D01*
X134210498Y-75155820D01*
X134174188Y-75275518D01*
X134161928Y-75400000D01*
X130147038Y-75400000D01*
X128517550Y-73770512D01*
X134159783Y-73770512D01*
X134201213Y-74050130D01*
X134296397Y-74316292D01*
X134363329Y-74441514D01*
X134607298Y-74513097D01*
X135420395Y-73700000D01*
X135779605Y-73700000D01*
X136592702Y-74513097D01*
X136836671Y-74441514D01*
X136957571Y-74186004D01*
X137026300Y-73911816D01*
X137040217Y-73629488D01*
X136998787Y-73349870D01*
X136903603Y-73083708D01*
X136836671Y-72958486D01*
X136592702Y-72886903D01*
X135779605Y-73700000D01*
X135420395Y-73700000D01*
X134607298Y-72886903D01*
X134363329Y-72958486D01*
X134242429Y-73213996D01*
X134173700Y-73488184D01*
X134159783Y-73770512D01*
X128517550Y-73770512D01*
X128232777Y-73485739D01*
X128237282Y-73440000D01*
X128208224Y-73144968D01*
X128122166Y-72861275D01*
X128039865Y-72707298D01*
X134786903Y-72707298D01*
X135600000Y-73520395D01*
X136413097Y-72707298D01*
X136341514Y-72463329D01*
X136086004Y-72342429D01*
X135811816Y-72273700D01*
X135529488Y-72259783D01*
X135249870Y-72301213D01*
X134983708Y-72396397D01*
X134858486Y-72463329D01*
X134786903Y-72707298D01*
X128039865Y-72707298D01*
X127982417Y-72599821D01*
X127795953Y-72372615D01*
X127839180Y-72359502D01*
X127949494Y-72300537D01*
X128046185Y-72221185D01*
X128125537Y-72124494D01*
X128184502Y-72014180D01*
X128220812Y-71894482D01*
X128233072Y-71770000D01*
X128230000Y-71185750D01*
X128071250Y-71027000D01*
X126627000Y-71027000D01*
X126627000Y-71047000D01*
X126373000Y-71047000D01*
X126373000Y-71027000D01*
X124928750Y-71027000D01*
X124770000Y-71185750D01*
X124766928Y-71770000D01*
X124779188Y-71894482D01*
X124815498Y-72014180D01*
X124874463Y-72124494D01*
X124953815Y-72221185D01*
X125050506Y-72300537D01*
X125160820Y-72359502D01*
X125204047Y-72372615D01*
X125017583Y-72599821D01*
X124877834Y-72861275D01*
X124791776Y-73144968D01*
X124762718Y-73440000D01*
X122160000Y-73440000D01*
X122160000Y-70030000D01*
X124766928Y-70030000D01*
X124770000Y-70614250D01*
X124928750Y-70773000D01*
X126373000Y-70773000D01*
X126373000Y-69553750D01*
X126627000Y-69553750D01*
X126627000Y-70773000D01*
X128071250Y-70773000D01*
X128230000Y-70614250D01*
X128233072Y-70030000D01*
X128220812Y-69905518D01*
X128184502Y-69785820D01*
X128125537Y-69675506D01*
X128046185Y-69578815D01*
X127949494Y-69499463D01*
X127839180Y-69440498D01*
X127719482Y-69404188D01*
X127595000Y-69391928D01*
X126785750Y-69395000D01*
X126627000Y-69553750D01*
X126373000Y-69553750D01*
X126214250Y-69395000D01*
X125405000Y-69391928D01*
X125280518Y-69404188D01*
X125160820Y-69440498D01*
X125050506Y-69499463D01*
X124953815Y-69578815D01*
X124874463Y-69675506D01*
X124815498Y-69785820D01*
X124779188Y-69905518D01*
X124766928Y-70030000D01*
X122160000Y-70030000D01*
X122160000Y-67000000D01*
X133161928Y-67000000D01*
X133174188Y-67124482D01*
X133210498Y-67244180D01*
X133269463Y-67354494D01*
X133348815Y-67451185D01*
X133445506Y-67530537D01*
X133555820Y-67589502D01*
X133675518Y-67625812D01*
X133800000Y-67638072D01*
X134314250Y-67635000D01*
X134473000Y-67476250D01*
X134473000Y-66327000D01*
X133323750Y-66327000D01*
X133165000Y-66485750D01*
X133161928Y-67000000D01*
X122160000Y-67000000D01*
X122160000Y-65400000D01*
X133161928Y-65400000D01*
X133165000Y-65914250D01*
X133323750Y-66073000D01*
X134473000Y-66073000D01*
X134473000Y-64923750D01*
X134314250Y-64765000D01*
X133800000Y-64761928D01*
X133675518Y-64774188D01*
X133555820Y-64810498D01*
X133445506Y-64869463D01*
X133348815Y-64948815D01*
X133269463Y-65045506D01*
X133210498Y-65155820D01*
X133174188Y-65275518D01*
X133161928Y-65400000D01*
X122160000Y-65400000D01*
X122160000Y-60858665D01*
X134065000Y-60858665D01*
X134065000Y-61141335D01*
X134120147Y-61418574D01*
X134228320Y-61679727D01*
X134385363Y-61914759D01*
X134585241Y-62114637D01*
X134820273Y-62271680D01*
X135081426Y-62379853D01*
X135358665Y-62435000D01*
X135587962Y-62435000D01*
X139693393Y-66540431D01*
X139723222Y-66576778D01*
X139868259Y-66695806D01*
X140033731Y-66784252D01*
X140213277Y-66838717D01*
X140399999Y-66857108D01*
X140446784Y-66852500D01*
X143923104Y-66852500D01*
X144047500Y-66976896D01*
X144047501Y-69438145D01*
X144020392Y-69460393D01*
X143841068Y-69678900D01*
X143770000Y-69811858D01*
X143698932Y-69678899D01*
X143519607Y-69460392D01*
X143301100Y-69281068D01*
X143051807Y-69147818D01*
X142781308Y-69065764D01*
X142500000Y-69038057D01*
X142218691Y-69065764D01*
X141948192Y-69147818D01*
X141698899Y-69281068D01*
X141480392Y-69460393D01*
X141301068Y-69678900D01*
X141167818Y-69928193D01*
X141085764Y-70198692D01*
X141069331Y-70365533D01*
X138052500Y-67348702D01*
X138052500Y-67276896D01*
X138214637Y-67114759D01*
X138371680Y-66879727D01*
X138479853Y-66618574D01*
X138535000Y-66341335D01*
X138535000Y-66058665D01*
X138479853Y-65781426D01*
X138371680Y-65520273D01*
X138214637Y-65285241D01*
X138014759Y-65085363D01*
X137779727Y-64928320D01*
X137518574Y-64820147D01*
X137241335Y-64765000D01*
X136958665Y-64765000D01*
X136681426Y-64820147D01*
X136420273Y-64928320D01*
X136185241Y-65085363D01*
X136018661Y-65251943D01*
X135989502Y-65155820D01*
X135930537Y-65045506D01*
X135851185Y-64948815D01*
X135754494Y-64869463D01*
X135644180Y-64810498D01*
X135524482Y-64774188D01*
X135400000Y-64761928D01*
X134885750Y-64765000D01*
X134727000Y-64923750D01*
X134727000Y-66073000D01*
X134747000Y-66073000D01*
X134747000Y-66327000D01*
X134727000Y-66327000D01*
X134727000Y-67476250D01*
X134885750Y-67635000D01*
X135400000Y-67638072D01*
X135524482Y-67625812D01*
X135644180Y-67589502D01*
X135754494Y-67530537D01*
X135851185Y-67451185D01*
X135930537Y-67354494D01*
X135989502Y-67244180D01*
X136018661Y-67148057D01*
X136147500Y-67276896D01*
X136147500Y-67696455D01*
X136142892Y-67743240D01*
X136147500Y-67790024D01*
X136161283Y-67929962D01*
X136215748Y-68109508D01*
X136304194Y-68274981D01*
X136423222Y-68420018D01*
X136459569Y-68449847D01*
X141717756Y-73708035D01*
X141747581Y-73744377D01*
X141892618Y-73863405D01*
X141975354Y-73907628D01*
X142058089Y-73951851D01*
X142123655Y-73971740D01*
X142237636Y-74006316D01*
X142377574Y-74020099D01*
X142424359Y-74024707D01*
X142471144Y-74020099D01*
X144293061Y-74020099D01*
X147043272Y-76770311D01*
X146888354Y-76836285D01*
X146655105Y-76995500D01*
X146457399Y-77197161D01*
X146307265Y-77426741D01*
X146238932Y-77298899D01*
X146059607Y-77080392D01*
X145841100Y-76901068D01*
X145591807Y-76767818D01*
X145321308Y-76685764D01*
X145040000Y-76658057D01*
X144758691Y-76685764D01*
X144488192Y-76767818D01*
X144238899Y-76901068D01*
X144020392Y-77080393D01*
X143927581Y-77193483D01*
X143925812Y-77175518D01*
X143889502Y-77055820D01*
X143830537Y-76945506D01*
X143751185Y-76848815D01*
X143654494Y-76769463D01*
X143544180Y-76710498D01*
X143424482Y-76674188D01*
X143300000Y-76661928D01*
X141700000Y-76661928D01*
X141575518Y-76674188D01*
X141455820Y-76710498D01*
X141345506Y-76769463D01*
X141248815Y-76848815D01*
X141169463Y-76945506D01*
X141110498Y-77055820D01*
X141074188Y-77175518D01*
X141061928Y-77300000D01*
X141061928Y-79700000D01*
X141074188Y-79824482D01*
X141110498Y-79944180D01*
X141169463Y-80054494D01*
X141248815Y-80151185D01*
X141345506Y-80230537D01*
X141455820Y-80289502D01*
X141575518Y-80325812D01*
X141700000Y-80338072D01*
X143300000Y-80338072D01*
X143424482Y-80325812D01*
X143544180Y-80289502D01*
X143654494Y-80230537D01*
X143751185Y-80151185D01*
X143830537Y-80054494D01*
X143889502Y-79944180D01*
X143925812Y-79824482D01*
X143927581Y-79806517D01*
X144020393Y-79919608D01*
X144238900Y-80098932D01*
X144488193Y-80232182D01*
X144758692Y-80314236D01*
X145040000Y-80341943D01*
X145321309Y-80314236D01*
X145463934Y-80270972D01*
X147306328Y-82113367D01*
X147220147Y-82321426D01*
X147165000Y-82598665D01*
X147165000Y-82881335D01*
X147220147Y-83158574D01*
X147328320Y-83419727D01*
X147485363Y-83654759D01*
X147685241Y-83854637D01*
X147920273Y-84011680D01*
X148181426Y-84119853D01*
X148458665Y-84175000D01*
X148741335Y-84175000D01*
X149018574Y-84119853D01*
X149279727Y-84011680D01*
X149514759Y-83854637D01*
X149676896Y-83692500D01*
X151045462Y-83692500D01*
X153965000Y-86612039D01*
X153965000Y-86841335D01*
X154020147Y-87118574D01*
X154128320Y-87379727D01*
X154285363Y-87614759D01*
X154485241Y-87814637D01*
X154687827Y-87950000D01*
X154485241Y-88085363D01*
X154285363Y-88285241D01*
X154128320Y-88520273D01*
X154020147Y-88781426D01*
X153965000Y-89058665D01*
X153965000Y-89341335D01*
X154020147Y-89618574D01*
X154128320Y-89879727D01*
X154285363Y-90114759D01*
X154485241Y-90314637D01*
X154720273Y-90471680D01*
X154981426Y-90579853D01*
X155258665Y-90635000D01*
X155541335Y-90635000D01*
X155818574Y-90579853D01*
X156079727Y-90471680D01*
X156314759Y-90314637D01*
X156514637Y-90114759D01*
X156671680Y-89879727D01*
X156779853Y-89618574D01*
X156835000Y-89341335D01*
X156835000Y-89112039D01*
X157357937Y-88589102D01*
X157394279Y-88559277D01*
X157513307Y-88414240D01*
X157582258Y-88285241D01*
X157601753Y-88248769D01*
X157636264Y-88135000D01*
X157656218Y-88069222D01*
X157670001Y-87929284D01*
X157670001Y-87929283D01*
X157674609Y-87882499D01*
X157670001Y-87835714D01*
X157670001Y-76514383D01*
X157674609Y-76467598D01*
X157656218Y-76280876D01*
X157628100Y-76188184D01*
X157601753Y-76101330D01*
X157513307Y-75935858D01*
X157394279Y-75790821D01*
X157357932Y-75760992D01*
X153554019Y-71957079D01*
X153524190Y-71920732D01*
X153379153Y-71801704D01*
X153213681Y-71713258D01*
X153034135Y-71658793D01*
X152894197Y-71645010D01*
X152847412Y-71640402D01*
X152800627Y-71645010D01*
X151508846Y-71645010D01*
X151534236Y-71561309D01*
X151555000Y-71350491D01*
X151555000Y-70409508D01*
X151534236Y-70198691D01*
X151452182Y-69928192D01*
X151318932Y-69678899D01*
X151139607Y-69460392D01*
X150921100Y-69281068D01*
X150671807Y-69147818D01*
X150401308Y-69065764D01*
X150120000Y-69038057D01*
X149838691Y-69065764D01*
X149568192Y-69147818D01*
X149318899Y-69281068D01*
X149100392Y-69460393D01*
X148921068Y-69678900D01*
X148850000Y-69811858D01*
X148778932Y-69678899D01*
X148599607Y-69460392D01*
X148381100Y-69281068D01*
X148131807Y-69147818D01*
X147861308Y-69065764D01*
X147580000Y-69038057D01*
X147298691Y-69065764D01*
X147028192Y-69147818D01*
X146778899Y-69281068D01*
X146560392Y-69460393D01*
X146381068Y-69678900D01*
X146310000Y-69811858D01*
X146238932Y-69678899D01*
X146059607Y-69460392D01*
X145952500Y-69372492D01*
X145952500Y-66976896D01*
X146036694Y-66892702D01*
X146686903Y-66892702D01*
X146758486Y-67136671D01*
X147013996Y-67257571D01*
X147288184Y-67326300D01*
X147570512Y-67340217D01*
X147850130Y-67298787D01*
X148116292Y-67203603D01*
X148241514Y-67136671D01*
X148313097Y-66892702D01*
X147500000Y-66079605D01*
X146686903Y-66892702D01*
X146036694Y-66892702D01*
X146114637Y-66814759D01*
X146248692Y-66614131D01*
X146263329Y-66641514D01*
X146507298Y-66713097D01*
X147320395Y-65900000D01*
X147306253Y-65885858D01*
X147485858Y-65706253D01*
X147500000Y-65720395D01*
X147514143Y-65706253D01*
X147693748Y-65885858D01*
X147679605Y-65900000D01*
X148492702Y-66713097D01*
X148736671Y-66641514D01*
X148857571Y-66386004D01*
X148926300Y-66111816D01*
X148940217Y-65829488D01*
X148898787Y-65549870D01*
X148893469Y-65534999D01*
X151487961Y-65534999D01*
X151861928Y-65908966D01*
X151861928Y-66800000D01*
X151874188Y-66924482D01*
X151910498Y-67044180D01*
X151969463Y-67154494D01*
X152048815Y-67251185D01*
X152145506Y-67330537D01*
X152255820Y-67389502D01*
X152375518Y-67425812D01*
X152500000Y-67438072D01*
X154100000Y-67438072D01*
X154224482Y-67425812D01*
X154344180Y-67389502D01*
X154454494Y-67330537D01*
X154551185Y-67251185D01*
X154630537Y-67154494D01*
X154689502Y-67044180D01*
X154705117Y-66992702D01*
X154986903Y-66992702D01*
X155058486Y-67236671D01*
X155313996Y-67357571D01*
X155588184Y-67426300D01*
X155870512Y-67440217D01*
X156150130Y-67398787D01*
X156416292Y-67303603D01*
X156541514Y-67236671D01*
X156613097Y-66992702D01*
X155800000Y-66179605D01*
X154986903Y-66992702D01*
X154705117Y-66992702D01*
X154725812Y-66924482D01*
X154738072Y-66800000D01*
X154738072Y-66792785D01*
X154807298Y-66813097D01*
X155620395Y-66000000D01*
X154807298Y-65186903D01*
X154738072Y-65207215D01*
X154738072Y-65200000D01*
X154725812Y-65075518D01*
X154689502Y-64955820D01*
X154630537Y-64845506D01*
X154551185Y-64748815D01*
X154454494Y-64669463D01*
X154344180Y-64610498D01*
X154224482Y-64574188D01*
X154100000Y-64561928D01*
X153208966Y-64561928D01*
X153099538Y-64452500D01*
X154855364Y-64452500D01*
X155128676Y-64725812D01*
X155058486Y-64763329D01*
X154986903Y-65007298D01*
X155800000Y-65820395D01*
X155814143Y-65806253D01*
X155993748Y-65985858D01*
X155979605Y-66000000D01*
X156792702Y-66813097D01*
X157036671Y-66741514D01*
X157071266Y-66668402D01*
X159680000Y-69277136D01*
X159679999Y-80245714D01*
X159675391Y-80292499D01*
X159679999Y-80339283D01*
X159693782Y-80479221D01*
X159748247Y-80658767D01*
X159836693Y-80824240D01*
X159955721Y-80969277D01*
X159992068Y-80999106D01*
X160515000Y-81522038D01*
X160515000Y-81806260D01*
X160572068Y-82093158D01*
X160684010Y-82363411D01*
X160846525Y-82606632D01*
X161053368Y-82813475D01*
X161296589Y-82975990D01*
X161566842Y-83087932D01*
X161853740Y-83145000D01*
X162146260Y-83145000D01*
X162433158Y-83087932D01*
X162703411Y-82975990D01*
X162946632Y-82813475D01*
X163147607Y-82612500D01*
X163392393Y-82612500D01*
X163593368Y-82813475D01*
X163836589Y-82975990D01*
X164106842Y-83087932D01*
X164393740Y-83145000D01*
X164686260Y-83145000D01*
X164973158Y-83087932D01*
X165243411Y-82975990D01*
X165486632Y-82813475D01*
X165693475Y-82606632D01*
X165855990Y-82363411D01*
X165967932Y-82093158D01*
X166025000Y-81806260D01*
X166025000Y-81513740D01*
X165967932Y-81226842D01*
X165855990Y-80956589D01*
X165693475Y-80713368D01*
X165486632Y-80506525D01*
X165313271Y-80390689D01*
X165388792Y-80148397D01*
X164540000Y-79299605D01*
X163691208Y-80148397D01*
X163766729Y-80390689D01*
X163593368Y-80506525D01*
X163392393Y-80707500D01*
X163147607Y-80707500D01*
X162946632Y-80506525D01*
X162773271Y-80390689D01*
X162848792Y-80148397D01*
X162000000Y-79299605D01*
X161985858Y-79313748D01*
X161806253Y-79134143D01*
X161820395Y-79120000D01*
X162179605Y-79120000D01*
X163028397Y-79968792D01*
X163270000Y-79893486D01*
X163511603Y-79968792D01*
X164360395Y-79120000D01*
X164719605Y-79120000D01*
X165568397Y-79968792D01*
X165817472Y-79891157D01*
X165943371Y-79627117D01*
X166015339Y-79343589D01*
X166030611Y-79051469D01*
X165988599Y-78761981D01*
X165890919Y-78486253D01*
X165817472Y-78348843D01*
X165568397Y-78271208D01*
X164719605Y-79120000D01*
X164360395Y-79120000D01*
X163511603Y-78271208D01*
X163270000Y-78346514D01*
X163028397Y-78271208D01*
X162179605Y-79120000D01*
X161820395Y-79120000D01*
X161806253Y-79105858D01*
X161985858Y-78926253D01*
X162000000Y-78940395D01*
X162848792Y-78091603D01*
X162773486Y-77850000D01*
X162848792Y-77608397D01*
X163691208Y-77608397D01*
X163766514Y-77850000D01*
X163691208Y-78091603D01*
X164540000Y-78940395D01*
X165388792Y-78091603D01*
X165313486Y-77850000D01*
X165388792Y-77608397D01*
X164540000Y-76759605D01*
X163691208Y-77608397D01*
X162848792Y-77608397D01*
X162000000Y-76759605D01*
X161985858Y-76773748D01*
X161806253Y-76594143D01*
X161820395Y-76580000D01*
X162179605Y-76580000D01*
X163028397Y-77428792D01*
X163270000Y-77353486D01*
X163511603Y-77428792D01*
X164360395Y-76580000D01*
X164719605Y-76580000D01*
X165568397Y-77428792D01*
X165817472Y-77351157D01*
X165943371Y-77087117D01*
X166015339Y-76803589D01*
X166030611Y-76511469D01*
X165988599Y-76221981D01*
X165890919Y-75946253D01*
X165817472Y-75808843D01*
X165568397Y-75731208D01*
X164719605Y-76580000D01*
X164360395Y-76580000D01*
X163511603Y-75731208D01*
X163270000Y-75806514D01*
X163028397Y-75731208D01*
X162179605Y-76580000D01*
X161820395Y-76580000D01*
X161806253Y-76565858D01*
X161985858Y-76386253D01*
X162000000Y-76400395D01*
X162848792Y-75551603D01*
X162773486Y-75310000D01*
X162848792Y-75068397D01*
X163691208Y-75068397D01*
X163766514Y-75310000D01*
X163691208Y-75551603D01*
X164540000Y-76400395D01*
X165388792Y-75551603D01*
X165313486Y-75310000D01*
X165388792Y-75068397D01*
X164540000Y-74219605D01*
X163691208Y-75068397D01*
X162848792Y-75068397D01*
X162000000Y-74219605D01*
X161985858Y-74233748D01*
X161806253Y-74054143D01*
X161820395Y-74040000D01*
X162179605Y-74040000D01*
X163028397Y-74888792D01*
X163270000Y-74813486D01*
X163511603Y-74888792D01*
X164360395Y-74040000D01*
X164719605Y-74040000D01*
X165568397Y-74888792D01*
X165817472Y-74811157D01*
X165943371Y-74547117D01*
X166015339Y-74263589D01*
X166030611Y-73971469D01*
X165988599Y-73681981D01*
X165890919Y-73406253D01*
X165817472Y-73268843D01*
X165568397Y-73191208D01*
X164719605Y-74040000D01*
X164360395Y-74040000D01*
X163511603Y-73191208D01*
X163270000Y-73266514D01*
X163028397Y-73191208D01*
X162179605Y-74040000D01*
X161820395Y-74040000D01*
X161806253Y-74025858D01*
X161985858Y-73846253D01*
X162000000Y-73860395D01*
X162848792Y-73011603D01*
X162830707Y-72953580D01*
X162939850Y-72920472D01*
X163093386Y-72838405D01*
X163227962Y-72727962D01*
X163338405Y-72593386D01*
X163406285Y-72466392D01*
X163593368Y-72653475D01*
X163766729Y-72769311D01*
X163691208Y-73011603D01*
X164540000Y-73860395D01*
X165388792Y-73011603D01*
X165313271Y-72769311D01*
X165486632Y-72653475D01*
X165693475Y-72446632D01*
X165855990Y-72203411D01*
X165967932Y-71933158D01*
X166025000Y-71646260D01*
X166025000Y-71353740D01*
X165967932Y-71066842D01*
X165855990Y-70796589D01*
X165693475Y-70553368D01*
X165486632Y-70346525D01*
X165243411Y-70184010D01*
X164973158Y-70072068D01*
X164686260Y-70015000D01*
X164393740Y-70015000D01*
X164106842Y-70072068D01*
X163836589Y-70184010D01*
X163593368Y-70346525D01*
X163406285Y-70533608D01*
X163338405Y-70406614D01*
X163227962Y-70272038D01*
X163093386Y-70161595D01*
X162952500Y-70086290D01*
X162952500Y-63386785D01*
X162957108Y-63340000D01*
X162938717Y-63153278D01*
X162884252Y-62973730D01*
X162803804Y-62823223D01*
X162795806Y-62808259D01*
X162676778Y-62663222D01*
X162640436Y-62633397D01*
X161095000Y-61087962D01*
X161095000Y-60858665D01*
X161039853Y-60581426D01*
X160931680Y-60320273D01*
X160774637Y-60085241D01*
X160574759Y-59885363D01*
X160339727Y-59728320D01*
X160078574Y-59620147D01*
X159801335Y-59565000D01*
X159518665Y-59565000D01*
X159241426Y-59620147D01*
X158980273Y-59728320D01*
X158745241Y-59885363D01*
X158545363Y-60085241D01*
X158388320Y-60320273D01*
X158280147Y-60581426D01*
X158225000Y-60858665D01*
X158225000Y-61141335D01*
X158280147Y-61418574D01*
X158388320Y-61679727D01*
X158545363Y-61914759D01*
X158745241Y-62114637D01*
X158980273Y-62271680D01*
X159241426Y-62379853D01*
X159518665Y-62435000D01*
X159747962Y-62435000D01*
X161047501Y-63734540D01*
X161047500Y-67950560D01*
X155956509Y-62859569D01*
X155926680Y-62823222D01*
X155781643Y-62704194D01*
X155616171Y-62615748D01*
X155436625Y-62561283D01*
X155296687Y-62547500D01*
X155249902Y-62542892D01*
X155203117Y-62547500D01*
X148554539Y-62547500D01*
X147095000Y-61087962D01*
X147095000Y-60858665D01*
X148065000Y-60858665D01*
X148065000Y-61141335D01*
X148120147Y-61418574D01*
X148228320Y-61679727D01*
X148385363Y-61914759D01*
X148585241Y-62114637D01*
X148820273Y-62271680D01*
X149081426Y-62379853D01*
X149358665Y-62435000D01*
X149641335Y-62435000D01*
X149918574Y-62379853D01*
X150179727Y-62271680D01*
X150414759Y-62114637D01*
X150614637Y-61914759D01*
X150771680Y-61679727D01*
X150879853Y-61418574D01*
X150935000Y-61141335D01*
X150935000Y-60858665D01*
X150879853Y-60581426D01*
X150771680Y-60320273D01*
X150614637Y-60085241D01*
X150414759Y-59885363D01*
X150179727Y-59728320D01*
X149918574Y-59620147D01*
X149641335Y-59565000D01*
X149358665Y-59565000D01*
X149081426Y-59620147D01*
X148820273Y-59728320D01*
X148585241Y-59885363D01*
X148385363Y-60085241D01*
X148228320Y-60320273D01*
X148120147Y-60581426D01*
X148065000Y-60858665D01*
X147095000Y-60858665D01*
X147039853Y-60581426D01*
X146931680Y-60320273D01*
X146774637Y-60085241D01*
X146574759Y-59885363D01*
X146339727Y-59728320D01*
X146078574Y-59620147D01*
X145801335Y-59565000D01*
X145518665Y-59565000D01*
X145241426Y-59620147D01*
X144980273Y-59728320D01*
X144745241Y-59885363D01*
X144545363Y-60085241D01*
X144388320Y-60320273D01*
X144280147Y-60581426D01*
X144225000Y-60858665D01*
X144225000Y-61141335D01*
X144280147Y-61418574D01*
X144388320Y-61679727D01*
X144545363Y-61914759D01*
X144745241Y-62114637D01*
X144980273Y-62271680D01*
X145241426Y-62379853D01*
X145518665Y-62435000D01*
X145747962Y-62435000D01*
X146942960Y-63629999D01*
X146364286Y-63629999D01*
X146317501Y-63625391D01*
X146270716Y-63629999D01*
X146130778Y-63643782D01*
X146041005Y-63671014D01*
X145951231Y-63698247D01*
X145868496Y-63742470D01*
X145785760Y-63786693D01*
X145640723Y-63905721D01*
X145610898Y-63942063D01*
X145087961Y-64465000D01*
X144858665Y-64465000D01*
X144581426Y-64520147D01*
X144320273Y-64628320D01*
X144085241Y-64785363D01*
X143923104Y-64947500D01*
X140794538Y-64947500D01*
X136935000Y-61087962D01*
X136935000Y-60858665D01*
X136879853Y-60581426D01*
X136771680Y-60320273D01*
X136614637Y-60085241D01*
X136414759Y-59885363D01*
X136179727Y-59728320D01*
X135918574Y-59620147D01*
X135641335Y-59565000D01*
X135358665Y-59565000D01*
X135081426Y-59620147D01*
X134820273Y-59728320D01*
X134585241Y-59885363D01*
X134385363Y-60085241D01*
X134228320Y-60320273D01*
X134120147Y-60581426D01*
X134065000Y-60858665D01*
X122160000Y-60858665D01*
X122160000Y-59160000D01*
X168340001Y-59160000D01*
X168340000Y-125340000D01*
%TA.AperFunction,Conductor*%
D21*
G36*
X168340000Y-125340000D02*
G01*
X122160000Y-125340000D01*
X122160000Y-122095000D01*
X142291928Y-122095000D01*
X142304188Y-122219482D01*
X142340498Y-122339180D01*
X142399463Y-122449494D01*
X142478815Y-122546185D01*
X142575506Y-122625537D01*
X142685820Y-122684502D01*
X142805518Y-122720812D01*
X142930000Y-122733072D01*
X143514250Y-122730000D01*
X143673000Y-122571250D01*
X143673000Y-121127000D01*
X142453750Y-121127000D01*
X142295000Y-121285750D01*
X142291928Y-122095000D01*
X122160000Y-122095000D01*
X122160000Y-112858665D01*
X122665000Y-112858665D01*
X122665000Y-113141335D01*
X122720147Y-113418574D01*
X122828320Y-113679727D01*
X122985363Y-113914759D01*
X123185241Y-114114637D01*
X123420273Y-114271680D01*
X123681426Y-114379853D01*
X123958665Y-114435000D01*
X124241335Y-114435000D01*
X124518574Y-114379853D01*
X124611670Y-114341291D01*
X124187962Y-114765000D01*
X123958665Y-114765000D01*
X123681426Y-114820147D01*
X123420273Y-114928320D01*
X123185241Y-115085363D01*
X122985363Y-115285241D01*
X122828320Y-115520273D01*
X122720147Y-115781426D01*
X122665000Y-116058665D01*
X122665000Y-116341335D01*
X122720147Y-116618574D01*
X122828320Y-116879727D01*
X122985363Y-117114759D01*
X123147501Y-117276897D01*
X123147500Y-118323104D01*
X122985363Y-118485241D01*
X122828320Y-118720273D01*
X122720147Y-118981426D01*
X122665000Y-119258665D01*
X122665000Y-119541335D01*
X122720147Y-119818574D01*
X122828320Y-120079727D01*
X122985363Y-120314759D01*
X123185241Y-120514637D01*
X123420273Y-120671680D01*
X123681426Y-120779853D01*
X123958665Y-120835000D01*
X124241335Y-120835000D01*
X124518574Y-120779853D01*
X124779727Y-120671680D01*
X125014759Y-120514637D01*
X125214637Y-120314759D01*
X125371680Y-120079727D01*
X125479853Y-119818574D01*
X125535000Y-119541335D01*
X125535000Y-119258665D01*
X125479853Y-118981426D01*
X125371680Y-118720273D01*
X125214637Y-118485241D01*
X125052500Y-118323104D01*
X125052500Y-117276896D01*
X125214637Y-117114759D01*
X125371680Y-116879727D01*
X125479853Y-116618574D01*
X125535000Y-116341335D01*
X125535000Y-116112038D01*
X128297999Y-113349039D01*
X132868096Y-113349039D01*
X132908754Y-113483087D01*
X133028963Y-113737420D01*
X133196481Y-113963414D01*
X133404869Y-114152385D01*
X133646119Y-114297070D01*
X133910960Y-114391909D01*
X134133000Y-114270624D01*
X134133000Y-113127000D01*
X134387000Y-113127000D01*
X134387000Y-114270624D01*
X134609040Y-114391909D01*
X134873881Y-114297070D01*
X135115131Y-114152385D01*
X135323519Y-113963414D01*
X135491037Y-113737420D01*
X135611246Y-113483087D01*
X135651904Y-113349039D01*
X135529915Y-113127000D01*
X134387000Y-113127000D01*
X134133000Y-113127000D01*
X132990085Y-113127000D01*
X132868096Y-113349039D01*
X128297999Y-113349039D01*
X128752946Y-112894093D01*
X128789288Y-112864268D01*
X128908316Y-112719231D01*
X128944806Y-112650961D01*
X132868096Y-112650961D01*
X132990085Y-112873000D01*
X134133000Y-112873000D01*
X134133000Y-111729376D01*
X134387000Y-111729376D01*
X134387000Y-112873000D01*
X135529915Y-112873000D01*
X135651904Y-112650961D01*
X135611246Y-112516913D01*
X135491037Y-112262580D01*
X135323519Y-112036586D01*
X135115131Y-111847615D01*
X134873881Y-111702930D01*
X134609040Y-111608091D01*
X134387000Y-111729376D01*
X134133000Y-111729376D01*
X133910960Y-111608091D01*
X133646119Y-111702930D01*
X133404869Y-111847615D01*
X133196481Y-112036586D01*
X133028963Y-112262580D01*
X132908754Y-112516913D01*
X132868096Y-112650961D01*
X128944806Y-112650961D01*
X128996762Y-112553759D01*
X129051227Y-112374213D01*
X129065010Y-112234275D01*
X129065010Y-112234274D01*
X129069618Y-112187491D01*
X129065010Y-112140706D01*
X129065010Y-105199295D01*
X129069618Y-105152510D01*
X129060375Y-105058665D01*
X131365000Y-105058665D01*
X131365000Y-105341335D01*
X131420147Y-105618574D01*
X131528320Y-105879727D01*
X131685363Y-106114759D01*
X131885241Y-106314637D01*
X132120273Y-106471680D01*
X132381426Y-106579853D01*
X132658665Y-106635000D01*
X132941335Y-106635000D01*
X133218574Y-106579853D01*
X133479727Y-106471680D01*
X133714759Y-106314637D01*
X133914637Y-106114759D01*
X133956237Y-106052500D01*
X134582687Y-106052500D01*
X134610498Y-106144180D01*
X134669463Y-106254494D01*
X134748815Y-106351185D01*
X134845506Y-106430537D01*
X134955820Y-106489502D01*
X135075518Y-106525812D01*
X135200000Y-106538072D01*
X136800000Y-106538072D01*
X136924482Y-106525812D01*
X137044180Y-106489502D01*
X137154494Y-106430537D01*
X137251185Y-106351185D01*
X137330537Y-106254494D01*
X137389502Y-106144180D01*
X137411246Y-106072500D01*
X137923104Y-106072500D01*
X138085241Y-106234637D01*
X138320273Y-106391680D01*
X138581426Y-106499853D01*
X138858665Y-106555000D01*
X139141335Y-106555000D01*
X139418574Y-106499853D01*
X139679727Y-106391680D01*
X139914759Y-106234637D01*
X140114637Y-106034759D01*
X140271680Y-105799727D01*
X140379853Y-105538574D01*
X140435000Y-105261335D01*
X140435000Y-105032038D01*
X141232040Y-104234999D01*
X142061928Y-104234999D01*
X142061928Y-105091033D01*
X138305462Y-108847500D01*
X135376896Y-108847500D01*
X135214759Y-108685363D01*
X134979727Y-108528320D01*
X134718574Y-108420147D01*
X134441335Y-108365000D01*
X134158665Y-108365000D01*
X133881426Y-108420147D01*
X133620273Y-108528320D01*
X133385241Y-108685363D01*
X133185363Y-108885241D01*
X133028320Y-109120273D01*
X132920147Y-109381426D01*
X132865000Y-109658665D01*
X132865000Y-109941335D01*
X132920147Y-110218574D01*
X133028320Y-110479727D01*
X133185363Y-110714759D01*
X133385241Y-110914637D01*
X133620273Y-111071680D01*
X133881426Y-111179853D01*
X134158665Y-111235000D01*
X134441335Y-111235000D01*
X134718574Y-111179853D01*
X134979727Y-111071680D01*
X135214759Y-110914637D01*
X135376896Y-110752500D01*
X137803319Y-110752500D01*
X137620273Y-110828320D01*
X137385241Y-110985363D01*
X137185363Y-111185241D01*
X137028320Y-111420273D01*
X136920147Y-111681426D01*
X136865000Y-111958665D01*
X136865000Y-112241335D01*
X136920147Y-112518574D01*
X137028320Y-112779727D01*
X137185363Y-113014759D01*
X137385241Y-113214637D01*
X137620273Y-113371680D01*
X137881426Y-113479853D01*
X138158665Y-113535000D01*
X138387962Y-113535000D01*
X138582961Y-113730000D01*
X135601291Y-116711670D01*
X135639853Y-116618574D01*
X135695000Y-116341335D01*
X135695000Y-116058665D01*
X135639853Y-115781426D01*
X135531680Y-115520273D01*
X135374637Y-115285241D01*
X135174759Y-115085363D01*
X134939727Y-114928320D01*
X134678574Y-114820147D01*
X134401335Y-114765000D01*
X134118665Y-114765000D01*
X133841426Y-114820147D01*
X133580273Y-114928320D01*
X133345241Y-115085363D01*
X133145363Y-115285241D01*
X132988320Y-115520273D01*
X132880147Y-115781426D01*
X132825000Y-116058665D01*
X132825000Y-116341335D01*
X132880147Y-116618574D01*
X132988320Y-116879727D01*
X133145363Y-117114759D01*
X133345241Y-117314637D01*
X133580273Y-117471680D01*
X133841426Y-117579853D01*
X134118665Y-117635000D01*
X134401335Y-117635000D01*
X134678574Y-117579853D01*
X134771671Y-117541291D01*
X134347962Y-117965000D01*
X134118665Y-117965000D01*
X133841426Y-118020147D01*
X133580273Y-118128320D01*
X133345241Y-118285363D01*
X133145363Y-118485241D01*
X132988320Y-118720273D01*
X132880147Y-118981426D01*
X132825000Y-119258665D01*
X132825000Y-119541335D01*
X132880147Y-119818574D01*
X132988320Y-120079727D01*
X133145363Y-120314759D01*
X133345241Y-120514637D01*
X133580273Y-120671680D01*
X133841426Y-120779853D01*
X134118665Y-120835000D01*
X134401335Y-120835000D01*
X134678574Y-120779853D01*
X134939727Y-120671680D01*
X135174759Y-120514637D01*
X135374637Y-120314759D01*
X135531680Y-120079727D01*
X135604054Y-119905000D01*
X142291928Y-119905000D01*
X142295000Y-120714250D01*
X142453750Y-120873000D01*
X143673000Y-120873000D01*
X143673000Y-119428750D01*
X143514250Y-119270000D01*
X142930000Y-119266928D01*
X142805518Y-119279188D01*
X142685820Y-119315498D01*
X142575506Y-119374463D01*
X142478815Y-119453815D01*
X142399463Y-119550506D01*
X142340498Y-119660820D01*
X142304188Y-119780518D01*
X142291928Y-119905000D01*
X135604054Y-119905000D01*
X135639853Y-119818574D01*
X135695000Y-119541335D01*
X135695000Y-119312038D01*
X139930000Y-115077038D01*
X144122767Y-119269805D01*
X144085750Y-119270000D01*
X143927000Y-119428750D01*
X143927000Y-120873000D01*
X143947000Y-120873000D01*
X143947000Y-121127000D01*
X143927000Y-121127000D01*
X143927000Y-122571250D01*
X144085750Y-122730000D01*
X144670000Y-122733072D01*
X144794482Y-122720812D01*
X144914180Y-122684502D01*
X145024494Y-122625537D01*
X145121185Y-122546185D01*
X145200537Y-122449494D01*
X145259502Y-122339180D01*
X145272615Y-122295953D01*
X145499822Y-122482417D01*
X145761276Y-122622166D01*
X146044969Y-122708224D01*
X146340000Y-122737282D01*
X146635032Y-122708224D01*
X146918725Y-122622166D01*
X147180179Y-122482417D01*
X147409345Y-122294345D01*
X147597417Y-122065179D01*
X147610000Y-122041638D01*
X147622583Y-122065179D01*
X147810655Y-122294345D01*
X148039822Y-122482417D01*
X148301276Y-122622166D01*
X148584969Y-122708224D01*
X148880000Y-122737282D01*
X149175032Y-122708224D01*
X149458725Y-122622166D01*
X149720179Y-122482417D01*
X149949345Y-122294345D01*
X150137417Y-122065179D01*
X150277166Y-121803724D01*
X150363224Y-121520031D01*
X150385000Y-121298935D01*
X150385000Y-120701064D01*
X150363224Y-120479968D01*
X150277166Y-120196275D01*
X150137417Y-119934821D01*
X149949345Y-119705655D01*
X149832500Y-119609763D01*
X149832500Y-119349039D01*
X153948096Y-119349039D01*
X153988754Y-119483087D01*
X154108963Y-119737420D01*
X154276481Y-119963414D01*
X154484869Y-120152385D01*
X154726119Y-120297070D01*
X154990960Y-120391909D01*
X155213000Y-120270624D01*
X155213000Y-119127000D01*
X155467000Y-119127000D01*
X155467000Y-120270624D01*
X155689040Y-120391909D01*
X155953881Y-120297070D01*
X156195131Y-120152385D01*
X156403519Y-119963414D01*
X156571037Y-119737420D01*
X156691246Y-119483087D01*
X156731904Y-119349039D01*
X156609915Y-119127000D01*
X155467000Y-119127000D01*
X155213000Y-119127000D01*
X154070085Y-119127000D01*
X153948096Y-119349039D01*
X149832500Y-119349039D01*
X149832500Y-118650961D01*
X153948096Y-118650961D01*
X154070085Y-118873000D01*
X155213000Y-118873000D01*
X155213000Y-117729376D01*
X155467000Y-117729376D01*
X155467000Y-118873000D01*
X156609915Y-118873000D01*
X156731904Y-118650961D01*
X156691246Y-118516913D01*
X156571037Y-118262580D01*
X156403519Y-118036586D01*
X156195131Y-117847615D01*
X155953881Y-117702930D01*
X155689040Y-117608091D01*
X155467000Y-117729376D01*
X155213000Y-117729376D01*
X154990960Y-117608091D01*
X154726119Y-117702930D01*
X154484869Y-117847615D01*
X154276481Y-118036586D01*
X154108963Y-118262580D01*
X153988754Y-118516913D01*
X153948096Y-118650961D01*
X149832500Y-118650961D01*
X149832500Y-113336418D01*
X150014759Y-113214637D01*
X150214637Y-113014759D01*
X150371680Y-112779727D01*
X150479853Y-112518574D01*
X150535000Y-112241335D01*
X150535000Y-111958665D01*
X150479853Y-111681426D01*
X150371680Y-111420273D01*
X150214637Y-111185241D01*
X150014759Y-110985363D01*
X149779727Y-110828320D01*
X149518574Y-110720147D01*
X149241335Y-110665000D01*
X148958665Y-110665000D01*
X148681426Y-110720147D01*
X148420273Y-110828320D01*
X148185241Y-110985363D01*
X147985363Y-111185241D01*
X147828320Y-111420273D01*
X147720147Y-111681426D01*
X147665000Y-111958665D01*
X147665000Y-112241335D01*
X147720147Y-112518574D01*
X147828320Y-112779727D01*
X147927501Y-112928162D01*
X147927500Y-119609762D01*
X147810655Y-119705655D01*
X147622583Y-119934822D01*
X147610000Y-119958363D01*
X147597417Y-119934821D01*
X147409345Y-119705655D01*
X147180178Y-119517583D01*
X146931934Y-119384895D01*
X140856607Y-113309569D01*
X140826778Y-113273222D01*
X140790436Y-113243397D01*
X139735000Y-112187962D01*
X139735000Y-111958665D01*
X139679853Y-111681426D01*
X139571680Y-111420273D01*
X139414637Y-111185241D01*
X139214759Y-110985363D01*
X138979727Y-110828320D01*
X138787096Y-110748530D01*
X138886723Y-110738717D01*
X139066269Y-110684252D01*
X139231741Y-110595806D01*
X139376778Y-110476778D01*
X139406607Y-110440431D01*
X143008967Y-106838072D01*
X144300000Y-106838072D01*
X144424482Y-106825812D01*
X144544180Y-106789502D01*
X144654494Y-106730537D01*
X144751185Y-106651185D01*
X144830537Y-106554494D01*
X144889502Y-106444180D01*
X144925812Y-106324482D01*
X144927581Y-106306517D01*
X145020393Y-106419608D01*
X145087500Y-106474682D01*
X145087501Y-108965460D01*
X143387962Y-110665000D01*
X143158665Y-110665000D01*
X142881426Y-110720147D01*
X142620273Y-110828320D01*
X142385241Y-110985363D01*
X142185363Y-111185241D01*
X142028320Y-111420273D01*
X141920147Y-111681426D01*
X141865000Y-111958665D01*
X141865000Y-112241335D01*
X141920147Y-112518574D01*
X142028320Y-112779727D01*
X142185363Y-113014759D01*
X142385241Y-113214637D01*
X142620273Y-113371680D01*
X142881426Y-113479853D01*
X143158665Y-113535000D01*
X143441335Y-113535000D01*
X143718574Y-113479853D01*
X143979727Y-113371680D01*
X144214759Y-113214637D01*
X144414637Y-113014759D01*
X144571680Y-112779727D01*
X144679853Y-112518574D01*
X144735000Y-112241335D01*
X144735000Y-112012038D01*
X146680436Y-110066603D01*
X146716778Y-110036778D01*
X146835806Y-109891741D01*
X146924252Y-109726269D01*
X146978717Y-109546723D01*
X146992500Y-109406785D01*
X146997108Y-109360001D01*
X146992500Y-109313216D01*
X146992500Y-106474682D01*
X147059608Y-106419608D01*
X147238932Y-106201101D01*
X147310000Y-106068142D01*
X147381068Y-106201101D01*
X147560393Y-106419608D01*
X147627501Y-106474682D01*
X147627501Y-106533206D01*
X147622892Y-106580000D01*
X147641283Y-106766722D01*
X147695749Y-106946269D01*
X147781448Y-107106601D01*
X147784195Y-107111741D01*
X147903223Y-107256778D01*
X147939563Y-107286601D01*
X152665000Y-112012039D01*
X152665000Y-112241335D01*
X152720147Y-112518574D01*
X152828320Y-112779727D01*
X152985363Y-113014759D01*
X153185241Y-113214637D01*
X153420273Y-113371680D01*
X153681426Y-113479853D01*
X153958665Y-113535000D01*
X154187961Y-113535000D01*
X154293397Y-113640436D01*
X154323222Y-113676778D01*
X154468259Y-113795806D01*
X154633731Y-113884252D01*
X154766351Y-113924482D01*
X154813277Y-113938717D01*
X154999999Y-113957108D01*
X155046784Y-113952500D01*
X160582687Y-113952500D01*
X160610498Y-114044180D01*
X160669463Y-114154494D01*
X160748815Y-114251185D01*
X160845506Y-114330537D01*
X160955820Y-114389502D01*
X161075518Y-114425812D01*
X161200000Y-114438072D01*
X162800000Y-114438072D01*
X162924482Y-114425812D01*
X163044180Y-114389502D01*
X163154494Y-114330537D01*
X163251185Y-114251185D01*
X163330537Y-114154494D01*
X163389502Y-114044180D01*
X163411246Y-113972500D01*
X163923104Y-113972500D01*
X164085241Y-114134637D01*
X164320273Y-114291680D01*
X164547501Y-114385801D01*
X164547500Y-117923104D01*
X164385363Y-118085241D01*
X164228320Y-118320273D01*
X164120147Y-118581426D01*
X164065000Y-118858665D01*
X164065000Y-119141335D01*
X164120147Y-119418574D01*
X164228320Y-119679727D01*
X164385363Y-119914759D01*
X164585241Y-120114637D01*
X164820273Y-120271680D01*
X165081426Y-120379853D01*
X165358665Y-120435000D01*
X165641335Y-120435000D01*
X165918574Y-120379853D01*
X166179727Y-120271680D01*
X166414759Y-120114637D01*
X166614637Y-119914759D01*
X166771680Y-119679727D01*
X166879853Y-119418574D01*
X166935000Y-119141335D01*
X166935000Y-118858665D01*
X166879853Y-118581426D01*
X166771680Y-118320273D01*
X166614637Y-118085241D01*
X166452500Y-117923104D01*
X166452500Y-113566785D01*
X166457108Y-113520000D01*
X166442499Y-113371680D01*
X166438717Y-113333277D01*
X166415815Y-113257781D01*
X166435000Y-113161335D01*
X166435000Y-112878665D01*
X166379853Y-112601426D01*
X166271680Y-112340273D01*
X166114637Y-112105241D01*
X165914759Y-111905363D01*
X165679727Y-111748320D01*
X165418574Y-111640147D01*
X165141335Y-111585000D01*
X164858665Y-111585000D01*
X164581426Y-111640147D01*
X164320273Y-111748320D01*
X164085241Y-111905363D01*
X163923104Y-112067500D01*
X163423380Y-112067500D01*
X163389502Y-111955820D01*
X163330537Y-111845506D01*
X163251185Y-111748815D01*
X163154494Y-111669463D01*
X163044180Y-111610498D01*
X162924482Y-111574188D01*
X162800000Y-111561928D01*
X161200000Y-111561928D01*
X161075518Y-111574188D01*
X160955820Y-111610498D01*
X160845506Y-111669463D01*
X160748815Y-111748815D01*
X160669463Y-111845506D01*
X160610498Y-111955820D01*
X160582687Y-112047500D01*
X155535000Y-112047500D01*
X155535000Y-111958665D01*
X155479853Y-111681426D01*
X155371680Y-111420273D01*
X155214637Y-111185241D01*
X155014759Y-110985363D01*
X154779727Y-110828320D01*
X154518574Y-110720147D01*
X154241335Y-110665000D01*
X154012039Y-110665000D01*
X149674901Y-106327863D01*
X149778932Y-106201101D01*
X149850000Y-106068142D01*
X149921068Y-106201101D01*
X150100393Y-106419608D01*
X150318900Y-106598932D01*
X150568193Y-106732182D01*
X150838692Y-106814236D01*
X151120000Y-106841943D01*
X151401309Y-106814236D01*
X151543933Y-106770972D01*
X151813397Y-107040436D01*
X151843222Y-107076778D01*
X151988259Y-107195806D01*
X152153731Y-107284252D01*
X152333277Y-107338717D01*
X152520000Y-107357108D01*
X152566785Y-107352500D01*
X155623104Y-107352500D01*
X155785241Y-107514637D01*
X156020273Y-107671680D01*
X156281426Y-107779853D01*
X156558665Y-107835000D01*
X156841335Y-107835000D01*
X157118574Y-107779853D01*
X157379727Y-107671680D01*
X157614759Y-107514637D01*
X157736694Y-107392702D01*
X158386903Y-107392702D01*
X158458486Y-107636671D01*
X158713996Y-107757571D01*
X158988184Y-107826300D01*
X159270512Y-107840217D01*
X159550130Y-107798787D01*
X159816292Y-107703603D01*
X159941514Y-107636671D01*
X160013097Y-107392702D01*
X159200000Y-106579605D01*
X158386903Y-107392702D01*
X157736694Y-107392702D01*
X157814637Y-107314759D01*
X157948692Y-107114131D01*
X157963329Y-107141514D01*
X158207298Y-107213097D01*
X159020395Y-106400000D01*
X159006253Y-106385858D01*
X159185858Y-106206253D01*
X159200000Y-106220395D01*
X159214143Y-106206253D01*
X159393748Y-106385858D01*
X159379605Y-106400000D01*
X160192702Y-107213097D01*
X160436671Y-107141514D01*
X160557571Y-106886004D01*
X160626300Y-106611816D01*
X160640069Y-106332500D01*
X160923104Y-106332500D01*
X161085241Y-106494637D01*
X161320273Y-106651680D01*
X161581426Y-106759853D01*
X161858665Y-106815000D01*
X162141335Y-106815000D01*
X162418574Y-106759853D01*
X162679727Y-106651680D01*
X162914759Y-106494637D01*
X163114637Y-106294759D01*
X163271680Y-106059727D01*
X163379853Y-105798574D01*
X163435000Y-105521335D01*
X163435000Y-105238665D01*
X163420939Y-105167978D01*
X163561928Y-105308966D01*
X163561928Y-106200000D01*
X163574188Y-106324482D01*
X163610498Y-106444180D01*
X163669463Y-106554494D01*
X163748815Y-106651185D01*
X163845506Y-106730537D01*
X163955820Y-106789502D01*
X164075518Y-106825812D01*
X164200000Y-106838072D01*
X165800000Y-106838072D01*
X165924482Y-106825812D01*
X166044180Y-106789502D01*
X166154494Y-106730537D01*
X166251185Y-106651185D01*
X166330537Y-106554494D01*
X166389502Y-106444180D01*
X166425812Y-106324482D01*
X166438072Y-106200000D01*
X166438072Y-104600000D01*
X166425812Y-104475518D01*
X166389502Y-104355820D01*
X166330537Y-104245506D01*
X166251185Y-104148815D01*
X166154494Y-104069463D01*
X166044180Y-104010498D01*
X165924482Y-103974188D01*
X165800000Y-103961928D01*
X164908966Y-103961928D01*
X164369106Y-103422068D01*
X164339277Y-103385721D01*
X164194240Y-103266693D01*
X164028768Y-103178247D01*
X163849222Y-103123782D01*
X163709284Y-103109999D01*
X163662499Y-103105391D01*
X163615714Y-103109999D01*
X158635000Y-103109999D01*
X158635000Y-102972038D01*
X159537038Y-102070000D01*
X162666928Y-102070000D01*
X162679188Y-102194482D01*
X162715498Y-102314180D01*
X162774463Y-102424494D01*
X162853815Y-102521185D01*
X162950506Y-102600537D01*
X163060820Y-102659502D01*
X163180518Y-102695812D01*
X163305000Y-102708072D01*
X164114250Y-102705000D01*
X164273000Y-102546250D01*
X164273000Y-101327000D01*
X164527000Y-101327000D01*
X164527000Y-102546250D01*
X164685750Y-102705000D01*
X165495000Y-102708072D01*
X165619482Y-102695812D01*
X165739180Y-102659502D01*
X165849494Y-102600537D01*
X165946185Y-102521185D01*
X166025537Y-102424494D01*
X166084502Y-102314180D01*
X166120812Y-102194482D01*
X166133072Y-102070000D01*
X166130000Y-101485750D01*
X165971250Y-101327000D01*
X164527000Y-101327000D01*
X164273000Y-101327000D01*
X162828750Y-101327000D01*
X162670000Y-101485750D01*
X162666928Y-102070000D01*
X159537038Y-102070000D01*
X161994538Y-99612500D01*
X163009763Y-99612500D01*
X163104047Y-99727385D01*
X163060820Y-99740498D01*
X162950506Y-99799463D01*
X162853815Y-99878815D01*
X162774463Y-99975506D01*
X162715498Y-100085820D01*
X162679188Y-100205518D01*
X162666928Y-100330000D01*
X162670000Y-100914250D01*
X162828750Y-101073000D01*
X164273000Y-101073000D01*
X164273000Y-101053000D01*
X164527000Y-101053000D01*
X164527000Y-101073000D01*
X165971250Y-101073000D01*
X166130000Y-100914250D01*
X166133072Y-100330000D01*
X166120812Y-100205518D01*
X166084502Y-100085820D01*
X166025537Y-99975506D01*
X165946185Y-99878815D01*
X165849494Y-99799463D01*
X165739180Y-99740498D01*
X165695953Y-99727385D01*
X165882417Y-99500179D01*
X166022166Y-99238725D01*
X166108224Y-98955032D01*
X166137282Y-98660000D01*
X166108224Y-98364968D01*
X166022166Y-98081275D01*
X165882417Y-97819821D01*
X165694345Y-97590655D01*
X165465179Y-97402583D01*
X165203725Y-97262834D01*
X164920032Y-97176776D01*
X164698936Y-97155000D01*
X164101064Y-97155000D01*
X163879968Y-97176776D01*
X163596275Y-97262834D01*
X163334821Y-97402583D01*
X163105655Y-97590655D01*
X163009763Y-97707500D01*
X161646785Y-97707500D01*
X161600000Y-97702892D01*
X161553215Y-97707500D01*
X161413277Y-97721283D01*
X161330913Y-97746268D01*
X161233730Y-97775748D01*
X161151276Y-97819821D01*
X161068259Y-97864194D01*
X160923222Y-97983222D01*
X160893393Y-98019569D01*
X157287962Y-101625000D01*
X157058665Y-101625000D01*
X156781426Y-101680147D01*
X156520273Y-101788320D01*
X156285241Y-101945363D01*
X156085363Y-102145241D01*
X155928320Y-102380273D01*
X155820147Y-102641426D01*
X155765000Y-102918665D01*
X155765000Y-103201335D01*
X155820147Y-103478574D01*
X155848697Y-103547500D01*
X154275421Y-103547500D01*
X150087489Y-99359569D01*
X150057660Y-99323222D01*
X149912623Y-99204194D01*
X149747151Y-99115748D01*
X149567605Y-99061283D01*
X149427667Y-99047500D01*
X149380882Y-99042892D01*
X149334097Y-99047500D01*
X149252819Y-99047500D01*
X149381101Y-98978932D01*
X149599608Y-98799608D01*
X149778932Y-98581101D01*
X149850000Y-98448142D01*
X149921068Y-98581101D01*
X150100393Y-98799608D01*
X150318900Y-98978932D01*
X150568193Y-99112182D01*
X150838692Y-99194236D01*
X151120000Y-99221943D01*
X151401309Y-99194236D01*
X151671808Y-99112182D01*
X151921101Y-98978932D01*
X152139608Y-98799608D01*
X152318932Y-98581101D01*
X152452182Y-98331808D01*
X152534236Y-98061309D01*
X152555000Y-97850491D01*
X152555000Y-96909508D01*
X152534236Y-96698691D01*
X152452182Y-96428192D01*
X152318932Y-96178899D01*
X152139607Y-95960392D01*
X151921100Y-95781068D01*
X151671807Y-95647818D01*
X151401308Y-95565764D01*
X151120000Y-95538057D01*
X150838691Y-95565764D01*
X150568192Y-95647818D01*
X150318899Y-95781068D01*
X150100392Y-95960393D01*
X149921068Y-96178900D01*
X149850000Y-96311858D01*
X149778932Y-96178899D01*
X149599607Y-95960392D01*
X149552500Y-95921732D01*
X149552500Y-93976896D01*
X149676896Y-93852500D01*
X156123104Y-93852500D01*
X156285241Y-94014637D01*
X156520273Y-94171680D01*
X156781426Y-94279853D01*
X157058665Y-94335000D01*
X157341335Y-94335000D01*
X157618574Y-94279853D01*
X157879727Y-94171680D01*
X158114759Y-94014637D01*
X158314637Y-93814759D01*
X158471680Y-93579727D01*
X158579853Y-93318574D01*
X158635000Y-93041335D01*
X158635000Y-92758665D01*
X158579853Y-92481426D01*
X158471680Y-92220273D01*
X158314637Y-91985241D01*
X158114759Y-91785363D01*
X157879727Y-91628320D01*
X157618574Y-91520147D01*
X157341335Y-91465000D01*
X157058665Y-91465000D01*
X156781426Y-91520147D01*
X156520273Y-91628320D01*
X156285241Y-91785363D01*
X156123104Y-91947500D01*
X149676896Y-91947500D01*
X149514759Y-91785363D01*
X149279727Y-91628320D01*
X149018574Y-91520147D01*
X148741335Y-91465000D01*
X148458665Y-91465000D01*
X148181426Y-91520147D01*
X147920273Y-91628320D01*
X147685241Y-91785363D01*
X147485363Y-91985241D01*
X147328320Y-92220273D01*
X147220147Y-92481426D01*
X147165000Y-92758665D01*
X147165000Y-93041335D01*
X147220147Y-93318574D01*
X147328320Y-93579727D01*
X147485363Y-93814759D01*
X147647500Y-93976896D01*
X147647501Y-95888904D01*
X147560392Y-95960393D01*
X147381068Y-96178900D01*
X147310000Y-96311858D01*
X147238932Y-96178899D01*
X147059607Y-95960392D01*
X146992500Y-95905319D01*
X146992500Y-93386785D01*
X146997108Y-93340000D01*
X146978717Y-93153278D01*
X146924252Y-92973730D01*
X146853485Y-92841335D01*
X146835806Y-92808259D01*
X146835000Y-92807277D01*
X146835000Y-92558665D01*
X146779853Y-92281426D01*
X146671680Y-92020273D01*
X146514637Y-91785241D01*
X146314759Y-91585363D01*
X146079727Y-91428320D01*
X145818574Y-91320147D01*
X145541335Y-91265000D01*
X145258665Y-91265000D01*
X144981426Y-91320147D01*
X144720273Y-91428320D01*
X144485241Y-91585363D01*
X144285363Y-91785241D01*
X144151308Y-91985869D01*
X144136671Y-91958486D01*
X143892702Y-91886903D01*
X143079605Y-92700000D01*
X143892702Y-93513097D01*
X144136671Y-93441514D01*
X144150324Y-93412659D01*
X144285363Y-93614759D01*
X144485241Y-93814637D01*
X144720273Y-93971680D01*
X144981426Y-94079853D01*
X145087501Y-94100953D01*
X145087501Y-95080462D01*
X145029097Y-95022059D01*
X144999268Y-94985712D01*
X144854231Y-94866684D01*
X144688759Y-94778238D01*
X144509213Y-94723773D01*
X144369275Y-94709990D01*
X144322490Y-94705382D01*
X144275705Y-94709990D01*
X140884295Y-94709990D01*
X140837510Y-94705382D01*
X140790725Y-94709990D01*
X140650787Y-94723773D01*
X140471241Y-94778238D01*
X140305769Y-94866684D01*
X140160732Y-94985712D01*
X140130903Y-95022059D01*
X139091034Y-96061928D01*
X138200000Y-96061928D01*
X138075518Y-96074188D01*
X137955820Y-96110498D01*
X137845506Y-96169463D01*
X137748815Y-96248815D01*
X137669463Y-96345506D01*
X137610498Y-96455820D01*
X137574188Y-96575518D01*
X137561928Y-96700000D01*
X137561928Y-97694890D01*
X137435000Y-97567962D01*
X137435000Y-97338665D01*
X137379853Y-97061426D01*
X137271680Y-96800273D01*
X137114637Y-96565241D01*
X136914759Y-96365363D01*
X136679727Y-96208320D01*
X136418574Y-96100147D01*
X136141335Y-96045000D01*
X135858665Y-96045000D01*
X135581426Y-96100147D01*
X135320273Y-96208320D01*
X135085241Y-96365363D01*
X134885363Y-96565241D01*
X134728320Y-96800273D01*
X134620147Y-97061426D01*
X134565000Y-97338665D01*
X134565000Y-97621335D01*
X134620147Y-97898574D01*
X134728320Y-98159727D01*
X134885363Y-98394759D01*
X135085241Y-98594637D01*
X135320273Y-98751680D01*
X135581426Y-98859853D01*
X135858665Y-98915000D01*
X136087962Y-98915000D01*
X136910903Y-99737941D01*
X136940732Y-99774288D01*
X137085769Y-99893316D01*
X137251241Y-99981762D01*
X137430787Y-100036227D01*
X137570725Y-100050010D01*
X137617510Y-100054618D01*
X137664295Y-100050010D01*
X144822972Y-100050010D01*
X148037850Y-103264888D01*
X148028192Y-103267818D01*
X147778899Y-103401068D01*
X147560392Y-103580393D01*
X147381068Y-103798900D01*
X147310000Y-103931858D01*
X147238932Y-103798899D01*
X147059607Y-103580392D01*
X146841100Y-103401068D01*
X146591807Y-103267818D01*
X146321308Y-103185764D01*
X146040000Y-103158057D01*
X145945869Y-103167328D01*
X145420608Y-102642068D01*
X145390779Y-102605721D01*
X145245742Y-102486693D01*
X145080270Y-102398247D01*
X144900724Y-102343782D01*
X144760786Y-102329999D01*
X144714001Y-102325391D01*
X144667216Y-102329999D01*
X140884286Y-102329999D01*
X140837501Y-102325391D01*
X140790716Y-102329999D01*
X140650778Y-102343782D01*
X140471232Y-102398247D01*
X140305760Y-102486693D01*
X140160723Y-102605721D01*
X140130898Y-102642063D01*
X139087962Y-103685000D01*
X138858665Y-103685000D01*
X138581426Y-103740147D01*
X138320273Y-103848320D01*
X138085241Y-104005363D01*
X137923104Y-104167500D01*
X137423380Y-104167500D01*
X137389502Y-104055820D01*
X137330537Y-103945506D01*
X137251185Y-103848815D01*
X137154494Y-103769463D01*
X137044180Y-103710498D01*
X136924482Y-103674188D01*
X136800000Y-103661928D01*
X135200000Y-103661928D01*
X135075518Y-103674188D01*
X134955820Y-103710498D01*
X134845506Y-103769463D01*
X134748815Y-103848815D01*
X134669463Y-103945506D01*
X134610498Y-104055820D01*
X134582687Y-104147500D01*
X133776896Y-104147500D01*
X133714759Y-104085363D01*
X133479727Y-103928320D01*
X133218574Y-103820147D01*
X132941335Y-103765000D01*
X132658665Y-103765000D01*
X132381426Y-103820147D01*
X132120273Y-103928320D01*
X131885241Y-104085363D01*
X131685363Y-104285241D01*
X131528320Y-104520273D01*
X131420147Y-104781426D01*
X131365000Y-105058665D01*
X129060375Y-105058665D01*
X129055949Y-105013731D01*
X129051227Y-104965787D01*
X128996762Y-104786241D01*
X128908316Y-104620769D01*
X128789288Y-104475732D01*
X128752941Y-104445903D01*
X128192827Y-103885789D01*
X128208224Y-103835032D01*
X128237282Y-103540000D01*
X128208224Y-103244968D01*
X128122166Y-102961275D01*
X127982417Y-102699821D01*
X127794345Y-102470655D01*
X127728886Y-102416934D01*
X127838387Y-102358405D01*
X127972962Y-102247962D01*
X128083405Y-102113387D01*
X128165472Y-101959851D01*
X128216008Y-101793255D01*
X128233072Y-101620001D01*
X128233072Y-100379999D01*
X128216008Y-100206745D01*
X128165472Y-100040149D01*
X128083405Y-99886613D01*
X127972962Y-99752038D01*
X127838387Y-99641595D01*
X127684851Y-99559528D01*
X127518255Y-99508992D01*
X127345001Y-99491928D01*
X126338966Y-99491928D01*
X125839990Y-98992952D01*
X125839990Y-95389040D01*
X131408091Y-95389040D01*
X131502930Y-95653881D01*
X131647615Y-95895131D01*
X131836586Y-96103519D01*
X132062580Y-96271037D01*
X132316913Y-96391246D01*
X132450961Y-96431904D01*
X132673000Y-96309915D01*
X132673000Y-95167000D01*
X132927000Y-95167000D01*
X132927000Y-96309915D01*
X133149039Y-96431904D01*
X133283087Y-96391246D01*
X133537420Y-96271037D01*
X133763414Y-96103519D01*
X133952385Y-95895131D01*
X134097070Y-95653881D01*
X134191909Y-95389040D01*
X134070624Y-95167000D01*
X132927000Y-95167000D01*
X132673000Y-95167000D01*
X131529376Y-95167000D01*
X131408091Y-95389040D01*
X125839990Y-95389040D01*
X125839990Y-94690960D01*
X131408091Y-94690960D01*
X131529376Y-94913000D01*
X132673000Y-94913000D01*
X132673000Y-93770085D01*
X132927000Y-93770085D01*
X132927000Y-94913000D01*
X134070624Y-94913000D01*
X134191909Y-94690960D01*
X134097070Y-94426119D01*
X133952385Y-94184869D01*
X133763414Y-93976481D01*
X133537420Y-93808963D01*
X133291441Y-93692702D01*
X142086903Y-93692702D01*
X142158486Y-93936671D01*
X142413996Y-94057571D01*
X142688184Y-94126300D01*
X142970512Y-94140217D01*
X143250130Y-94098787D01*
X143516292Y-94003603D01*
X143641514Y-93936671D01*
X143713097Y-93692702D01*
X142900000Y-92879605D01*
X142086903Y-93692702D01*
X133291441Y-93692702D01*
X133283087Y-93688754D01*
X133149039Y-93648096D01*
X132927000Y-93770085D01*
X132673000Y-93770085D01*
X132450961Y-93648096D01*
X132316913Y-93688754D01*
X132062580Y-93808963D01*
X131836586Y-93976481D01*
X131647615Y-94184869D01*
X131502930Y-94426119D01*
X131408091Y-94690960D01*
X125839990Y-94690960D01*
X125839990Y-94580762D01*
X125979968Y-94623224D01*
X126201064Y-94645000D01*
X126798936Y-94645000D01*
X127020032Y-94623224D01*
X127303725Y-94537166D01*
X127565179Y-94397417D01*
X127794345Y-94209345D01*
X127982417Y-93980179D01*
X128122166Y-93718725D01*
X128208224Y-93435032D01*
X128237282Y-93140000D01*
X128208224Y-92844968D01*
X128185638Y-92770512D01*
X141459783Y-92770512D01*
X141501213Y-93050130D01*
X141596397Y-93316292D01*
X141663329Y-93441514D01*
X141907298Y-93513097D01*
X142720395Y-92700000D01*
X141907298Y-91886903D01*
X141663329Y-91958486D01*
X141542429Y-92213996D01*
X141473700Y-92488184D01*
X141459783Y-92770512D01*
X128185638Y-92770512D01*
X128122166Y-92561275D01*
X127982417Y-92299821D01*
X127794345Y-92070655D01*
X127728886Y-92016934D01*
X127838387Y-91958405D01*
X127972962Y-91847962D01*
X128083405Y-91713387D01*
X128165472Y-91559851D01*
X128216008Y-91393255D01*
X128233072Y-91220001D01*
X128233072Y-90718665D01*
X132665000Y-90718665D01*
X132665000Y-91001335D01*
X132720147Y-91278574D01*
X132828320Y-91539727D01*
X132985363Y-91774759D01*
X133185241Y-91974637D01*
X133420273Y-92131680D01*
X133681426Y-92239853D01*
X133958665Y-92295000D01*
X134241335Y-92295000D01*
X134518574Y-92239853D01*
X134779727Y-92131680D01*
X135014759Y-91974637D01*
X135214637Y-91774759D01*
X135259712Y-91707298D01*
X142086903Y-91707298D01*
X142900000Y-92520395D01*
X143713097Y-91707298D01*
X143641514Y-91463329D01*
X143386004Y-91342429D01*
X143111816Y-91273700D01*
X142829488Y-91259783D01*
X142549870Y-91301213D01*
X142283708Y-91396397D01*
X142158486Y-91463329D01*
X142086903Y-91707298D01*
X135259712Y-91707298D01*
X135371680Y-91539727D01*
X135479853Y-91278574D01*
X135535000Y-91001335D01*
X135535000Y-90718665D01*
X135479853Y-90441426D01*
X135371680Y-90180273D01*
X135214637Y-89945241D01*
X135014759Y-89745363D01*
X134779727Y-89588320D01*
X134518574Y-89480147D01*
X134241335Y-89425000D01*
X133958665Y-89425000D01*
X133681426Y-89480147D01*
X133420273Y-89588320D01*
X133185241Y-89745363D01*
X132985363Y-89945241D01*
X132828320Y-90180273D01*
X132720147Y-90441426D01*
X132665000Y-90718665D01*
X128233072Y-90718665D01*
X128233072Y-89979999D01*
X128216008Y-89806745D01*
X128165472Y-89640149D01*
X128083405Y-89486613D01*
X127972962Y-89352038D01*
X127838387Y-89241595D01*
X127684851Y-89159528D01*
X127518255Y-89108992D01*
X127345001Y-89091928D01*
X125839990Y-89091928D01*
X125839990Y-85520762D01*
X125979968Y-85563224D01*
X126201064Y-85585000D01*
X126798936Y-85585000D01*
X127020032Y-85563224D01*
X127303725Y-85477166D01*
X127565179Y-85337417D01*
X127794345Y-85149345D01*
X127982417Y-84920179D01*
X128122166Y-84658725D01*
X128208224Y-84375032D01*
X128237282Y-84080000D01*
X128208224Y-83784968D01*
X128122166Y-83501275D01*
X127982417Y-83239821D01*
X127794345Y-83010655D01*
X127565179Y-82822583D01*
X127541638Y-82810000D01*
X127565179Y-82797417D01*
X127794345Y-82609345D01*
X127982417Y-82380179D01*
X128122166Y-82118725D01*
X128208224Y-81835032D01*
X128237282Y-81540000D01*
X128208224Y-81244968D01*
X128122166Y-80961275D01*
X127982417Y-80699821D01*
X127795953Y-80472615D01*
X127839180Y-80459502D01*
X127949494Y-80400537D01*
X128046185Y-80321185D01*
X128125537Y-80224494D01*
X128184502Y-80114180D01*
X128220812Y-79994482D01*
X128233072Y-79870000D01*
X128230000Y-79285750D01*
X128071250Y-79127000D01*
X126627000Y-79127000D01*
X126627000Y-79147000D01*
X126373000Y-79147000D01*
X126373000Y-79127000D01*
X124928750Y-79127000D01*
X124770000Y-79285750D01*
X124766928Y-79870000D01*
X124779188Y-79994482D01*
X124815498Y-80114180D01*
X124874463Y-80224494D01*
X124953815Y-80321185D01*
X125050506Y-80400537D01*
X125160820Y-80459502D01*
X125204047Y-80472615D01*
X125017583Y-80699821D01*
X124877834Y-80961275D01*
X124791776Y-81244968D01*
X124762718Y-81540000D01*
X124791776Y-81835032D01*
X124807173Y-81885789D01*
X124247055Y-82445907D01*
X124210713Y-82475732D01*
X124180889Y-82512073D01*
X124091684Y-82620770D01*
X124003239Y-82786241D01*
X123948773Y-82965788D01*
X123930382Y-83152510D01*
X123934991Y-83199305D01*
X123934990Y-99340705D01*
X123930382Y-99387490D01*
X123934990Y-99434274D01*
X123948773Y-99574212D01*
X124003238Y-99753758D01*
X124091684Y-99919231D01*
X124210712Y-100064268D01*
X124247059Y-100094097D01*
X124766928Y-100613966D01*
X124766928Y-101620001D01*
X124783992Y-101793255D01*
X124834528Y-101959851D01*
X124916595Y-102113387D01*
X125027038Y-102247962D01*
X125161613Y-102358405D01*
X125271114Y-102416934D01*
X125205655Y-102470655D01*
X125017583Y-102699821D01*
X124877834Y-102961275D01*
X124791776Y-103244968D01*
X124762718Y-103540000D01*
X124791776Y-103835032D01*
X124877834Y-104118725D01*
X125017583Y-104380179D01*
X125205655Y-104609345D01*
X125434821Y-104797417D01*
X125458362Y-104810000D01*
X125434821Y-104822583D01*
X125205655Y-105010655D01*
X125017583Y-105239821D01*
X124877834Y-105501275D01*
X124791776Y-105784968D01*
X124762718Y-106080000D01*
X124791776Y-106375032D01*
X124877834Y-106658725D01*
X125017583Y-106920179D01*
X125205655Y-107149345D01*
X125295707Y-107223249D01*
X125323223Y-107256777D01*
X125468260Y-107375806D01*
X125547501Y-107418161D01*
X125547500Y-109520416D01*
X125519853Y-109381426D01*
X125411680Y-109120273D01*
X125254637Y-108885241D01*
X125054759Y-108685363D01*
X124819727Y-108528320D01*
X124558574Y-108420147D01*
X124281335Y-108365000D01*
X123998665Y-108365000D01*
X123721426Y-108420147D01*
X123460273Y-108528320D01*
X123225241Y-108685363D01*
X123025363Y-108885241D01*
X122868320Y-109120273D01*
X122760147Y-109381426D01*
X122705000Y-109658665D01*
X122705000Y-109941335D01*
X122760147Y-110218574D01*
X122868320Y-110479727D01*
X123025363Y-110714759D01*
X123225241Y-110914637D01*
X123460273Y-111071680D01*
X123721426Y-111179853D01*
X123998665Y-111235000D01*
X124281335Y-111235000D01*
X124558574Y-111179853D01*
X124583387Y-111169575D01*
X124187962Y-111565000D01*
X123958665Y-111565000D01*
X123681426Y-111620147D01*
X123420273Y-111728320D01*
X123185241Y-111885363D01*
X122985363Y-112085241D01*
X122828320Y-112320273D01*
X122720147Y-112581426D01*
X122665000Y-112858665D01*
X122160000Y-112858665D01*
X122160000Y-78130000D01*
X124766928Y-78130000D01*
X124770000Y-78714250D01*
X124928750Y-78873000D01*
X126373000Y-78873000D01*
X126373000Y-77653750D01*
X126627000Y-77653750D01*
X126627000Y-78873000D01*
X128071250Y-78873000D01*
X128230000Y-78714250D01*
X128233072Y-78130000D01*
X128220812Y-78005518D01*
X128184502Y-77885820D01*
X128125537Y-77775506D01*
X128046185Y-77678815D01*
X127949494Y-77599463D01*
X127839180Y-77540498D01*
X127719482Y-77504188D01*
X127595000Y-77491928D01*
X126785750Y-77495000D01*
X126627000Y-77653750D01*
X126373000Y-77653750D01*
X126214250Y-77495000D01*
X125405000Y-77491928D01*
X125280518Y-77504188D01*
X125160820Y-77540498D01*
X125050506Y-77599463D01*
X124953815Y-77678815D01*
X124874463Y-77775506D01*
X124815498Y-77885820D01*
X124779188Y-78005518D01*
X124766928Y-78130000D01*
X122160000Y-78130000D01*
X122160000Y-73440000D01*
X124762718Y-73440000D01*
X124791776Y-73735032D01*
X124877834Y-74018725D01*
X125017583Y-74280179D01*
X125205655Y-74509345D01*
X125434821Y-74697417D01*
X125696275Y-74837166D01*
X125979968Y-74923224D01*
X126201064Y-74945000D01*
X126798936Y-74945000D01*
X126980117Y-74927155D01*
X132665000Y-80612038D01*
X132665000Y-80841335D01*
X132720147Y-81118574D01*
X132828320Y-81379727D01*
X132985363Y-81614759D01*
X133185241Y-81814637D01*
X133420273Y-81971680D01*
X133681426Y-82079853D01*
X133958665Y-82135000D01*
X134241335Y-82135000D01*
X134518574Y-82079853D01*
X134779727Y-81971680D01*
X135014759Y-81814637D01*
X135214637Y-81614759D01*
X135371680Y-81379727D01*
X135479853Y-81118574D01*
X135535000Y-80841335D01*
X135535000Y-80558665D01*
X135479853Y-80281426D01*
X135371680Y-80020273D01*
X135214637Y-79785241D01*
X135014759Y-79585363D01*
X134779727Y-79428320D01*
X134518574Y-79320147D01*
X134241335Y-79265000D01*
X134012038Y-79265000D01*
X130147038Y-75400000D01*
X134161928Y-75400000D01*
X134161928Y-77000000D01*
X134174188Y-77124482D01*
X134210498Y-77244180D01*
X134269463Y-77354494D01*
X134348815Y-77451185D01*
X134445506Y-77530537D01*
X134555820Y-77589502D01*
X134675518Y-77625812D01*
X134800000Y-77638072D01*
X136400000Y-77638072D01*
X136524482Y-77625812D01*
X136644180Y-77589502D01*
X136754494Y-77530537D01*
X136851185Y-77451185D01*
X136930537Y-77354494D01*
X136989502Y-77244180D01*
X137025812Y-77124482D01*
X137038072Y-77000000D01*
X137038072Y-75400000D01*
X137025812Y-75275518D01*
X136989502Y-75155820D01*
X136930537Y-75045506D01*
X136851185Y-74948815D01*
X136754494Y-74869463D01*
X136644180Y-74810498D01*
X136524482Y-74774188D01*
X136400000Y-74761928D01*
X136392785Y-74761928D01*
X136413097Y-74692702D01*
X135600000Y-73879605D01*
X134786903Y-74692702D01*
X134807215Y-74761928D01*
X134800000Y-74761928D01*
X134675518Y-74774188D01*
X134555820Y-74810498D01*
X134445506Y-74869463D01*
X134348815Y-74948815D01*
X134269463Y-75045506D01*
X134210498Y-75155820D01*
X134174188Y-75275518D01*
X134161928Y-75400000D01*
X130147038Y-75400000D01*
X128517550Y-73770512D01*
X134159783Y-73770512D01*
X134201213Y-74050130D01*
X134296397Y-74316292D01*
X134363329Y-74441514D01*
X134607298Y-74513097D01*
X135420395Y-73700000D01*
X135779605Y-73700000D01*
X136592702Y-74513097D01*
X136836671Y-74441514D01*
X136957571Y-74186004D01*
X137026300Y-73911816D01*
X137040217Y-73629488D01*
X136998787Y-73349870D01*
X136903603Y-73083708D01*
X136836671Y-72958486D01*
X136592702Y-72886903D01*
X135779605Y-73700000D01*
X135420395Y-73700000D01*
X134607298Y-72886903D01*
X134363329Y-72958486D01*
X134242429Y-73213996D01*
X134173700Y-73488184D01*
X134159783Y-73770512D01*
X128517550Y-73770512D01*
X128232777Y-73485739D01*
X128237282Y-73440000D01*
X128208224Y-73144968D01*
X128122166Y-72861275D01*
X128039865Y-72707298D01*
X134786903Y-72707298D01*
X135600000Y-73520395D01*
X136413097Y-72707298D01*
X136341514Y-72463329D01*
X136086004Y-72342429D01*
X135811816Y-72273700D01*
X135529488Y-72259783D01*
X135249870Y-72301213D01*
X134983708Y-72396397D01*
X134858486Y-72463329D01*
X134786903Y-72707298D01*
X128039865Y-72707298D01*
X127982417Y-72599821D01*
X127795953Y-72372615D01*
X127839180Y-72359502D01*
X127949494Y-72300537D01*
X128046185Y-72221185D01*
X128125537Y-72124494D01*
X128184502Y-72014180D01*
X128220812Y-71894482D01*
X128233072Y-71770000D01*
X128230000Y-71185750D01*
X128071250Y-71027000D01*
X126627000Y-71027000D01*
X126627000Y-71047000D01*
X126373000Y-71047000D01*
X126373000Y-71027000D01*
X124928750Y-71027000D01*
X124770000Y-71185750D01*
X124766928Y-71770000D01*
X124779188Y-71894482D01*
X124815498Y-72014180D01*
X124874463Y-72124494D01*
X124953815Y-72221185D01*
X125050506Y-72300537D01*
X125160820Y-72359502D01*
X125204047Y-72372615D01*
X125017583Y-72599821D01*
X124877834Y-72861275D01*
X124791776Y-73144968D01*
X124762718Y-73440000D01*
X122160000Y-73440000D01*
X122160000Y-70030000D01*
X124766928Y-70030000D01*
X124770000Y-70614250D01*
X124928750Y-70773000D01*
X126373000Y-70773000D01*
X126373000Y-69553750D01*
X126627000Y-69553750D01*
X126627000Y-70773000D01*
X128071250Y-70773000D01*
X128230000Y-70614250D01*
X128233072Y-70030000D01*
X128220812Y-69905518D01*
X128184502Y-69785820D01*
X128125537Y-69675506D01*
X128046185Y-69578815D01*
X127949494Y-69499463D01*
X127839180Y-69440498D01*
X127719482Y-69404188D01*
X127595000Y-69391928D01*
X126785750Y-69395000D01*
X126627000Y-69553750D01*
X126373000Y-69553750D01*
X126214250Y-69395000D01*
X125405000Y-69391928D01*
X125280518Y-69404188D01*
X125160820Y-69440498D01*
X125050506Y-69499463D01*
X124953815Y-69578815D01*
X124874463Y-69675506D01*
X124815498Y-69785820D01*
X124779188Y-69905518D01*
X124766928Y-70030000D01*
X122160000Y-70030000D01*
X122160000Y-67000000D01*
X133161928Y-67000000D01*
X133174188Y-67124482D01*
X133210498Y-67244180D01*
X133269463Y-67354494D01*
X133348815Y-67451185D01*
X133445506Y-67530537D01*
X133555820Y-67589502D01*
X133675518Y-67625812D01*
X133800000Y-67638072D01*
X134314250Y-67635000D01*
X134473000Y-67476250D01*
X134473000Y-66327000D01*
X133323750Y-66327000D01*
X133165000Y-66485750D01*
X133161928Y-67000000D01*
X122160000Y-67000000D01*
X122160000Y-65400000D01*
X133161928Y-65400000D01*
X133165000Y-65914250D01*
X133323750Y-66073000D01*
X134473000Y-66073000D01*
X134473000Y-64923750D01*
X134314250Y-64765000D01*
X133800000Y-64761928D01*
X133675518Y-64774188D01*
X133555820Y-64810498D01*
X133445506Y-64869463D01*
X133348815Y-64948815D01*
X133269463Y-65045506D01*
X133210498Y-65155820D01*
X133174188Y-65275518D01*
X133161928Y-65400000D01*
X122160000Y-65400000D01*
X122160000Y-60858665D01*
X134065000Y-60858665D01*
X134065000Y-61141335D01*
X134120147Y-61418574D01*
X134228320Y-61679727D01*
X134385363Y-61914759D01*
X134585241Y-62114637D01*
X134820273Y-62271680D01*
X135081426Y-62379853D01*
X135358665Y-62435000D01*
X135587962Y-62435000D01*
X139693393Y-66540431D01*
X139723222Y-66576778D01*
X139868259Y-66695806D01*
X140033731Y-66784252D01*
X140213277Y-66838717D01*
X140399999Y-66857108D01*
X140446784Y-66852500D01*
X143923104Y-66852500D01*
X144047500Y-66976896D01*
X144047501Y-69438145D01*
X144020392Y-69460393D01*
X143841068Y-69678900D01*
X143770000Y-69811858D01*
X143698932Y-69678899D01*
X143519607Y-69460392D01*
X143301100Y-69281068D01*
X143051807Y-69147818D01*
X142781308Y-69065764D01*
X142500000Y-69038057D01*
X142218691Y-69065764D01*
X141948192Y-69147818D01*
X141698899Y-69281068D01*
X141480392Y-69460393D01*
X141301068Y-69678900D01*
X141167818Y-69928193D01*
X141085764Y-70198692D01*
X141069331Y-70365533D01*
X138052500Y-67348702D01*
X138052500Y-67276896D01*
X138214637Y-67114759D01*
X138371680Y-66879727D01*
X138479853Y-66618574D01*
X138535000Y-66341335D01*
X138535000Y-66058665D01*
X138479853Y-65781426D01*
X138371680Y-65520273D01*
X138214637Y-65285241D01*
X138014759Y-65085363D01*
X137779727Y-64928320D01*
X137518574Y-64820147D01*
X137241335Y-64765000D01*
X136958665Y-64765000D01*
X136681426Y-64820147D01*
X136420273Y-64928320D01*
X136185241Y-65085363D01*
X136018661Y-65251943D01*
X135989502Y-65155820D01*
X135930537Y-65045506D01*
X135851185Y-64948815D01*
X135754494Y-64869463D01*
X135644180Y-64810498D01*
X135524482Y-64774188D01*
X135400000Y-64761928D01*
X134885750Y-64765000D01*
X134727000Y-64923750D01*
X134727000Y-66073000D01*
X134747000Y-66073000D01*
X134747000Y-66327000D01*
X134727000Y-66327000D01*
X134727000Y-67476250D01*
X134885750Y-67635000D01*
X135400000Y-67638072D01*
X135524482Y-67625812D01*
X135644180Y-67589502D01*
X135754494Y-67530537D01*
X135851185Y-67451185D01*
X135930537Y-67354494D01*
X135989502Y-67244180D01*
X136018661Y-67148057D01*
X136147500Y-67276896D01*
X136147500Y-67696455D01*
X136142892Y-67743240D01*
X136147500Y-67790024D01*
X136161283Y-67929962D01*
X136215748Y-68109508D01*
X136304194Y-68274981D01*
X136423222Y-68420018D01*
X136459569Y-68449847D01*
X141717756Y-73708035D01*
X141747581Y-73744377D01*
X141892618Y-73863405D01*
X141975354Y-73907628D01*
X142058089Y-73951851D01*
X142123655Y-73971740D01*
X142237636Y-74006316D01*
X142377574Y-74020099D01*
X142424359Y-74024707D01*
X142471144Y-74020099D01*
X144293061Y-74020099D01*
X147043272Y-76770311D01*
X146888354Y-76836285D01*
X146655105Y-76995500D01*
X146457399Y-77197161D01*
X146307265Y-77426741D01*
X146238932Y-77298899D01*
X146059607Y-77080392D01*
X145841100Y-76901068D01*
X145591807Y-76767818D01*
X145321308Y-76685764D01*
X145040000Y-76658057D01*
X144758691Y-76685764D01*
X144488192Y-76767818D01*
X144238899Y-76901068D01*
X144020392Y-77080393D01*
X143927581Y-77193483D01*
X143925812Y-77175518D01*
X143889502Y-77055820D01*
X143830537Y-76945506D01*
X143751185Y-76848815D01*
X143654494Y-76769463D01*
X143544180Y-76710498D01*
X143424482Y-76674188D01*
X143300000Y-76661928D01*
X141700000Y-76661928D01*
X141575518Y-76674188D01*
X141455820Y-76710498D01*
X141345506Y-76769463D01*
X141248815Y-76848815D01*
X141169463Y-76945506D01*
X141110498Y-77055820D01*
X141074188Y-77175518D01*
X141061928Y-77300000D01*
X141061928Y-79700000D01*
X141074188Y-79824482D01*
X141110498Y-79944180D01*
X141169463Y-80054494D01*
X141248815Y-80151185D01*
X141345506Y-80230537D01*
X141455820Y-80289502D01*
X141575518Y-80325812D01*
X141700000Y-80338072D01*
X143300000Y-80338072D01*
X143424482Y-80325812D01*
X143544180Y-80289502D01*
X143654494Y-80230537D01*
X143751185Y-80151185D01*
X143830537Y-80054494D01*
X143889502Y-79944180D01*
X143925812Y-79824482D01*
X143927581Y-79806517D01*
X144020393Y-79919608D01*
X144238900Y-80098932D01*
X144488193Y-80232182D01*
X144758692Y-80314236D01*
X145040000Y-80341943D01*
X145321309Y-80314236D01*
X145463934Y-80270972D01*
X147306328Y-82113367D01*
X147220147Y-82321426D01*
X147165000Y-82598665D01*
X147165000Y-82881335D01*
X147220147Y-83158574D01*
X147328320Y-83419727D01*
X147485363Y-83654759D01*
X147685241Y-83854637D01*
X147920273Y-84011680D01*
X148181426Y-84119853D01*
X148458665Y-84175000D01*
X148741335Y-84175000D01*
X149018574Y-84119853D01*
X149279727Y-84011680D01*
X149514759Y-83854637D01*
X149676896Y-83692500D01*
X151045462Y-83692500D01*
X153965000Y-86612039D01*
X153965000Y-86841335D01*
X154020147Y-87118574D01*
X154128320Y-87379727D01*
X154285363Y-87614759D01*
X154485241Y-87814637D01*
X154687827Y-87950000D01*
X154485241Y-88085363D01*
X154285363Y-88285241D01*
X154128320Y-88520273D01*
X154020147Y-88781426D01*
X153965000Y-89058665D01*
X153965000Y-89341335D01*
X154020147Y-89618574D01*
X154128320Y-89879727D01*
X154285363Y-90114759D01*
X154485241Y-90314637D01*
X154720273Y-90471680D01*
X154981426Y-90579853D01*
X155258665Y-90635000D01*
X155541335Y-90635000D01*
X155818574Y-90579853D01*
X156079727Y-90471680D01*
X156314759Y-90314637D01*
X156514637Y-90114759D01*
X156671680Y-89879727D01*
X156779853Y-89618574D01*
X156835000Y-89341335D01*
X156835000Y-89112039D01*
X157357937Y-88589102D01*
X157394279Y-88559277D01*
X157513307Y-88414240D01*
X157582258Y-88285241D01*
X157601753Y-88248769D01*
X157636264Y-88135000D01*
X157656218Y-88069222D01*
X157670001Y-87929284D01*
X157670001Y-87929283D01*
X157674609Y-87882499D01*
X157670001Y-87835714D01*
X157670001Y-76514383D01*
X157674609Y-76467598D01*
X157656218Y-76280876D01*
X157628100Y-76188184D01*
X157601753Y-76101330D01*
X157513307Y-75935858D01*
X157394279Y-75790821D01*
X157357932Y-75760992D01*
X153554019Y-71957079D01*
X153524190Y-71920732D01*
X153379153Y-71801704D01*
X153213681Y-71713258D01*
X153034135Y-71658793D01*
X152894197Y-71645010D01*
X152847412Y-71640402D01*
X152800627Y-71645010D01*
X151508846Y-71645010D01*
X151534236Y-71561309D01*
X151555000Y-71350491D01*
X151555000Y-70409508D01*
X151534236Y-70198691D01*
X151452182Y-69928192D01*
X151318932Y-69678899D01*
X151139607Y-69460392D01*
X150921100Y-69281068D01*
X150671807Y-69147818D01*
X150401308Y-69065764D01*
X150120000Y-69038057D01*
X149838691Y-69065764D01*
X149568192Y-69147818D01*
X149318899Y-69281068D01*
X149100392Y-69460393D01*
X148921068Y-69678900D01*
X148850000Y-69811858D01*
X148778932Y-69678899D01*
X148599607Y-69460392D01*
X148381100Y-69281068D01*
X148131807Y-69147818D01*
X147861308Y-69065764D01*
X147580000Y-69038057D01*
X147298691Y-69065764D01*
X147028192Y-69147818D01*
X146778899Y-69281068D01*
X146560392Y-69460393D01*
X146381068Y-69678900D01*
X146310000Y-69811858D01*
X146238932Y-69678899D01*
X146059607Y-69460392D01*
X145952500Y-69372492D01*
X145952500Y-66976896D01*
X146036694Y-66892702D01*
X146686903Y-66892702D01*
X146758486Y-67136671D01*
X147013996Y-67257571D01*
X147288184Y-67326300D01*
X147570512Y-67340217D01*
X147850130Y-67298787D01*
X148116292Y-67203603D01*
X148241514Y-67136671D01*
X148313097Y-66892702D01*
X147500000Y-66079605D01*
X146686903Y-66892702D01*
X146036694Y-66892702D01*
X146114637Y-66814759D01*
X146248692Y-66614131D01*
X146263329Y-66641514D01*
X146507298Y-66713097D01*
X147320395Y-65900000D01*
X147306253Y-65885858D01*
X147485858Y-65706253D01*
X147500000Y-65720395D01*
X147514143Y-65706253D01*
X147693748Y-65885858D01*
X147679605Y-65900000D01*
X148492702Y-66713097D01*
X148736671Y-66641514D01*
X148857571Y-66386004D01*
X148926300Y-66111816D01*
X148940217Y-65829488D01*
X148898787Y-65549870D01*
X148893469Y-65534999D01*
X151487961Y-65534999D01*
X151861928Y-65908966D01*
X151861928Y-66800000D01*
X151874188Y-66924482D01*
X151910498Y-67044180D01*
X151969463Y-67154494D01*
X152048815Y-67251185D01*
X152145506Y-67330537D01*
X152255820Y-67389502D01*
X152375518Y-67425812D01*
X152500000Y-67438072D01*
X154100000Y-67438072D01*
X154224482Y-67425812D01*
X154344180Y-67389502D01*
X154454494Y-67330537D01*
X154551185Y-67251185D01*
X154630537Y-67154494D01*
X154689502Y-67044180D01*
X154705117Y-66992702D01*
X154986903Y-66992702D01*
X155058486Y-67236671D01*
X155313996Y-67357571D01*
X155588184Y-67426300D01*
X155870512Y-67440217D01*
X156150130Y-67398787D01*
X156416292Y-67303603D01*
X156541514Y-67236671D01*
X156613097Y-66992702D01*
X155800000Y-66179605D01*
X154986903Y-66992702D01*
X154705117Y-66992702D01*
X154725812Y-66924482D01*
X154738072Y-66800000D01*
X154738072Y-66792785D01*
X154807298Y-66813097D01*
X155620395Y-66000000D01*
X154807298Y-65186903D01*
X154738072Y-65207215D01*
X154738072Y-65200000D01*
X154725812Y-65075518D01*
X154689502Y-64955820D01*
X154630537Y-64845506D01*
X154551185Y-64748815D01*
X154454494Y-64669463D01*
X154344180Y-64610498D01*
X154224482Y-64574188D01*
X154100000Y-64561928D01*
X153208966Y-64561928D01*
X153099538Y-64452500D01*
X154855364Y-64452500D01*
X155128676Y-64725812D01*
X155058486Y-64763329D01*
X154986903Y-65007298D01*
X155800000Y-65820395D01*
X155814143Y-65806253D01*
X155993748Y-65985858D01*
X155979605Y-66000000D01*
X156792702Y-66813097D01*
X157036671Y-66741514D01*
X157071266Y-66668402D01*
X159680000Y-69277136D01*
X159679999Y-80245714D01*
X159675391Y-80292499D01*
X159679999Y-80339283D01*
X159693782Y-80479221D01*
X159748247Y-80658767D01*
X159836693Y-80824240D01*
X159955721Y-80969277D01*
X159992068Y-80999106D01*
X160515000Y-81522038D01*
X160515000Y-81806260D01*
X160572068Y-82093158D01*
X160684010Y-82363411D01*
X160846525Y-82606632D01*
X161053368Y-82813475D01*
X161296589Y-82975990D01*
X161566842Y-83087932D01*
X161853740Y-83145000D01*
X162146260Y-83145000D01*
X162433158Y-83087932D01*
X162703411Y-82975990D01*
X162946632Y-82813475D01*
X163147607Y-82612500D01*
X163392393Y-82612500D01*
X163593368Y-82813475D01*
X163836589Y-82975990D01*
X164106842Y-83087932D01*
X164393740Y-83145000D01*
X164686260Y-83145000D01*
X164973158Y-83087932D01*
X165243411Y-82975990D01*
X165486632Y-82813475D01*
X165693475Y-82606632D01*
X165855990Y-82363411D01*
X165967932Y-82093158D01*
X166025000Y-81806260D01*
X166025000Y-81513740D01*
X165967932Y-81226842D01*
X165855990Y-80956589D01*
X165693475Y-80713368D01*
X165486632Y-80506525D01*
X165313271Y-80390689D01*
X165388792Y-80148397D01*
X164540000Y-79299605D01*
X163691208Y-80148397D01*
X163766729Y-80390689D01*
X163593368Y-80506525D01*
X163392393Y-80707500D01*
X163147607Y-80707500D01*
X162946632Y-80506525D01*
X162773271Y-80390689D01*
X162848792Y-80148397D01*
X162000000Y-79299605D01*
X161985858Y-79313748D01*
X161806253Y-79134143D01*
X161820395Y-79120000D01*
X162179605Y-79120000D01*
X163028397Y-79968792D01*
X163270000Y-79893486D01*
X163511603Y-79968792D01*
X164360395Y-79120000D01*
X164719605Y-79120000D01*
X165568397Y-79968792D01*
X165817472Y-79891157D01*
X165943371Y-79627117D01*
X166015339Y-79343589D01*
X166030611Y-79051469D01*
X165988599Y-78761981D01*
X165890919Y-78486253D01*
X165817472Y-78348843D01*
X165568397Y-78271208D01*
X164719605Y-79120000D01*
X164360395Y-79120000D01*
X163511603Y-78271208D01*
X163270000Y-78346514D01*
X163028397Y-78271208D01*
X162179605Y-79120000D01*
X161820395Y-79120000D01*
X161806253Y-79105858D01*
X161985858Y-78926253D01*
X162000000Y-78940395D01*
X162848792Y-78091603D01*
X162773486Y-77850000D01*
X162848792Y-77608397D01*
X163691208Y-77608397D01*
X163766514Y-77850000D01*
X163691208Y-78091603D01*
X164540000Y-78940395D01*
X165388792Y-78091603D01*
X165313486Y-77850000D01*
X165388792Y-77608397D01*
X164540000Y-76759605D01*
X163691208Y-77608397D01*
X162848792Y-77608397D01*
X162000000Y-76759605D01*
X161985858Y-76773748D01*
X161806253Y-76594143D01*
X161820395Y-76580000D01*
X162179605Y-76580000D01*
X163028397Y-77428792D01*
X163270000Y-77353486D01*
X163511603Y-77428792D01*
X164360395Y-76580000D01*
X164719605Y-76580000D01*
X165568397Y-77428792D01*
X165817472Y-77351157D01*
X165943371Y-77087117D01*
X166015339Y-76803589D01*
X166030611Y-76511469D01*
X165988599Y-76221981D01*
X165890919Y-75946253D01*
X165817472Y-75808843D01*
X165568397Y-75731208D01*
X164719605Y-76580000D01*
X164360395Y-76580000D01*
X163511603Y-75731208D01*
X163270000Y-75806514D01*
X163028397Y-75731208D01*
X162179605Y-76580000D01*
X161820395Y-76580000D01*
X161806253Y-76565858D01*
X161985858Y-76386253D01*
X162000000Y-76400395D01*
X162848792Y-75551603D01*
X162773486Y-75310000D01*
X162848792Y-75068397D01*
X163691208Y-75068397D01*
X163766514Y-75310000D01*
X163691208Y-75551603D01*
X164540000Y-76400395D01*
X165388792Y-75551603D01*
X165313486Y-75310000D01*
X165388792Y-75068397D01*
X164540000Y-74219605D01*
X163691208Y-75068397D01*
X162848792Y-75068397D01*
X162000000Y-74219605D01*
X161985858Y-74233748D01*
X161806253Y-74054143D01*
X161820395Y-74040000D01*
X162179605Y-74040000D01*
X163028397Y-74888792D01*
X163270000Y-74813486D01*
X163511603Y-74888792D01*
X164360395Y-74040000D01*
X164719605Y-74040000D01*
X165568397Y-74888792D01*
X165817472Y-74811157D01*
X165943371Y-74547117D01*
X166015339Y-74263589D01*
X166030611Y-73971469D01*
X165988599Y-73681981D01*
X165890919Y-73406253D01*
X165817472Y-73268843D01*
X165568397Y-73191208D01*
X164719605Y-74040000D01*
X164360395Y-74040000D01*
X163511603Y-73191208D01*
X163270000Y-73266514D01*
X163028397Y-73191208D01*
X162179605Y-74040000D01*
X161820395Y-74040000D01*
X161806253Y-74025858D01*
X161985858Y-73846253D01*
X162000000Y-73860395D01*
X162848792Y-73011603D01*
X162830707Y-72953580D01*
X162939850Y-72920472D01*
X163093386Y-72838405D01*
X163227962Y-72727962D01*
X163338405Y-72593386D01*
X163406285Y-72466392D01*
X163593368Y-72653475D01*
X163766729Y-72769311D01*
X163691208Y-73011603D01*
X164540000Y-73860395D01*
X165388792Y-73011603D01*
X165313271Y-72769311D01*
X165486632Y-72653475D01*
X165693475Y-72446632D01*
X165855990Y-72203411D01*
X165967932Y-71933158D01*
X166025000Y-71646260D01*
X166025000Y-71353740D01*
X165967932Y-71066842D01*
X165855990Y-70796589D01*
X165693475Y-70553368D01*
X165486632Y-70346525D01*
X165243411Y-70184010D01*
X164973158Y-70072068D01*
X164686260Y-70015000D01*
X164393740Y-70015000D01*
X164106842Y-70072068D01*
X163836589Y-70184010D01*
X163593368Y-70346525D01*
X163406285Y-70533608D01*
X163338405Y-70406614D01*
X163227962Y-70272038D01*
X163093386Y-70161595D01*
X162952500Y-70086290D01*
X162952500Y-63386785D01*
X162957108Y-63340000D01*
X162938717Y-63153278D01*
X162884252Y-62973730D01*
X162803804Y-62823223D01*
X162795806Y-62808259D01*
X162676778Y-62663222D01*
X162640436Y-62633397D01*
X161095000Y-61087962D01*
X161095000Y-60858665D01*
X161039853Y-60581426D01*
X160931680Y-60320273D01*
X160774637Y-60085241D01*
X160574759Y-59885363D01*
X160339727Y-59728320D01*
X160078574Y-59620147D01*
X159801335Y-59565000D01*
X159518665Y-59565000D01*
X159241426Y-59620147D01*
X158980273Y-59728320D01*
X158745241Y-59885363D01*
X158545363Y-60085241D01*
X158388320Y-60320273D01*
X158280147Y-60581426D01*
X158225000Y-60858665D01*
X158225000Y-61141335D01*
X158280147Y-61418574D01*
X158388320Y-61679727D01*
X158545363Y-61914759D01*
X158745241Y-62114637D01*
X158980273Y-62271680D01*
X159241426Y-62379853D01*
X159518665Y-62435000D01*
X159747962Y-62435000D01*
X161047501Y-63734540D01*
X161047500Y-67950560D01*
X155956509Y-62859569D01*
X155926680Y-62823222D01*
X155781643Y-62704194D01*
X155616171Y-62615748D01*
X155436625Y-62561283D01*
X155296687Y-62547500D01*
X155249902Y-62542892D01*
X155203117Y-62547500D01*
X148554539Y-62547500D01*
X147095000Y-61087962D01*
X147095000Y-60858665D01*
X148065000Y-60858665D01*
X148065000Y-61141335D01*
X148120147Y-61418574D01*
X148228320Y-61679727D01*
X148385363Y-61914759D01*
X148585241Y-62114637D01*
X148820273Y-62271680D01*
X149081426Y-62379853D01*
X149358665Y-62435000D01*
X149641335Y-62435000D01*
X149918574Y-62379853D01*
X150179727Y-62271680D01*
X150414759Y-62114637D01*
X150614637Y-61914759D01*
X150771680Y-61679727D01*
X150879853Y-61418574D01*
X150935000Y-61141335D01*
X150935000Y-60858665D01*
X150879853Y-60581426D01*
X150771680Y-60320273D01*
X150614637Y-60085241D01*
X150414759Y-59885363D01*
X150179727Y-59728320D01*
X149918574Y-59620147D01*
X149641335Y-59565000D01*
X149358665Y-59565000D01*
X149081426Y-59620147D01*
X148820273Y-59728320D01*
X148585241Y-59885363D01*
X148385363Y-60085241D01*
X148228320Y-60320273D01*
X148120147Y-60581426D01*
X148065000Y-60858665D01*
X147095000Y-60858665D01*
X147039853Y-60581426D01*
X146931680Y-60320273D01*
X146774637Y-60085241D01*
X146574759Y-59885363D01*
X146339727Y-59728320D01*
X146078574Y-59620147D01*
X145801335Y-59565000D01*
X145518665Y-59565000D01*
X145241426Y-59620147D01*
X144980273Y-59728320D01*
X144745241Y-59885363D01*
X144545363Y-60085241D01*
X144388320Y-60320273D01*
X144280147Y-60581426D01*
X144225000Y-60858665D01*
X144225000Y-61141335D01*
X144280147Y-61418574D01*
X144388320Y-61679727D01*
X144545363Y-61914759D01*
X144745241Y-62114637D01*
X144980273Y-62271680D01*
X145241426Y-62379853D01*
X145518665Y-62435000D01*
X145747962Y-62435000D01*
X146942960Y-63629999D01*
X146364286Y-63629999D01*
X146317501Y-63625391D01*
X146270716Y-63629999D01*
X146130778Y-63643782D01*
X146041005Y-63671014D01*
X145951231Y-63698247D01*
X145868496Y-63742470D01*
X145785760Y-63786693D01*
X145640723Y-63905721D01*
X145610898Y-63942063D01*
X145087961Y-64465000D01*
X144858665Y-64465000D01*
X144581426Y-64520147D01*
X144320273Y-64628320D01*
X144085241Y-64785363D01*
X143923104Y-64947500D01*
X140794538Y-64947500D01*
X136935000Y-61087962D01*
X136935000Y-60858665D01*
X136879853Y-60581426D01*
X136771680Y-60320273D01*
X136614637Y-60085241D01*
X136414759Y-59885363D01*
X136179727Y-59728320D01*
X135918574Y-59620147D01*
X135641335Y-59565000D01*
X135358665Y-59565000D01*
X135081426Y-59620147D01*
X134820273Y-59728320D01*
X134585241Y-59885363D01*
X134385363Y-60085241D01*
X134228320Y-60320273D01*
X134120147Y-60581426D01*
X134065000Y-60858665D01*
X122160000Y-60858665D01*
X122160000Y-59160000D01*
X168340001Y-59160000D01*
X168340000Y-125340000D01*
G37*
%TD.AperFunction*%
D20*
X147707000Y-78373000D02*
X147727000Y-78373000D01*
X147727000Y-78627000D01*
X147707000Y-78627000D01*
X147707000Y-78647000D01*
X147453000Y-78647000D01*
X147453000Y-78627000D01*
X147433000Y-78627000D01*
X147433000Y-78373000D01*
X147453000Y-78373000D01*
X147453000Y-78353000D01*
X147707000Y-78353000D01*
X147707000Y-78373000D01*
%TA.AperFunction,Conductor*%
D21*
G36*
X147707000Y-78373000D02*
G01*
X147727000Y-78373000D01*
X147727000Y-78627000D01*
X147707000Y-78627000D01*
X147707000Y-78647000D01*
X147453000Y-78647000D01*
X147453000Y-78627000D01*
X147433000Y-78627000D01*
X147433000Y-78373000D01*
X147453000Y-78373000D01*
X147453000Y-78353000D01*
X147707000Y-78353000D01*
X147707000Y-78373000D01*
G37*
%TD.AperFunction*%
D20*
X146381068Y-72081101D02*
X146560393Y-72299608D01*
X146778900Y-72478932D01*
X147028193Y-72612182D01*
X147298692Y-72694236D01*
X147580000Y-72721943D01*
X147861309Y-72694236D01*
X148003933Y-72650972D01*
X148590907Y-73237946D01*
X148620732Y-73274288D01*
X148765769Y-73393316D01*
X148931241Y-73481762D01*
X149110787Y-73536227D01*
X149297510Y-73554618D01*
X149344295Y-73550010D01*
X152452874Y-73550010D01*
X154028676Y-75125812D01*
X153958486Y-75163329D01*
X153886903Y-75407298D01*
X154700000Y-76220395D01*
X154714143Y-76206253D01*
X154893748Y-76385858D01*
X154879605Y-76400000D01*
X155692702Y-77213097D01*
X155765002Y-77191883D01*
X155765002Y-77935606D01*
X155614759Y-77785363D01*
X155414131Y-77651308D01*
X155441514Y-77636671D01*
X155513097Y-77392702D01*
X154700000Y-76579605D01*
X153886903Y-77392702D01*
X153932322Y-77547500D01*
X151451812Y-77547500D01*
X151318932Y-77298899D01*
X151139607Y-77080392D01*
X150921100Y-76901068D01*
X150671807Y-76767818D01*
X150401308Y-76685764D01*
X150120000Y-76658057D01*
X149838691Y-76685764D01*
X149696067Y-76729028D01*
X149437551Y-76470512D01*
X153259783Y-76470512D01*
X153301213Y-76750130D01*
X153396397Y-77016292D01*
X153463329Y-77141514D01*
X153707298Y-77213097D01*
X154520395Y-76400000D01*
X153707298Y-75586903D01*
X153463329Y-75658486D01*
X153342429Y-75913996D01*
X153273700Y-76188184D01*
X153259783Y-76470512D01*
X149437551Y-76470512D01*
X145582150Y-72615112D01*
X145591808Y-72612182D01*
X145841101Y-72478932D01*
X146059608Y-72299608D01*
X146238932Y-72081101D01*
X146310000Y-71948142D01*
X146381068Y-72081101D01*
%TA.AperFunction,Conductor*%
D21*
G36*
X146381068Y-72081101D02*
G01*
X146560393Y-72299608D01*
X146778900Y-72478932D01*
X147028193Y-72612182D01*
X147298692Y-72694236D01*
X147580000Y-72721943D01*
X147861309Y-72694236D01*
X148003933Y-72650972D01*
X148590907Y-73237946D01*
X148620732Y-73274288D01*
X148765769Y-73393316D01*
X148931241Y-73481762D01*
X149110787Y-73536227D01*
X149297510Y-73554618D01*
X149344295Y-73550010D01*
X152452874Y-73550010D01*
X154028676Y-75125812D01*
X153958486Y-75163329D01*
X153886903Y-75407298D01*
X154700000Y-76220395D01*
X154714143Y-76206253D01*
X154893748Y-76385858D01*
X154879605Y-76400000D01*
X155692702Y-77213097D01*
X155765002Y-77191883D01*
X155765002Y-77935606D01*
X155614759Y-77785363D01*
X155414131Y-77651308D01*
X155441514Y-77636671D01*
X155513097Y-77392702D01*
X154700000Y-76579605D01*
X153886903Y-77392702D01*
X153932322Y-77547500D01*
X151451812Y-77547500D01*
X151318932Y-77298899D01*
X151139607Y-77080392D01*
X150921100Y-76901068D01*
X150671807Y-76767818D01*
X150401308Y-76685764D01*
X150120000Y-76658057D01*
X149838691Y-76685764D01*
X149696067Y-76729028D01*
X149437551Y-76470512D01*
X153259783Y-76470512D01*
X153301213Y-76750130D01*
X153396397Y-77016292D01*
X153463329Y-77141514D01*
X153707298Y-77213097D01*
X154520395Y-76400000D01*
X153707298Y-75586903D01*
X153463329Y-75658486D01*
X153342429Y-75913996D01*
X153273700Y-76188184D01*
X153259783Y-76470512D01*
X149437551Y-76470512D01*
X145582150Y-72615112D01*
X145591808Y-72612182D01*
X145841101Y-72478932D01*
X146059608Y-72299608D01*
X146238932Y-72081101D01*
X146310000Y-71948142D01*
X146381068Y-72081101D01*
G37*
%TD.AperFunction*%
%TD*%
M02*
