M48
; DRILL file {KiCad 5.1.10-88a1d61d58~90~ubuntu21.04.1} date Wed Sep 22 00:35:59 2021
; FORMAT={-:-/ absolute / inch / decimal}
; #@! TF.CreationDate,2021-09-22T00:35:59+02:00
; #@! TF.GenerationSoftware,Kicad,Pcbnew,5.1.10-88a1d61d58~90~ubuntu21.04.1
; #@! TF.FileFunction,Plated,1,2,PTH
FMAT,2
INCH
T1C0.0315
T2C0.0394
T3C0.0469
T4C0.1260
%
G90
G05
T1
X4.8858Y-4.4488
X4.8858Y-4.5748
X4.8858Y-4.7008
X4.8874Y-4.3228
X5.2283Y-3.7417
X5.2283Y-4.1417
X5.2795Y-3.1772
X5.2795Y-3.5772
X5.2858Y-4.4488
X5.2858Y-4.5748
X5.2858Y-4.7008
X5.2874Y-4.3228
X5.2992Y-2.6063
X5.3346Y-2.4016
X5.3386Y-2.9016
X5.3386Y-3.0
X5.3543Y-3.8378
X5.3543Y-4.1378
X5.3976Y-2.6063
X5.4449Y-4.4134
X5.4724Y-3.8386
X5.4724Y-4.1386
X5.6102Y-2.7906
X5.6102Y-3.0906
X5.626Y-3.6496
X5.6417Y-4.4134
X5.6496Y-3.8339
X5.6496Y-4.1339
X5.7087Y-2.5945
X5.7102Y-2.7906
X5.7102Y-3.0906
X5.7244Y-3.6496
X5.7346Y-2.4016
X5.7496Y-3.8339
X5.7496Y-4.1339
X5.8071Y-2.5945
X5.8102Y-2.7906
X5.8102Y-3.0906
X5.8496Y-3.8339
X5.8496Y-4.1339
X5.8504Y-3.2575
X5.8504Y-3.6575
X5.8701Y-4.4134
X5.8858Y-2.4016
X5.9102Y-2.7906
X5.9102Y-3.0906
X5.9496Y-3.8339
X5.9496Y-4.1339
X6.0354Y-2.5984
X6.0669Y-4.4134
X6.0906Y-3.0079
X6.0906Y-3.1063
X6.1157Y-4.685
X6.1181Y-3.4134
X6.1181Y-3.5118
X6.1339Y-2.5984
X6.1693Y-4.189
X6.189Y-3.6575
X6.189Y-4.0575
X6.2677Y-4.189
X6.2858Y-2.4016
X6.378Y-4.1488
X6.378Y-4.4488
X6.4961Y-4.1496
X6.4961Y-4.4496
X6.5157Y-4.685
T2
X6.378Y-2.815
X6.378Y-2.915
X6.378Y-3.015
X6.378Y-3.115
X6.378Y-3.215
X6.478Y-2.815
X6.478Y-2.915
X6.478Y-3.015
X6.478Y-3.115
X6.478Y-3.215
T3
X4.9803Y-2.7913
X4.9803Y-2.8913
X4.9803Y-3.1102
X4.9803Y-3.2102
X4.9803Y-3.3102
X4.9803Y-3.5669
X4.9803Y-3.6669
X4.9803Y-3.9764
X4.9803Y-4.0764
X4.9803Y-4.1764
X5.6614Y-4.7638
X5.7614Y-4.7638
X5.8614Y-4.7638
X6.4724Y-3.8843
X6.4724Y-3.9843
T4
X4.9016Y-2.4213
X4.9016Y-4.8425
X6.5354Y-2.4213
X6.5354Y-4.8425
T0
M30
