%TF.GenerationSoftware,KiCad,Pcbnew,5.1.10-88a1d61d58~90~ubuntu21.04.1*%
%TF.CreationDate,2021-09-22T00:36:00+02:00*%
%TF.ProjectId,microphone-preamp,6d696372-6f70-4686-9f6e-652d70726561,v1.0.0*%
%TF.SameCoordinates,Original*%
%TF.FileFunction,Copper,L1,Top*%
%TF.FilePolarity,Positive*%
%FSLAX46Y46*%
G04 Gerber Fmt 4.6, Leading zero omitted, Abs format (unit mm)*
G04 Created by KiCad (PCBNEW 5.1.10-88a1d61d58~90~ubuntu21.04.1) date 2021-09-22 00:36:00*
%MOMM*%
%LPD*%
G01*
G04 APERTURE LIST*
%TA.AperFunction,ComponentPad*%
%ADD10C,1.600000*%
%TD*%
%TA.AperFunction,ComponentPad*%
%ADD11R,1.600000X1.600000*%
%TD*%
%TA.AperFunction,ComponentPad*%
%ADD12O,2.190000X1.740000*%
%TD*%
%TA.AperFunction,ComponentPad*%
%ADD13O,1.600000X1.600000*%
%TD*%
%TA.AperFunction,ComponentPad*%
%ADD14C,1.700000*%
%TD*%
%TA.AperFunction,ComponentPad*%
%ADD15O,1.600000X2.400000*%
%TD*%
%TA.AperFunction,ComponentPad*%
%ADD16R,1.600000X2.400000*%
%TD*%
%TA.AperFunction,ComponentPad*%
%ADD17O,1.740000X2.190000*%
%TD*%
%TA.AperFunction,ViaPad*%
%ADD18C,3.500000*%
%TD*%
%TA.AperFunction,Conductor*%
%ADD19C,0.635000*%
%TD*%
%TA.AperFunction,Conductor*%
%ADD20C,0.254000*%
%TD*%
%TA.AperFunction,Conductor*%
%ADD21C,0.100000*%
%TD*%
G04 APERTURE END LIST*
D10*
%TO.P,C2,2*%
%TO.N,GND*%
X135600000Y-73700000D03*
D11*
%TO.P,C2,1*%
%TO.N,Net-(C2-Pad1)*%
X135600000Y-76200000D03*
%TD*%
D10*
%TO.P,C5,2*%
%TO.N,Net-(C5-Pad2)*%
X143300000Y-112100000D03*
%TO.P,C5,1*%
%TO.N,Net-(C5-Pad1)*%
X138300000Y-112100000D03*
%TD*%
%TO.P,C4,2*%
%TO.N,Net-(C4-Pad2)*%
X154100000Y-112100000D03*
%TO.P,C4,1*%
%TO.N,Net-(C4-Pad1)*%
X149100000Y-112100000D03*
%TD*%
D12*
%TO.P,J2,3*%
%TO.N,+12V*%
X126500000Y-84080000D03*
%TO.P,J2,2*%
%TO.N,Net-(C2-Pad1)*%
X126500000Y-81540000D03*
%TO.P,J2,1*%
%TO.N,GND*%
%TA.AperFunction,ComponentPad*%
G36*
G01*
X125654999Y-78130000D02*
X127345001Y-78130000D01*
G75*
G02*
X127595000Y-78379999I0J-249999D01*
G01*
X127595000Y-79620001D01*
G75*
G02*
X127345001Y-79870000I-249999J0D01*
G01*
X125654999Y-79870000D01*
G75*
G02*
X125405000Y-79620001I0J249999D01*
G01*
X125405000Y-78379999D01*
G75*
G02*
X125654999Y-78130000I249999J0D01*
G01*
G37*
%TD.AperFunction*%
%TD*%
D13*
%TO.P,R11,2*%
%TO.N,Net-(J7-Pad10)*%
X145660000Y-61000000D03*
D10*
%TO.P,R11,1*%
%TO.N,+12V*%
X135500000Y-61000000D03*
%TD*%
D13*
%TO.P,R10,2*%
%TO.N,Net-(J7-Pad1)*%
X159660000Y-61000000D03*
D10*
%TO.P,R10,1*%
%TO.N,-12V*%
X149500000Y-61000000D03*
%TD*%
D14*
%TO.P,J7,10*%
%TO.N,Net-(J7-Pad10)*%
X164540000Y-81660000D03*
%TO.P,J7,8*%
%TO.N,GND*%
X164540000Y-79120000D03*
%TO.P,J7,6*%
X164540000Y-76580000D03*
%TO.P,J7,4*%
X164540000Y-74040000D03*
%TO.P,J7,2*%
%TO.N,Net-(J7-Pad1)*%
X164540000Y-71500000D03*
%TO.P,J7,9*%
%TO.N,Net-(J7-Pad10)*%
X162000000Y-81660000D03*
%TO.P,J7,7*%
%TO.N,GND*%
X162000000Y-79120000D03*
%TO.P,J7,5*%
X162000000Y-76580000D03*
%TO.P,J7,3*%
X162000000Y-74040000D03*
%TO.P,J7,1*%
%TO.N,Net-(J7-Pad1)*%
%TA.AperFunction,ComponentPad*%
G36*
G01*
X161150000Y-72100000D02*
X161150000Y-70900000D01*
G75*
G02*
X161400000Y-70650000I250000J0D01*
G01*
X162600000Y-70650000D01*
G75*
G02*
X162850000Y-70900000I0J-250000D01*
G01*
X162850000Y-72100000D01*
G75*
G02*
X162600000Y-72350000I-250000J0D01*
G01*
X161400000Y-72350000D01*
G75*
G02*
X161150000Y-72100000I0J250000D01*
G01*
G37*
%TD.AperFunction*%
%TD*%
D10*
%TO.P,C10,2*%
%TO.N,GND*%
X155800000Y-66000000D03*
D11*
%TO.P,C10,1*%
%TO.N,+12V*%
X153300000Y-66000000D03*
%TD*%
D10*
%TO.P,C9,2*%
%TO.N,-12V*%
X137100000Y-66200000D03*
D11*
%TO.P,C9,1*%
%TO.N,GND*%
X134600000Y-66200000D03*
%TD*%
D15*
%TO.P,U2,8*%
%TO.N,Net-(U2-Pad8)*%
X142500000Y-70880000D03*
%TO.P,U2,4*%
%TO.N,-12V*%
X150120000Y-78500000D03*
%TO.P,U2,7*%
%TO.N,+12V*%
X145040000Y-70880000D03*
%TO.P,U2,3*%
%TO.N,GND*%
X147580000Y-78500000D03*
%TO.P,U2,6*%
%TO.N,Net-(C8-Pad2)*%
X147580000Y-70880000D03*
%TO.P,U2,2*%
%TO.N,Net-(C8-Pad1)*%
X145040000Y-78500000D03*
%TO.P,U2,5*%
%TO.N,Net-(U2-Pad5)*%
X150120000Y-70880000D03*
D16*
%TO.P,U2,1*%
%TO.N,Net-(U2-Pad1)*%
X142500000Y-78500000D03*
%TD*%
D15*
%TO.P,U1,8*%
%TO.N,GAIN2*%
X143500000Y-97380000D03*
%TO.P,U1,4*%
%TO.N,-12V*%
X151120000Y-105000000D03*
%TO.P,U1,7*%
%TO.N,+12V*%
X146040000Y-97380000D03*
%TO.P,U1,3*%
%TO.N,Net-(C4-Pad2)*%
X148580000Y-105000000D03*
%TO.P,U1,6*%
%TO.N,Net-(R8-Pad1)*%
X148580000Y-97380000D03*
%TO.P,U1,2*%
%TO.N,Net-(C5-Pad2)*%
X146040000Y-105000000D03*
%TO.P,U1,5*%
%TO.N,Net-(C8-Pad2)*%
X151120000Y-97380000D03*
D16*
%TO.P,U1,1*%
%TO.N,GAIN1*%
X143500000Y-105000000D03*
%TD*%
D13*
%TO.P,R9,2*%
%TO.N,Net-(J6-Pad2)*%
X157200000Y-103060000D03*
D10*
%TO.P,R9,1*%
%TO.N,Net-(R8-Pad1)*%
X157200000Y-92900000D03*
%TD*%
D13*
%TO.P,R8,2*%
%TO.N,Net-(C8-Pad1)*%
X148600000Y-82740000D03*
D10*
%TO.P,R8,1*%
%TO.N,Net-(R8-Pad1)*%
X148600000Y-92900000D03*
%TD*%
D13*
%TO.P,R7,2*%
%TO.N,Net-(J5-Pad2)*%
X124140000Y-109800000D03*
D10*
%TO.P,R7,1*%
%TO.N,GAIN1*%
X134300000Y-109800000D03*
%TD*%
D13*
%TO.P,R6,2*%
%TO.N,GND*%
X155340000Y-119000000D03*
D10*
%TO.P,R6,1*%
%TO.N,Net-(C4-Pad2)*%
X165500000Y-119000000D03*
%TD*%
D13*
%TO.P,R5,2*%
%TO.N,GND*%
X132800000Y-95040000D03*
D10*
%TO.P,R5,1*%
%TO.N,Net-(C5-Pad2)*%
X132800000Y-105200000D03*
%TD*%
D13*
%TO.P,R4,2*%
%TO.N,GND*%
X134260000Y-113000000D03*
D10*
%TO.P,R4,1*%
%TO.N,Net-(J4-Pad3)*%
X124100000Y-113000000D03*
%TD*%
D13*
%TO.P,R3,2*%
%TO.N,Net-(C5-Pad1)*%
X134260000Y-119400000D03*
D10*
%TO.P,R3,1*%
%TO.N,Net-(J4-Pad2)*%
X124100000Y-119400000D03*
%TD*%
D13*
%TO.P,R2,2*%
%TO.N,Net-(C4-Pad1)*%
X134260000Y-116200000D03*
D10*
%TO.P,R2,1*%
%TO.N,Net-(J4-Pad2)*%
X124100000Y-116200000D03*
%TD*%
D13*
%TO.P,R1,2*%
%TO.N,Net-(J4-Pad2)*%
X134100000Y-90860000D03*
D10*
%TO.P,R1,1*%
%TO.N,Net-(J1-Pad2)*%
X134100000Y-80700000D03*
%TD*%
D12*
%TO.P,J6,2*%
%TO.N,Net-(J6-Pad2)*%
X164400000Y-98660000D03*
%TO.P,J6,1*%
%TO.N,GND*%
%TA.AperFunction,ComponentPad*%
G36*
G01*
X165245001Y-102070000D02*
X163554999Y-102070000D01*
G75*
G02*
X163305000Y-101820001I0J249999D01*
G01*
X163305000Y-100579999D01*
G75*
G02*
X163554999Y-100330000I249999J0D01*
G01*
X165245001Y-100330000D01*
G75*
G02*
X165495000Y-100579999I0J-249999D01*
G01*
X165495000Y-101820001D01*
G75*
G02*
X165245001Y-102070000I-249999J0D01*
G01*
G37*
%TD.AperFunction*%
%TD*%
%TO.P,J5,2*%
%TO.N,Net-(J5-Pad2)*%
X126500000Y-93140000D03*
%TO.P,J5,1*%
%TO.N,GAIN2*%
%TA.AperFunction,ComponentPad*%
G36*
G01*
X125654999Y-89730000D02*
X127345001Y-89730000D01*
G75*
G02*
X127595000Y-89979999I0J-249999D01*
G01*
X127595000Y-91220001D01*
G75*
G02*
X127345001Y-91470000I-249999J0D01*
G01*
X125654999Y-91470000D01*
G75*
G02*
X125405000Y-91220001I0J249999D01*
G01*
X125405000Y-89979999D01*
G75*
G02*
X125654999Y-89730000I249999J0D01*
G01*
G37*
%TD.AperFunction*%
%TD*%
%TO.P,J4,3*%
%TO.N,Net-(J4-Pad3)*%
X126500000Y-106080000D03*
%TO.P,J4,2*%
%TO.N,Net-(J4-Pad2)*%
X126500000Y-103540000D03*
%TO.P,J4,1*%
%TO.N,Net-(C2-Pad1)*%
%TA.AperFunction,ComponentPad*%
G36*
G01*
X125654999Y-100130000D02*
X127345001Y-100130000D01*
G75*
G02*
X127595000Y-100379999I0J-249999D01*
G01*
X127595000Y-101620001D01*
G75*
G02*
X127345001Y-101870000I-249999J0D01*
G01*
X125654999Y-101870000D01*
G75*
G02*
X125405000Y-101620001I0J249999D01*
G01*
X125405000Y-100379999D01*
G75*
G02*
X125654999Y-100130000I249999J0D01*
G01*
G37*
%TD.AperFunction*%
%TD*%
D17*
%TO.P,J3,3*%
%TO.N,Net-(C4-Pad1)*%
X148880000Y-121000000D03*
%TO.P,J3,2*%
%TO.N,Net-(C5-Pad1)*%
X146340000Y-121000000D03*
%TO.P,J3,1*%
%TO.N,GND*%
%TA.AperFunction,ComponentPad*%
G36*
G01*
X142930000Y-121845001D02*
X142930000Y-120154999D01*
G75*
G02*
X143179999Y-119905000I249999J0D01*
G01*
X144420001Y-119905000D01*
G75*
G02*
X144670000Y-120154999I0J-249999D01*
G01*
X144670000Y-121845001D01*
G75*
G02*
X144420001Y-122095000I-249999J0D01*
G01*
X143179999Y-122095000D01*
G75*
G02*
X142930000Y-121845001I0J249999D01*
G01*
G37*
%TD.AperFunction*%
%TD*%
D12*
%TO.P,J1,2*%
%TO.N,Net-(J1-Pad2)*%
X126500000Y-73440000D03*
%TO.P,J1,1*%
%TO.N,GND*%
%TA.AperFunction,ComponentPad*%
G36*
G01*
X125654999Y-70030000D02*
X127345001Y-70030000D01*
G75*
G02*
X127595000Y-70279999I0J-249999D01*
G01*
X127595000Y-71520001D01*
G75*
G02*
X127345001Y-71770000I-249999J0D01*
G01*
X125654999Y-71770000D01*
G75*
G02*
X125405000Y-71520001I0J249999D01*
G01*
X125405000Y-70279999D01*
G75*
G02*
X125654999Y-70030000I249999J0D01*
G01*
G37*
%TD.AperFunction*%
%TD*%
D13*
%TO.P,D4,2*%
%TO.N,-12V*%
X136000000Y-97480000D03*
D11*
%TO.P,D4,1*%
%TO.N,Net-(C5-Pad2)*%
X136000000Y-105100000D03*
%TD*%
D13*
%TO.P,D3,2*%
%TO.N,Net-(C4-Pad2)*%
X165000000Y-113020000D03*
D11*
%TO.P,D3,1*%
%TO.N,+12V*%
X165000000Y-105400000D03*
%TD*%
D13*
%TO.P,D2,2*%
%TO.N,Net-(C5-Pad2)*%
X139000000Y-105120000D03*
D11*
%TO.P,D2,1*%
%TO.N,+12V*%
X139000000Y-97500000D03*
%TD*%
D13*
%TO.P,D1,2*%
%TO.N,-12V*%
X162000000Y-105380000D03*
D11*
%TO.P,D1,1*%
%TO.N,Net-(C4-Pad2)*%
X162000000Y-113000000D03*
%TD*%
D10*
%TO.P,C8,2*%
%TO.N,Net-(C8-Pad2)*%
X155400000Y-89200000D03*
%TO.P,C8,1*%
%TO.N,Net-(C8-Pad1)*%
X155400000Y-86700000D03*
%TD*%
%TO.P,C7,2*%
%TO.N,GND*%
X154700000Y-76400000D03*
%TO.P,C7,1*%
%TO.N,-12V*%
X154700000Y-78900000D03*
%TD*%
%TO.P,C6,2*%
%TO.N,GND*%
X159200000Y-106400000D03*
%TO.P,C6,1*%
%TO.N,-12V*%
X156700000Y-106400000D03*
%TD*%
%TO.P,C3,2*%
%TO.N,GND*%
X147500000Y-65900000D03*
%TO.P,C3,1*%
%TO.N,+12V*%
X145000000Y-65900000D03*
%TD*%
%TO.P,C1,2*%
%TO.N,GND*%
X142900000Y-92700000D03*
%TO.P,C1,1*%
%TO.N,+12V*%
X145400000Y-92700000D03*
%TD*%
D18*
%TO.N,GND*%
X166000000Y-61500000D03*
X124500000Y-61500000D03*
X124500000Y-123000000D03*
X166000000Y-123000000D03*
%TD*%
D19*
%TO.N,+12V*%
X141182499Y-88482499D02*
X145400000Y-92700000D01*
X145040000Y-70880000D02*
X141182499Y-74737501D01*
X126500000Y-84080000D02*
X140944998Y-84080000D01*
X140944998Y-84080000D02*
X141182499Y-84317501D01*
X141182499Y-84317501D02*
X141182499Y-88482499D01*
X141182499Y-74737501D02*
X141182499Y-84317501D01*
%TO.N,Net-(C2-Pad1)*%
X130260000Y-81540000D02*
X135600000Y-76200000D01*
X126500000Y-81540000D02*
X130260000Y-81540000D01*
%TO.N,Net-(C4-Pad1)*%
X145000000Y-116200000D02*
X134260000Y-116200000D01*
X149100000Y-112100000D02*
X145000000Y-116200000D01*
%TO.N,-12V*%
X142750098Y-66200000D02*
X137100000Y-66200000D01*
X147950098Y-61000000D02*
X142750098Y-66200000D01*
X149500000Y-61000000D02*
X147950098Y-61000000D01*
X152437510Y-103682490D02*
X151120000Y-105000000D01*
X152437510Y-95712588D02*
X152437510Y-103682490D01*
X156717501Y-91432597D02*
X152437510Y-95712588D01*
X156717501Y-83662501D02*
X156717501Y-91432597D01*
X151555000Y-78500000D02*
X156717501Y-83662501D01*
X150120000Y-78500000D02*
X151555000Y-78500000D01*
%TO.N,Net-(C8-Pad2)*%
X151120000Y-93480000D02*
X155400000Y-89200000D01*
X151120000Y-97380000D02*
X151120000Y-93480000D01*
%TO.N,Net-(J4-Pad2)*%
X131482499Y-93477501D02*
X134100000Y-90860000D01*
X131482499Y-98567927D02*
X131482499Y-93477501D01*
X126510426Y-103540000D02*
X131482499Y-98567927D01*
X126500000Y-103540000D02*
X126510426Y-103540000D01*
%TO.N,Net-(J5-Pad2)*%
X124140000Y-95500000D02*
X126500000Y-93140000D01*
X124140000Y-109800000D02*
X124140000Y-95500000D01*
%TO.N,GAIN2*%
X127557501Y-89542499D02*
X126500000Y-90600000D01*
X135662499Y-89542499D02*
X127557501Y-89542499D01*
X143500000Y-97380000D02*
X135662499Y-89542499D01*
%TD*%
D20*
%TO.N,GND*%
X168340000Y-125340000D02*
X122160000Y-125340000D01*
X122160000Y-122095000D01*
X142291928Y-122095000D01*
X142304188Y-122219482D01*
X142340498Y-122339180D01*
X142399463Y-122449494D01*
X142478815Y-122546185D01*
X142575506Y-122625537D01*
X142685820Y-122684502D01*
X142805518Y-122720812D01*
X142930000Y-122733072D01*
X143514250Y-122730000D01*
X143673000Y-122571250D01*
X143673000Y-121127000D01*
X142453750Y-121127000D01*
X142295000Y-121285750D01*
X142291928Y-122095000D01*
X122160000Y-122095000D01*
X122160000Y-119258665D01*
X122665000Y-119258665D01*
X122665000Y-119541335D01*
X122720147Y-119818574D01*
X122828320Y-120079727D01*
X122985363Y-120314759D01*
X123185241Y-120514637D01*
X123420273Y-120671680D01*
X123681426Y-120779853D01*
X123958665Y-120835000D01*
X124241335Y-120835000D01*
X124518574Y-120779853D01*
X124779727Y-120671680D01*
X125014759Y-120514637D01*
X125214637Y-120314759D01*
X125371680Y-120079727D01*
X125479853Y-119818574D01*
X125535000Y-119541335D01*
X125535000Y-119258665D01*
X132825000Y-119258665D01*
X132825000Y-119541335D01*
X132880147Y-119818574D01*
X132988320Y-120079727D01*
X133145363Y-120314759D01*
X133345241Y-120514637D01*
X133580273Y-120671680D01*
X133841426Y-120779853D01*
X134118665Y-120835000D01*
X134401335Y-120835000D01*
X134678574Y-120779853D01*
X134939727Y-120671680D01*
X135174759Y-120514637D01*
X135374637Y-120314759D01*
X135531680Y-120079727D01*
X135604054Y-119905000D01*
X142291928Y-119905000D01*
X142295000Y-120714250D01*
X142453750Y-120873000D01*
X143673000Y-120873000D01*
X143673000Y-119428750D01*
X143927000Y-119428750D01*
X143927000Y-120873000D01*
X143947000Y-120873000D01*
X143947000Y-121127000D01*
X143927000Y-121127000D01*
X143927000Y-122571250D01*
X144085750Y-122730000D01*
X144670000Y-122733072D01*
X144794482Y-122720812D01*
X144914180Y-122684502D01*
X145024494Y-122625537D01*
X145121185Y-122546185D01*
X145200537Y-122449494D01*
X145259502Y-122339180D01*
X145272615Y-122295953D01*
X145499822Y-122482417D01*
X145761276Y-122622166D01*
X146044969Y-122708224D01*
X146340000Y-122737282D01*
X146635032Y-122708224D01*
X146918725Y-122622166D01*
X147180179Y-122482417D01*
X147409345Y-122294345D01*
X147597417Y-122065179D01*
X147610000Y-122041638D01*
X147622583Y-122065179D01*
X147810655Y-122294345D01*
X148039822Y-122482417D01*
X148301276Y-122622166D01*
X148584969Y-122708224D01*
X148880000Y-122737282D01*
X149175032Y-122708224D01*
X149458725Y-122622166D01*
X149720179Y-122482417D01*
X149949345Y-122294345D01*
X150137417Y-122065179D01*
X150277166Y-121803724D01*
X150363224Y-121520031D01*
X150385000Y-121298935D01*
X150385000Y-120701064D01*
X150363224Y-120479968D01*
X150277166Y-120196275D01*
X150137417Y-119934821D01*
X149949345Y-119705655D01*
X149720178Y-119517583D01*
X149458724Y-119377834D01*
X149363801Y-119349039D01*
X153948096Y-119349039D01*
X153988754Y-119483087D01*
X154108963Y-119737420D01*
X154276481Y-119963414D01*
X154484869Y-120152385D01*
X154726119Y-120297070D01*
X154990960Y-120391909D01*
X155213000Y-120270624D01*
X155213000Y-119127000D01*
X155467000Y-119127000D01*
X155467000Y-120270624D01*
X155689040Y-120391909D01*
X155953881Y-120297070D01*
X156195131Y-120152385D01*
X156403519Y-119963414D01*
X156571037Y-119737420D01*
X156691246Y-119483087D01*
X156731904Y-119349039D01*
X156609915Y-119127000D01*
X155467000Y-119127000D01*
X155213000Y-119127000D01*
X154070085Y-119127000D01*
X153948096Y-119349039D01*
X149363801Y-119349039D01*
X149175031Y-119291776D01*
X148880000Y-119262718D01*
X148584968Y-119291776D01*
X148301275Y-119377834D01*
X148039821Y-119517583D01*
X147810655Y-119705655D01*
X147622583Y-119934822D01*
X147610000Y-119958363D01*
X147597417Y-119934821D01*
X147409345Y-119705655D01*
X147180178Y-119517583D01*
X146918724Y-119377834D01*
X146635031Y-119291776D01*
X146340000Y-119262718D01*
X146044968Y-119291776D01*
X145761275Y-119377834D01*
X145499821Y-119517583D01*
X145272615Y-119704047D01*
X145259502Y-119660820D01*
X145200537Y-119550506D01*
X145121185Y-119453815D01*
X145024494Y-119374463D01*
X144914180Y-119315498D01*
X144794482Y-119279188D01*
X144670000Y-119266928D01*
X144085750Y-119270000D01*
X143927000Y-119428750D01*
X143673000Y-119428750D01*
X143514250Y-119270000D01*
X142930000Y-119266928D01*
X142805518Y-119279188D01*
X142685820Y-119315498D01*
X142575506Y-119374463D01*
X142478815Y-119453815D01*
X142399463Y-119550506D01*
X142340498Y-119660820D01*
X142304188Y-119780518D01*
X142291928Y-119905000D01*
X135604054Y-119905000D01*
X135639853Y-119818574D01*
X135695000Y-119541335D01*
X135695000Y-119258665D01*
X135639853Y-118981426D01*
X135531680Y-118720273D01*
X135485368Y-118650961D01*
X153948096Y-118650961D01*
X154070085Y-118873000D01*
X155213000Y-118873000D01*
X155213000Y-117729376D01*
X155467000Y-117729376D01*
X155467000Y-118873000D01*
X156609915Y-118873000D01*
X156617790Y-118858665D01*
X164065000Y-118858665D01*
X164065000Y-119141335D01*
X164120147Y-119418574D01*
X164228320Y-119679727D01*
X164385363Y-119914759D01*
X164585241Y-120114637D01*
X164820273Y-120271680D01*
X165081426Y-120379853D01*
X165358665Y-120435000D01*
X165641335Y-120435000D01*
X165918574Y-120379853D01*
X166179727Y-120271680D01*
X166414759Y-120114637D01*
X166614637Y-119914759D01*
X166771680Y-119679727D01*
X166879853Y-119418574D01*
X166935000Y-119141335D01*
X166935000Y-118858665D01*
X166879853Y-118581426D01*
X166771680Y-118320273D01*
X166614637Y-118085241D01*
X166414759Y-117885363D01*
X166179727Y-117728320D01*
X165918574Y-117620147D01*
X165641335Y-117565000D01*
X165358665Y-117565000D01*
X165081426Y-117620147D01*
X164820273Y-117728320D01*
X164585241Y-117885363D01*
X164385363Y-118085241D01*
X164228320Y-118320273D01*
X164120147Y-118581426D01*
X164065000Y-118858665D01*
X156617790Y-118858665D01*
X156731904Y-118650961D01*
X156691246Y-118516913D01*
X156571037Y-118262580D01*
X156403519Y-118036586D01*
X156195131Y-117847615D01*
X155953881Y-117702930D01*
X155689040Y-117608091D01*
X155467000Y-117729376D01*
X155213000Y-117729376D01*
X154990960Y-117608091D01*
X154726119Y-117702930D01*
X154484869Y-117847615D01*
X154276481Y-118036586D01*
X154108963Y-118262580D01*
X153988754Y-118516913D01*
X153948096Y-118650961D01*
X135485368Y-118650961D01*
X135374637Y-118485241D01*
X135174759Y-118285363D01*
X134939727Y-118128320D01*
X134678574Y-118020147D01*
X134401335Y-117965000D01*
X134118665Y-117965000D01*
X133841426Y-118020147D01*
X133580273Y-118128320D01*
X133345241Y-118285363D01*
X133145363Y-118485241D01*
X132988320Y-118720273D01*
X132880147Y-118981426D01*
X132825000Y-119258665D01*
X125535000Y-119258665D01*
X125479853Y-118981426D01*
X125371680Y-118720273D01*
X125214637Y-118485241D01*
X125014759Y-118285363D01*
X124779727Y-118128320D01*
X124518574Y-118020147D01*
X124241335Y-117965000D01*
X123958665Y-117965000D01*
X123681426Y-118020147D01*
X123420273Y-118128320D01*
X123185241Y-118285363D01*
X122985363Y-118485241D01*
X122828320Y-118720273D01*
X122720147Y-118981426D01*
X122665000Y-119258665D01*
X122160000Y-119258665D01*
X122160000Y-116058665D01*
X122665000Y-116058665D01*
X122665000Y-116341335D01*
X122720147Y-116618574D01*
X122828320Y-116879727D01*
X122985363Y-117114759D01*
X123185241Y-117314637D01*
X123420273Y-117471680D01*
X123681426Y-117579853D01*
X123958665Y-117635000D01*
X124241335Y-117635000D01*
X124518574Y-117579853D01*
X124779727Y-117471680D01*
X125014759Y-117314637D01*
X125214637Y-117114759D01*
X125371680Y-116879727D01*
X125479853Y-116618574D01*
X125535000Y-116341335D01*
X125535000Y-116058665D01*
X132825000Y-116058665D01*
X132825000Y-116341335D01*
X132880147Y-116618574D01*
X132988320Y-116879727D01*
X133145363Y-117114759D01*
X133345241Y-117314637D01*
X133580273Y-117471680D01*
X133841426Y-117579853D01*
X134118665Y-117635000D01*
X134401335Y-117635000D01*
X134678574Y-117579853D01*
X134939727Y-117471680D01*
X135174759Y-117314637D01*
X135336896Y-117152500D01*
X144953215Y-117152500D01*
X145000000Y-117157108D01*
X145046785Y-117152500D01*
X145186723Y-117138717D01*
X145366269Y-117084252D01*
X145531741Y-116995806D01*
X145676778Y-116876778D01*
X145706607Y-116840431D01*
X149012038Y-113535000D01*
X149241335Y-113535000D01*
X149518574Y-113479853D01*
X149779727Y-113371680D01*
X150014759Y-113214637D01*
X150214637Y-113014759D01*
X150371680Y-112779727D01*
X150479853Y-112518574D01*
X150535000Y-112241335D01*
X150535000Y-111958665D01*
X152665000Y-111958665D01*
X152665000Y-112241335D01*
X152720147Y-112518574D01*
X152828320Y-112779727D01*
X152985363Y-113014759D01*
X153185241Y-113214637D01*
X153420273Y-113371680D01*
X153681426Y-113479853D01*
X153958665Y-113535000D01*
X154241335Y-113535000D01*
X154518574Y-113479853D01*
X154779727Y-113371680D01*
X155014759Y-113214637D01*
X155214637Y-113014759D01*
X155371680Y-112779727D01*
X155479853Y-112518574D01*
X155535000Y-112241335D01*
X155535000Y-112200000D01*
X160561928Y-112200000D01*
X160561928Y-113800000D01*
X160574188Y-113924482D01*
X160610498Y-114044180D01*
X160669463Y-114154494D01*
X160748815Y-114251185D01*
X160845506Y-114330537D01*
X160955820Y-114389502D01*
X161075518Y-114425812D01*
X161200000Y-114438072D01*
X162800000Y-114438072D01*
X162924482Y-114425812D01*
X163044180Y-114389502D01*
X163154494Y-114330537D01*
X163251185Y-114251185D01*
X163330537Y-114154494D01*
X163389502Y-114044180D01*
X163425812Y-113924482D01*
X163438072Y-113800000D01*
X163438072Y-112878665D01*
X163565000Y-112878665D01*
X163565000Y-113161335D01*
X163620147Y-113438574D01*
X163728320Y-113699727D01*
X163885363Y-113934759D01*
X164085241Y-114134637D01*
X164320273Y-114291680D01*
X164581426Y-114399853D01*
X164858665Y-114455000D01*
X165141335Y-114455000D01*
X165418574Y-114399853D01*
X165679727Y-114291680D01*
X165914759Y-114134637D01*
X166114637Y-113934759D01*
X166271680Y-113699727D01*
X166379853Y-113438574D01*
X166435000Y-113161335D01*
X166435000Y-112878665D01*
X166379853Y-112601426D01*
X166271680Y-112340273D01*
X166114637Y-112105241D01*
X165914759Y-111905363D01*
X165679727Y-111748320D01*
X165418574Y-111640147D01*
X165141335Y-111585000D01*
X164858665Y-111585000D01*
X164581426Y-111640147D01*
X164320273Y-111748320D01*
X164085241Y-111905363D01*
X163885363Y-112105241D01*
X163728320Y-112340273D01*
X163620147Y-112601426D01*
X163565000Y-112878665D01*
X163438072Y-112878665D01*
X163438072Y-112200000D01*
X163425812Y-112075518D01*
X163389502Y-111955820D01*
X163330537Y-111845506D01*
X163251185Y-111748815D01*
X163154494Y-111669463D01*
X163044180Y-111610498D01*
X162924482Y-111574188D01*
X162800000Y-111561928D01*
X161200000Y-111561928D01*
X161075518Y-111574188D01*
X160955820Y-111610498D01*
X160845506Y-111669463D01*
X160748815Y-111748815D01*
X160669463Y-111845506D01*
X160610498Y-111955820D01*
X160574188Y-112075518D01*
X160561928Y-112200000D01*
X155535000Y-112200000D01*
X155535000Y-111958665D01*
X155479853Y-111681426D01*
X155371680Y-111420273D01*
X155214637Y-111185241D01*
X155014759Y-110985363D01*
X154779727Y-110828320D01*
X154518574Y-110720147D01*
X154241335Y-110665000D01*
X153958665Y-110665000D01*
X153681426Y-110720147D01*
X153420273Y-110828320D01*
X153185241Y-110985363D01*
X152985363Y-111185241D01*
X152828320Y-111420273D01*
X152720147Y-111681426D01*
X152665000Y-111958665D01*
X150535000Y-111958665D01*
X150479853Y-111681426D01*
X150371680Y-111420273D01*
X150214637Y-111185241D01*
X150014759Y-110985363D01*
X149779727Y-110828320D01*
X149518574Y-110720147D01*
X149241335Y-110665000D01*
X148958665Y-110665000D01*
X148681426Y-110720147D01*
X148420273Y-110828320D01*
X148185241Y-110985363D01*
X147985363Y-111185241D01*
X147828320Y-111420273D01*
X147720147Y-111681426D01*
X147665000Y-111958665D01*
X147665000Y-112187962D01*
X144605462Y-115247500D01*
X135336896Y-115247500D01*
X135174759Y-115085363D01*
X134939727Y-114928320D01*
X134678574Y-114820147D01*
X134401335Y-114765000D01*
X134118665Y-114765000D01*
X133841426Y-114820147D01*
X133580273Y-114928320D01*
X133345241Y-115085363D01*
X133145363Y-115285241D01*
X132988320Y-115520273D01*
X132880147Y-115781426D01*
X132825000Y-116058665D01*
X125535000Y-116058665D01*
X125479853Y-115781426D01*
X125371680Y-115520273D01*
X125214637Y-115285241D01*
X125014759Y-115085363D01*
X124779727Y-114928320D01*
X124518574Y-114820147D01*
X124241335Y-114765000D01*
X123958665Y-114765000D01*
X123681426Y-114820147D01*
X123420273Y-114928320D01*
X123185241Y-115085363D01*
X122985363Y-115285241D01*
X122828320Y-115520273D01*
X122720147Y-115781426D01*
X122665000Y-116058665D01*
X122160000Y-116058665D01*
X122160000Y-112858665D01*
X122665000Y-112858665D01*
X122665000Y-113141335D01*
X122720147Y-113418574D01*
X122828320Y-113679727D01*
X122985363Y-113914759D01*
X123185241Y-114114637D01*
X123420273Y-114271680D01*
X123681426Y-114379853D01*
X123958665Y-114435000D01*
X124241335Y-114435000D01*
X124518574Y-114379853D01*
X124779727Y-114271680D01*
X125014759Y-114114637D01*
X125214637Y-113914759D01*
X125371680Y-113679727D01*
X125479853Y-113418574D01*
X125493684Y-113349039D01*
X132868096Y-113349039D01*
X132908754Y-113483087D01*
X133028963Y-113737420D01*
X133196481Y-113963414D01*
X133404869Y-114152385D01*
X133646119Y-114297070D01*
X133910960Y-114391909D01*
X134133000Y-114270624D01*
X134133000Y-113127000D01*
X134387000Y-113127000D01*
X134387000Y-114270624D01*
X134609040Y-114391909D01*
X134873881Y-114297070D01*
X135115131Y-114152385D01*
X135323519Y-113963414D01*
X135491037Y-113737420D01*
X135611246Y-113483087D01*
X135651904Y-113349039D01*
X135529915Y-113127000D01*
X134387000Y-113127000D01*
X134133000Y-113127000D01*
X132990085Y-113127000D01*
X132868096Y-113349039D01*
X125493684Y-113349039D01*
X125535000Y-113141335D01*
X125535000Y-112858665D01*
X125493685Y-112650961D01*
X132868096Y-112650961D01*
X132990085Y-112873000D01*
X134133000Y-112873000D01*
X134133000Y-111729376D01*
X134387000Y-111729376D01*
X134387000Y-112873000D01*
X135529915Y-112873000D01*
X135651904Y-112650961D01*
X135611246Y-112516913D01*
X135491037Y-112262580D01*
X135323519Y-112036586D01*
X135237592Y-111958665D01*
X136865000Y-111958665D01*
X136865000Y-112241335D01*
X136920147Y-112518574D01*
X137028320Y-112779727D01*
X137185363Y-113014759D01*
X137385241Y-113214637D01*
X137620273Y-113371680D01*
X137881426Y-113479853D01*
X138158665Y-113535000D01*
X138441335Y-113535000D01*
X138718574Y-113479853D01*
X138979727Y-113371680D01*
X139214759Y-113214637D01*
X139414637Y-113014759D01*
X139571680Y-112779727D01*
X139679853Y-112518574D01*
X139735000Y-112241335D01*
X139735000Y-111958665D01*
X141865000Y-111958665D01*
X141865000Y-112241335D01*
X141920147Y-112518574D01*
X142028320Y-112779727D01*
X142185363Y-113014759D01*
X142385241Y-113214637D01*
X142620273Y-113371680D01*
X142881426Y-113479853D01*
X143158665Y-113535000D01*
X143441335Y-113535000D01*
X143718574Y-113479853D01*
X143979727Y-113371680D01*
X144214759Y-113214637D01*
X144414637Y-113014759D01*
X144571680Y-112779727D01*
X144679853Y-112518574D01*
X144735000Y-112241335D01*
X144735000Y-111958665D01*
X144679853Y-111681426D01*
X144571680Y-111420273D01*
X144414637Y-111185241D01*
X144214759Y-110985363D01*
X143979727Y-110828320D01*
X143718574Y-110720147D01*
X143441335Y-110665000D01*
X143158665Y-110665000D01*
X142881426Y-110720147D01*
X142620273Y-110828320D01*
X142385241Y-110985363D01*
X142185363Y-111185241D01*
X142028320Y-111420273D01*
X141920147Y-111681426D01*
X141865000Y-111958665D01*
X139735000Y-111958665D01*
X139679853Y-111681426D01*
X139571680Y-111420273D01*
X139414637Y-111185241D01*
X139214759Y-110985363D01*
X138979727Y-110828320D01*
X138718574Y-110720147D01*
X138441335Y-110665000D01*
X138158665Y-110665000D01*
X137881426Y-110720147D01*
X137620273Y-110828320D01*
X137385241Y-110985363D01*
X137185363Y-111185241D01*
X137028320Y-111420273D01*
X136920147Y-111681426D01*
X136865000Y-111958665D01*
X135237592Y-111958665D01*
X135115131Y-111847615D01*
X134873881Y-111702930D01*
X134609040Y-111608091D01*
X134387000Y-111729376D01*
X134133000Y-111729376D01*
X133910960Y-111608091D01*
X133646119Y-111702930D01*
X133404869Y-111847615D01*
X133196481Y-112036586D01*
X133028963Y-112262580D01*
X132908754Y-112516913D01*
X132868096Y-112650961D01*
X125493685Y-112650961D01*
X125479853Y-112581426D01*
X125371680Y-112320273D01*
X125214637Y-112085241D01*
X125014759Y-111885363D01*
X124779727Y-111728320D01*
X124518574Y-111620147D01*
X124241335Y-111565000D01*
X123958665Y-111565000D01*
X123681426Y-111620147D01*
X123420273Y-111728320D01*
X123185241Y-111885363D01*
X122985363Y-112085241D01*
X122828320Y-112320273D01*
X122720147Y-112581426D01*
X122665000Y-112858665D01*
X122160000Y-112858665D01*
X122160000Y-109658665D01*
X122705000Y-109658665D01*
X122705000Y-109941335D01*
X122760147Y-110218574D01*
X122868320Y-110479727D01*
X123025363Y-110714759D01*
X123225241Y-110914637D01*
X123460273Y-111071680D01*
X123721426Y-111179853D01*
X123998665Y-111235000D01*
X124281335Y-111235000D01*
X124558574Y-111179853D01*
X124819727Y-111071680D01*
X125054759Y-110914637D01*
X125254637Y-110714759D01*
X125411680Y-110479727D01*
X125519853Y-110218574D01*
X125575000Y-109941335D01*
X125575000Y-109658665D01*
X132865000Y-109658665D01*
X132865000Y-109941335D01*
X132920147Y-110218574D01*
X133028320Y-110479727D01*
X133185363Y-110714759D01*
X133385241Y-110914637D01*
X133620273Y-111071680D01*
X133881426Y-111179853D01*
X134158665Y-111235000D01*
X134441335Y-111235000D01*
X134718574Y-111179853D01*
X134979727Y-111071680D01*
X135214759Y-110914637D01*
X135414637Y-110714759D01*
X135571680Y-110479727D01*
X135679853Y-110218574D01*
X135735000Y-109941335D01*
X135735000Y-109658665D01*
X135679853Y-109381426D01*
X135571680Y-109120273D01*
X135414637Y-108885241D01*
X135214759Y-108685363D01*
X134979727Y-108528320D01*
X134718574Y-108420147D01*
X134441335Y-108365000D01*
X134158665Y-108365000D01*
X133881426Y-108420147D01*
X133620273Y-108528320D01*
X133385241Y-108685363D01*
X133185363Y-108885241D01*
X133028320Y-109120273D01*
X132920147Y-109381426D01*
X132865000Y-109658665D01*
X125575000Y-109658665D01*
X125519853Y-109381426D01*
X125411680Y-109120273D01*
X125254637Y-108885241D01*
X125092500Y-108723104D01*
X125092500Y-107011465D01*
X125205655Y-107149345D01*
X125434821Y-107337417D01*
X125696275Y-107477166D01*
X125979968Y-107563224D01*
X126201064Y-107585000D01*
X126798936Y-107585000D01*
X127020032Y-107563224D01*
X127303725Y-107477166D01*
X127565179Y-107337417D01*
X127794345Y-107149345D01*
X127982417Y-106920179D01*
X128122166Y-106658725D01*
X128208224Y-106375032D01*
X128237282Y-106080000D01*
X128208224Y-105784968D01*
X128122166Y-105501275D01*
X127982417Y-105239821D01*
X127833746Y-105058665D01*
X131365000Y-105058665D01*
X131365000Y-105341335D01*
X131420147Y-105618574D01*
X131528320Y-105879727D01*
X131685363Y-106114759D01*
X131885241Y-106314637D01*
X132120273Y-106471680D01*
X132381426Y-106579853D01*
X132658665Y-106635000D01*
X132941335Y-106635000D01*
X133218574Y-106579853D01*
X133479727Y-106471680D01*
X133714759Y-106314637D01*
X133914637Y-106114759D01*
X134071680Y-105879727D01*
X134179853Y-105618574D01*
X134235000Y-105341335D01*
X134235000Y-105058665D01*
X134179853Y-104781426D01*
X134071680Y-104520273D01*
X133924499Y-104300000D01*
X134561928Y-104300000D01*
X134561928Y-105900000D01*
X134574188Y-106024482D01*
X134610498Y-106144180D01*
X134669463Y-106254494D01*
X134748815Y-106351185D01*
X134845506Y-106430537D01*
X134955820Y-106489502D01*
X135075518Y-106525812D01*
X135200000Y-106538072D01*
X136800000Y-106538072D01*
X136924482Y-106525812D01*
X137044180Y-106489502D01*
X137154494Y-106430537D01*
X137251185Y-106351185D01*
X137330537Y-106254494D01*
X137389502Y-106144180D01*
X137425812Y-106024482D01*
X137438072Y-105900000D01*
X137438072Y-104978665D01*
X137565000Y-104978665D01*
X137565000Y-105261335D01*
X137620147Y-105538574D01*
X137728320Y-105799727D01*
X137885363Y-106034759D01*
X138085241Y-106234637D01*
X138320273Y-106391680D01*
X138581426Y-106499853D01*
X138858665Y-106555000D01*
X139141335Y-106555000D01*
X139418574Y-106499853D01*
X139679727Y-106391680D01*
X139914759Y-106234637D01*
X140114637Y-106034759D01*
X140271680Y-105799727D01*
X140379853Y-105538574D01*
X140435000Y-105261335D01*
X140435000Y-104978665D01*
X140379853Y-104701426D01*
X140271680Y-104440273D01*
X140114637Y-104205241D01*
X139914759Y-104005363D01*
X139679727Y-103848320D01*
X139418574Y-103740147D01*
X139141335Y-103685000D01*
X138858665Y-103685000D01*
X138581426Y-103740147D01*
X138320273Y-103848320D01*
X138085241Y-104005363D01*
X137885363Y-104205241D01*
X137728320Y-104440273D01*
X137620147Y-104701426D01*
X137565000Y-104978665D01*
X137438072Y-104978665D01*
X137438072Y-104300000D01*
X137425812Y-104175518D01*
X137389502Y-104055820D01*
X137330537Y-103945506D01*
X137251185Y-103848815D01*
X137154494Y-103769463D01*
X137044180Y-103710498D01*
X136924482Y-103674188D01*
X136800000Y-103661928D01*
X135200000Y-103661928D01*
X135075518Y-103674188D01*
X134955820Y-103710498D01*
X134845506Y-103769463D01*
X134748815Y-103848815D01*
X134669463Y-103945506D01*
X134610498Y-104055820D01*
X134574188Y-104175518D01*
X134561928Y-104300000D01*
X133924499Y-104300000D01*
X133914637Y-104285241D01*
X133714759Y-104085363D01*
X133479727Y-103928320D01*
X133218574Y-103820147D01*
X132941335Y-103765000D01*
X132658665Y-103765000D01*
X132381426Y-103820147D01*
X132120273Y-103928320D01*
X131885241Y-104085363D01*
X131685363Y-104285241D01*
X131528320Y-104520273D01*
X131420147Y-104781426D01*
X131365000Y-105058665D01*
X127833746Y-105058665D01*
X127794345Y-105010655D01*
X127565179Y-104822583D01*
X127541638Y-104810000D01*
X127565179Y-104797417D01*
X127794345Y-104609345D01*
X127982417Y-104380179D01*
X128122166Y-104118725D01*
X128208224Y-103835032D01*
X128237282Y-103540000D01*
X128208224Y-103244968D01*
X128195254Y-103202211D01*
X132122935Y-99274530D01*
X132159277Y-99244705D01*
X132278305Y-99099668D01*
X132366751Y-98934196D01*
X132421216Y-98754650D01*
X132434999Y-98614712D01*
X132434999Y-98614711D01*
X132439607Y-98567928D01*
X132434999Y-98521143D01*
X132434999Y-97338665D01*
X134565000Y-97338665D01*
X134565000Y-97621335D01*
X134620147Y-97898574D01*
X134728320Y-98159727D01*
X134885363Y-98394759D01*
X135085241Y-98594637D01*
X135320273Y-98751680D01*
X135581426Y-98859853D01*
X135858665Y-98915000D01*
X136141335Y-98915000D01*
X136418574Y-98859853D01*
X136679727Y-98751680D01*
X136914759Y-98594637D01*
X137114637Y-98394759D01*
X137271680Y-98159727D01*
X137379853Y-97898574D01*
X137435000Y-97621335D01*
X137435000Y-97338665D01*
X137379853Y-97061426D01*
X137271680Y-96800273D01*
X137204680Y-96700000D01*
X137561928Y-96700000D01*
X137561928Y-98300000D01*
X137574188Y-98424482D01*
X137610498Y-98544180D01*
X137669463Y-98654494D01*
X137748815Y-98751185D01*
X137845506Y-98830537D01*
X137955820Y-98889502D01*
X138075518Y-98925812D01*
X138200000Y-98938072D01*
X139800000Y-98938072D01*
X139924482Y-98925812D01*
X140044180Y-98889502D01*
X140154494Y-98830537D01*
X140251185Y-98751185D01*
X140330537Y-98654494D01*
X140389502Y-98544180D01*
X140425812Y-98424482D01*
X140438072Y-98300000D01*
X140438072Y-96700000D01*
X140425812Y-96575518D01*
X140389502Y-96455820D01*
X140330537Y-96345506D01*
X140251185Y-96248815D01*
X140154494Y-96169463D01*
X140044180Y-96110498D01*
X139924482Y-96074188D01*
X139800000Y-96061928D01*
X138200000Y-96061928D01*
X138075518Y-96074188D01*
X137955820Y-96110498D01*
X137845506Y-96169463D01*
X137748815Y-96248815D01*
X137669463Y-96345506D01*
X137610498Y-96455820D01*
X137574188Y-96575518D01*
X137561928Y-96700000D01*
X137204680Y-96700000D01*
X137114637Y-96565241D01*
X136914759Y-96365363D01*
X136679727Y-96208320D01*
X136418574Y-96100147D01*
X136141335Y-96045000D01*
X135858665Y-96045000D01*
X135581426Y-96100147D01*
X135320273Y-96208320D01*
X135085241Y-96365363D01*
X134885363Y-96565241D01*
X134728320Y-96800273D01*
X134620147Y-97061426D01*
X134565000Y-97338665D01*
X132434999Y-97338665D01*
X132434999Y-96427063D01*
X132450961Y-96431904D01*
X132673000Y-96309915D01*
X132673000Y-95167000D01*
X132927000Y-95167000D01*
X132927000Y-96309915D01*
X133149039Y-96431904D01*
X133283087Y-96391246D01*
X133537420Y-96271037D01*
X133763414Y-96103519D01*
X133952385Y-95895131D01*
X134097070Y-95653881D01*
X134191909Y-95389040D01*
X134070624Y-95167000D01*
X132927000Y-95167000D01*
X132673000Y-95167000D01*
X132653000Y-95167000D01*
X132653000Y-94913000D01*
X132673000Y-94913000D01*
X132673000Y-93770085D01*
X132927000Y-93770085D01*
X132927000Y-94913000D01*
X134070624Y-94913000D01*
X134191909Y-94690960D01*
X134097070Y-94426119D01*
X133952385Y-94184869D01*
X133763414Y-93976481D01*
X133537420Y-93808963D01*
X133283087Y-93688754D01*
X133149039Y-93648096D01*
X132927000Y-93770085D01*
X132673000Y-93770085D01*
X132585194Y-93721844D01*
X134012038Y-92295000D01*
X134241335Y-92295000D01*
X134518574Y-92239853D01*
X134779727Y-92131680D01*
X135014759Y-91974637D01*
X135214637Y-91774759D01*
X135371680Y-91539727D01*
X135479853Y-91278574D01*
X135535000Y-91001335D01*
X135535000Y-90762038D01*
X142065000Y-97292039D01*
X142065000Y-97850492D01*
X142085764Y-98061309D01*
X142167818Y-98331808D01*
X142301068Y-98581101D01*
X142480393Y-98799608D01*
X142698900Y-98978932D01*
X142948193Y-99112182D01*
X143218692Y-99194236D01*
X143500000Y-99221943D01*
X143781309Y-99194236D01*
X144051808Y-99112182D01*
X144301101Y-98978932D01*
X144519608Y-98799608D01*
X144698932Y-98581101D01*
X144770000Y-98448142D01*
X144841068Y-98581101D01*
X145020393Y-98799608D01*
X145238900Y-98978932D01*
X145488193Y-99112182D01*
X145758692Y-99194236D01*
X146040000Y-99221943D01*
X146321309Y-99194236D01*
X146591808Y-99112182D01*
X146841101Y-98978932D01*
X147059608Y-98799608D01*
X147238932Y-98581101D01*
X147310000Y-98448142D01*
X147381068Y-98581101D01*
X147560393Y-98799608D01*
X147778900Y-98978932D01*
X148028193Y-99112182D01*
X148298692Y-99194236D01*
X148580000Y-99221943D01*
X148861309Y-99194236D01*
X149131808Y-99112182D01*
X149381101Y-98978932D01*
X149599608Y-98799608D01*
X149778932Y-98581101D01*
X149850000Y-98448142D01*
X149921068Y-98581101D01*
X150100393Y-98799608D01*
X150318900Y-98978932D01*
X150568193Y-99112182D01*
X150838692Y-99194236D01*
X151120000Y-99221943D01*
X151401309Y-99194236D01*
X151485010Y-99168846D01*
X151485011Y-103211155D01*
X151401308Y-103185764D01*
X151120000Y-103158057D01*
X150838691Y-103185764D01*
X150568192Y-103267818D01*
X150318899Y-103401068D01*
X150100392Y-103580393D01*
X149921068Y-103798900D01*
X149850000Y-103931858D01*
X149778932Y-103798899D01*
X149599607Y-103580392D01*
X149381100Y-103401068D01*
X149131807Y-103267818D01*
X148861308Y-103185764D01*
X148580000Y-103158057D01*
X148298691Y-103185764D01*
X148028192Y-103267818D01*
X147778899Y-103401068D01*
X147560392Y-103580393D01*
X147381068Y-103798900D01*
X147310000Y-103931858D01*
X147238932Y-103798899D01*
X147059607Y-103580392D01*
X146841100Y-103401068D01*
X146591807Y-103267818D01*
X146321308Y-103185764D01*
X146040000Y-103158057D01*
X145758691Y-103185764D01*
X145488192Y-103267818D01*
X145238899Y-103401068D01*
X145020392Y-103580393D01*
X144927581Y-103693483D01*
X144925812Y-103675518D01*
X144889502Y-103555820D01*
X144830537Y-103445506D01*
X144751185Y-103348815D01*
X144654494Y-103269463D01*
X144544180Y-103210498D01*
X144424482Y-103174188D01*
X144300000Y-103161928D01*
X142700000Y-103161928D01*
X142575518Y-103174188D01*
X142455820Y-103210498D01*
X142345506Y-103269463D01*
X142248815Y-103348815D01*
X142169463Y-103445506D01*
X142110498Y-103555820D01*
X142074188Y-103675518D01*
X142061928Y-103800000D01*
X142061928Y-106200000D01*
X142074188Y-106324482D01*
X142110498Y-106444180D01*
X142169463Y-106554494D01*
X142248815Y-106651185D01*
X142345506Y-106730537D01*
X142455820Y-106789502D01*
X142575518Y-106825812D01*
X142700000Y-106838072D01*
X144300000Y-106838072D01*
X144424482Y-106825812D01*
X144544180Y-106789502D01*
X144654494Y-106730537D01*
X144751185Y-106651185D01*
X144830537Y-106554494D01*
X144889502Y-106444180D01*
X144925812Y-106324482D01*
X144927581Y-106306517D01*
X145020393Y-106419608D01*
X145238900Y-106598932D01*
X145488193Y-106732182D01*
X145758692Y-106814236D01*
X146040000Y-106841943D01*
X146321309Y-106814236D01*
X146591808Y-106732182D01*
X146841101Y-106598932D01*
X147059608Y-106419608D01*
X147238932Y-106201101D01*
X147310000Y-106068142D01*
X147381068Y-106201101D01*
X147560393Y-106419608D01*
X147778900Y-106598932D01*
X148028193Y-106732182D01*
X148298692Y-106814236D01*
X148580000Y-106841943D01*
X148861309Y-106814236D01*
X149131808Y-106732182D01*
X149381101Y-106598932D01*
X149599608Y-106419608D01*
X149778932Y-106201101D01*
X149850000Y-106068142D01*
X149921068Y-106201101D01*
X150100393Y-106419608D01*
X150318900Y-106598932D01*
X150568193Y-106732182D01*
X150838692Y-106814236D01*
X151120000Y-106841943D01*
X151401309Y-106814236D01*
X151671808Y-106732182D01*
X151921101Y-106598932D01*
X152139608Y-106419608D01*
X152271690Y-106258665D01*
X155265000Y-106258665D01*
X155265000Y-106541335D01*
X155320147Y-106818574D01*
X155428320Y-107079727D01*
X155585363Y-107314759D01*
X155785241Y-107514637D01*
X156020273Y-107671680D01*
X156281426Y-107779853D01*
X156558665Y-107835000D01*
X156841335Y-107835000D01*
X157118574Y-107779853D01*
X157379727Y-107671680D01*
X157614759Y-107514637D01*
X157736694Y-107392702D01*
X158386903Y-107392702D01*
X158458486Y-107636671D01*
X158713996Y-107757571D01*
X158988184Y-107826300D01*
X159270512Y-107840217D01*
X159550130Y-107798787D01*
X159816292Y-107703603D01*
X159941514Y-107636671D01*
X160013097Y-107392702D01*
X159200000Y-106579605D01*
X158386903Y-107392702D01*
X157736694Y-107392702D01*
X157814637Y-107314759D01*
X157948692Y-107114131D01*
X157963329Y-107141514D01*
X158207298Y-107213097D01*
X159020395Y-106400000D01*
X159379605Y-106400000D01*
X160192702Y-107213097D01*
X160436671Y-107141514D01*
X160557571Y-106886004D01*
X160626300Y-106611816D01*
X160640217Y-106329488D01*
X160598787Y-106049870D01*
X160503603Y-105783708D01*
X160436671Y-105658486D01*
X160192702Y-105586903D01*
X159379605Y-106400000D01*
X159020395Y-106400000D01*
X158207298Y-105586903D01*
X157963329Y-105658486D01*
X157949676Y-105687341D01*
X157814637Y-105485241D01*
X157736694Y-105407298D01*
X158386903Y-105407298D01*
X159200000Y-106220395D01*
X160013097Y-105407298D01*
X159963619Y-105238665D01*
X160565000Y-105238665D01*
X160565000Y-105521335D01*
X160620147Y-105798574D01*
X160728320Y-106059727D01*
X160885363Y-106294759D01*
X161085241Y-106494637D01*
X161320273Y-106651680D01*
X161581426Y-106759853D01*
X161858665Y-106815000D01*
X162141335Y-106815000D01*
X162418574Y-106759853D01*
X162679727Y-106651680D01*
X162914759Y-106494637D01*
X163114637Y-106294759D01*
X163271680Y-106059727D01*
X163379853Y-105798574D01*
X163435000Y-105521335D01*
X163435000Y-105238665D01*
X163379853Y-104961426D01*
X163271680Y-104700273D01*
X163204680Y-104600000D01*
X163561928Y-104600000D01*
X163561928Y-106200000D01*
X163574188Y-106324482D01*
X163610498Y-106444180D01*
X163669463Y-106554494D01*
X163748815Y-106651185D01*
X163845506Y-106730537D01*
X163955820Y-106789502D01*
X164075518Y-106825812D01*
X164200000Y-106838072D01*
X165800000Y-106838072D01*
X165924482Y-106825812D01*
X166044180Y-106789502D01*
X166154494Y-106730537D01*
X166251185Y-106651185D01*
X166330537Y-106554494D01*
X166389502Y-106444180D01*
X166425812Y-106324482D01*
X166438072Y-106200000D01*
X166438072Y-104600000D01*
X166425812Y-104475518D01*
X166389502Y-104355820D01*
X166330537Y-104245506D01*
X166251185Y-104148815D01*
X166154494Y-104069463D01*
X166044180Y-104010498D01*
X165924482Y-103974188D01*
X165800000Y-103961928D01*
X164200000Y-103961928D01*
X164075518Y-103974188D01*
X163955820Y-104010498D01*
X163845506Y-104069463D01*
X163748815Y-104148815D01*
X163669463Y-104245506D01*
X163610498Y-104355820D01*
X163574188Y-104475518D01*
X163561928Y-104600000D01*
X163204680Y-104600000D01*
X163114637Y-104465241D01*
X162914759Y-104265363D01*
X162679727Y-104108320D01*
X162418574Y-104000147D01*
X162141335Y-103945000D01*
X161858665Y-103945000D01*
X161581426Y-104000147D01*
X161320273Y-104108320D01*
X161085241Y-104265363D01*
X160885363Y-104465241D01*
X160728320Y-104700273D01*
X160620147Y-104961426D01*
X160565000Y-105238665D01*
X159963619Y-105238665D01*
X159941514Y-105163329D01*
X159686004Y-105042429D01*
X159411816Y-104973700D01*
X159129488Y-104959783D01*
X158849870Y-105001213D01*
X158583708Y-105096397D01*
X158458486Y-105163329D01*
X158386903Y-105407298D01*
X157736694Y-105407298D01*
X157614759Y-105285363D01*
X157379727Y-105128320D01*
X157118574Y-105020147D01*
X156841335Y-104965000D01*
X156558665Y-104965000D01*
X156281426Y-105020147D01*
X156020273Y-105128320D01*
X155785241Y-105285363D01*
X155585363Y-105485241D01*
X155428320Y-105720273D01*
X155320147Y-105981426D01*
X155265000Y-106258665D01*
X152271690Y-106258665D01*
X152318932Y-106201101D01*
X152452182Y-105951808D01*
X152534236Y-105681309D01*
X152555000Y-105470491D01*
X152555000Y-104912038D01*
X153077941Y-104389097D01*
X153114288Y-104359268D01*
X153233316Y-104214231D01*
X153321762Y-104048759D01*
X153376227Y-103869213D01*
X153390010Y-103729275D01*
X153394618Y-103682490D01*
X153390010Y-103635705D01*
X153390010Y-102918665D01*
X155765000Y-102918665D01*
X155765000Y-103201335D01*
X155820147Y-103478574D01*
X155928320Y-103739727D01*
X156085363Y-103974759D01*
X156285241Y-104174637D01*
X156520273Y-104331680D01*
X156781426Y-104439853D01*
X157058665Y-104495000D01*
X157341335Y-104495000D01*
X157618574Y-104439853D01*
X157879727Y-104331680D01*
X158114759Y-104174637D01*
X158314637Y-103974759D01*
X158471680Y-103739727D01*
X158579853Y-103478574D01*
X158635000Y-103201335D01*
X158635000Y-102918665D01*
X158579853Y-102641426D01*
X158471680Y-102380273D01*
X158314637Y-102145241D01*
X158239396Y-102070000D01*
X162666928Y-102070000D01*
X162679188Y-102194482D01*
X162715498Y-102314180D01*
X162774463Y-102424494D01*
X162853815Y-102521185D01*
X162950506Y-102600537D01*
X163060820Y-102659502D01*
X163180518Y-102695812D01*
X163305000Y-102708072D01*
X164114250Y-102705000D01*
X164273000Y-102546250D01*
X164273000Y-101327000D01*
X164527000Y-101327000D01*
X164527000Y-102546250D01*
X164685750Y-102705000D01*
X165495000Y-102708072D01*
X165619482Y-102695812D01*
X165739180Y-102659502D01*
X165849494Y-102600537D01*
X165946185Y-102521185D01*
X166025537Y-102424494D01*
X166084502Y-102314180D01*
X166120812Y-102194482D01*
X166133072Y-102070000D01*
X166130000Y-101485750D01*
X165971250Y-101327000D01*
X164527000Y-101327000D01*
X164273000Y-101327000D01*
X162828750Y-101327000D01*
X162670000Y-101485750D01*
X162666928Y-102070000D01*
X158239396Y-102070000D01*
X158114759Y-101945363D01*
X157879727Y-101788320D01*
X157618574Y-101680147D01*
X157341335Y-101625000D01*
X157058665Y-101625000D01*
X156781426Y-101680147D01*
X156520273Y-101788320D01*
X156285241Y-101945363D01*
X156085363Y-102145241D01*
X155928320Y-102380273D01*
X155820147Y-102641426D01*
X155765000Y-102918665D01*
X153390010Y-102918665D01*
X153390010Y-98660000D01*
X162662718Y-98660000D01*
X162691776Y-98955032D01*
X162777834Y-99238725D01*
X162917583Y-99500179D01*
X163104047Y-99727385D01*
X163060820Y-99740498D01*
X162950506Y-99799463D01*
X162853815Y-99878815D01*
X162774463Y-99975506D01*
X162715498Y-100085820D01*
X162679188Y-100205518D01*
X162666928Y-100330000D01*
X162670000Y-100914250D01*
X162828750Y-101073000D01*
X164273000Y-101073000D01*
X164273000Y-101053000D01*
X164527000Y-101053000D01*
X164527000Y-101073000D01*
X165971250Y-101073000D01*
X166130000Y-100914250D01*
X166133072Y-100330000D01*
X166120812Y-100205518D01*
X166084502Y-100085820D01*
X166025537Y-99975506D01*
X165946185Y-99878815D01*
X165849494Y-99799463D01*
X165739180Y-99740498D01*
X165695953Y-99727385D01*
X165882417Y-99500179D01*
X166022166Y-99238725D01*
X166108224Y-98955032D01*
X166137282Y-98660000D01*
X166108224Y-98364968D01*
X166022166Y-98081275D01*
X165882417Y-97819821D01*
X165694345Y-97590655D01*
X165465179Y-97402583D01*
X165203725Y-97262834D01*
X164920032Y-97176776D01*
X164698936Y-97155000D01*
X164101064Y-97155000D01*
X163879968Y-97176776D01*
X163596275Y-97262834D01*
X163334821Y-97402583D01*
X163105655Y-97590655D01*
X162917583Y-97819821D01*
X162777834Y-98081275D01*
X162691776Y-98364968D01*
X162662718Y-98660000D01*
X153390010Y-98660000D01*
X153390010Y-96107126D01*
X155925124Y-93572012D01*
X155928320Y-93579727D01*
X156085363Y-93814759D01*
X156285241Y-94014637D01*
X156520273Y-94171680D01*
X156781426Y-94279853D01*
X157058665Y-94335000D01*
X157341335Y-94335000D01*
X157618574Y-94279853D01*
X157879727Y-94171680D01*
X158114759Y-94014637D01*
X158314637Y-93814759D01*
X158471680Y-93579727D01*
X158579853Y-93318574D01*
X158635000Y-93041335D01*
X158635000Y-92758665D01*
X158579853Y-92481426D01*
X158471680Y-92220273D01*
X158314637Y-91985241D01*
X158114759Y-91785363D01*
X157879727Y-91628320D01*
X157664127Y-91539016D01*
X157674609Y-91432598D01*
X157670001Y-91385813D01*
X157670001Y-83709286D01*
X157674609Y-83662501D01*
X157656218Y-83475778D01*
X157639215Y-83419727D01*
X157601753Y-83296232D01*
X157513307Y-83130760D01*
X157394279Y-82985723D01*
X157357937Y-82955898D01*
X155915779Y-81513740D01*
X160515000Y-81513740D01*
X160515000Y-81806260D01*
X160572068Y-82093158D01*
X160684010Y-82363411D01*
X160846525Y-82606632D01*
X161053368Y-82813475D01*
X161296589Y-82975990D01*
X161566842Y-83087932D01*
X161853740Y-83145000D01*
X162146260Y-83145000D01*
X162433158Y-83087932D01*
X162703411Y-82975990D01*
X162946632Y-82813475D01*
X163153475Y-82606632D01*
X163270000Y-82432240D01*
X163386525Y-82606632D01*
X163593368Y-82813475D01*
X163836589Y-82975990D01*
X164106842Y-83087932D01*
X164393740Y-83145000D01*
X164686260Y-83145000D01*
X164973158Y-83087932D01*
X165243411Y-82975990D01*
X165486632Y-82813475D01*
X165693475Y-82606632D01*
X165855990Y-82363411D01*
X165967932Y-82093158D01*
X166025000Y-81806260D01*
X166025000Y-81513740D01*
X165967932Y-81226842D01*
X165855990Y-80956589D01*
X165693475Y-80713368D01*
X165486632Y-80506525D01*
X165313271Y-80390689D01*
X165388792Y-80148397D01*
X164540000Y-79299605D01*
X163691208Y-80148397D01*
X163766729Y-80390689D01*
X163593368Y-80506525D01*
X163386525Y-80713368D01*
X163270000Y-80887760D01*
X163153475Y-80713368D01*
X162946632Y-80506525D01*
X162773271Y-80390689D01*
X162848792Y-80148397D01*
X162000000Y-79299605D01*
X161151208Y-80148397D01*
X161226729Y-80390689D01*
X161053368Y-80506525D01*
X160846525Y-80713368D01*
X160684010Y-80956589D01*
X160572068Y-81226842D01*
X160515000Y-81513740D01*
X155915779Y-81513740D01*
X154737038Y-80335000D01*
X154841335Y-80335000D01*
X155118574Y-80279853D01*
X155379727Y-80171680D01*
X155614759Y-80014637D01*
X155814637Y-79814759D01*
X155971680Y-79579727D01*
X156079853Y-79318574D01*
X156105720Y-79188531D01*
X160509389Y-79188531D01*
X160551401Y-79478019D01*
X160649081Y-79753747D01*
X160722528Y-79891157D01*
X160971603Y-79968792D01*
X161820395Y-79120000D01*
X162179605Y-79120000D01*
X163028397Y-79968792D01*
X163270000Y-79893486D01*
X163511603Y-79968792D01*
X164360395Y-79120000D01*
X164719605Y-79120000D01*
X165568397Y-79968792D01*
X165817472Y-79891157D01*
X165943371Y-79627117D01*
X166015339Y-79343589D01*
X166030611Y-79051469D01*
X165988599Y-78761981D01*
X165890919Y-78486253D01*
X165817472Y-78348843D01*
X165568397Y-78271208D01*
X164719605Y-79120000D01*
X164360395Y-79120000D01*
X163511603Y-78271208D01*
X163270000Y-78346514D01*
X163028397Y-78271208D01*
X162179605Y-79120000D01*
X161820395Y-79120000D01*
X160971603Y-78271208D01*
X160722528Y-78348843D01*
X160596629Y-78612883D01*
X160524661Y-78896411D01*
X160509389Y-79188531D01*
X156105720Y-79188531D01*
X156135000Y-79041335D01*
X156135000Y-78758665D01*
X156079853Y-78481426D01*
X155971680Y-78220273D01*
X155814637Y-77985241D01*
X155614759Y-77785363D01*
X155414131Y-77651308D01*
X155441514Y-77636671D01*
X155449809Y-77608397D01*
X161151208Y-77608397D01*
X161226514Y-77850000D01*
X161151208Y-78091603D01*
X162000000Y-78940395D01*
X162848792Y-78091603D01*
X162773486Y-77850000D01*
X162848792Y-77608397D01*
X163691208Y-77608397D01*
X163766514Y-77850000D01*
X163691208Y-78091603D01*
X164540000Y-78940395D01*
X165388792Y-78091603D01*
X165313486Y-77850000D01*
X165388792Y-77608397D01*
X164540000Y-76759605D01*
X163691208Y-77608397D01*
X162848792Y-77608397D01*
X162000000Y-76759605D01*
X161151208Y-77608397D01*
X155449809Y-77608397D01*
X155513097Y-77392702D01*
X154700000Y-76579605D01*
X153886903Y-77392702D01*
X153958486Y-77636671D01*
X153987341Y-77650324D01*
X153785241Y-77785363D01*
X153585363Y-77985241D01*
X153428320Y-78220273D01*
X153320147Y-78481426D01*
X153265000Y-78758665D01*
X153265000Y-78862962D01*
X152261607Y-77859569D01*
X152231778Y-77823222D01*
X152086741Y-77704194D01*
X151921269Y-77615748D01*
X151741723Y-77561283D01*
X151601785Y-77547500D01*
X151555000Y-77542892D01*
X151508215Y-77547500D01*
X151451812Y-77547500D01*
X151318932Y-77298899D01*
X151139607Y-77080392D01*
X150921100Y-76901068D01*
X150671807Y-76767818D01*
X150401308Y-76685764D01*
X150120000Y-76658057D01*
X149838691Y-76685764D01*
X149568192Y-76767818D01*
X149318899Y-76901068D01*
X149100392Y-77080393D01*
X148921068Y-77298900D01*
X148852735Y-77426742D01*
X148702601Y-77197161D01*
X148504895Y-76995500D01*
X148271646Y-76836285D01*
X148011818Y-76725633D01*
X147929039Y-76708096D01*
X147707000Y-76830085D01*
X147707000Y-78373000D01*
X147727000Y-78373000D01*
X147727000Y-78627000D01*
X147707000Y-78627000D01*
X147707000Y-80169915D01*
X147929039Y-80291904D01*
X148011818Y-80274367D01*
X148271646Y-80163715D01*
X148504895Y-80004500D01*
X148702601Y-79802839D01*
X148852735Y-79573259D01*
X148921068Y-79701101D01*
X149100393Y-79919608D01*
X149318900Y-80098932D01*
X149568193Y-80232182D01*
X149838692Y-80314236D01*
X150120000Y-80341943D01*
X150401309Y-80314236D01*
X150671808Y-80232182D01*
X150921101Y-80098932D01*
X151139608Y-79919608D01*
X151318932Y-79701101D01*
X151350327Y-79642365D01*
X155765001Y-84057040D01*
X155765001Y-85309491D01*
X155541335Y-85265000D01*
X155258665Y-85265000D01*
X154981426Y-85320147D01*
X154720273Y-85428320D01*
X154485241Y-85585363D01*
X154285363Y-85785241D01*
X154128320Y-86020273D01*
X154020147Y-86281426D01*
X153965000Y-86558665D01*
X153965000Y-86841335D01*
X154020147Y-87118574D01*
X154128320Y-87379727D01*
X154285363Y-87614759D01*
X154485241Y-87814637D01*
X154687827Y-87950000D01*
X154485241Y-88085363D01*
X154285363Y-88285241D01*
X154128320Y-88520273D01*
X154020147Y-88781426D01*
X153965000Y-89058665D01*
X153965000Y-89287961D01*
X150479564Y-92773398D01*
X150443223Y-92803222D01*
X150413399Y-92839563D01*
X150324194Y-92948260D01*
X150235749Y-93113731D01*
X150181283Y-93293278D01*
X150162892Y-93480000D01*
X150167501Y-93526794D01*
X150167500Y-95905318D01*
X150100392Y-95960393D01*
X149921068Y-96178900D01*
X149850000Y-96311858D01*
X149778932Y-96178899D01*
X149599607Y-95960392D01*
X149381100Y-95781068D01*
X149131807Y-95647818D01*
X148861308Y-95565764D01*
X148580000Y-95538057D01*
X148298691Y-95565764D01*
X148028192Y-95647818D01*
X147778899Y-95781068D01*
X147560392Y-95960393D01*
X147381068Y-96178900D01*
X147310000Y-96311858D01*
X147238932Y-96178899D01*
X147059607Y-95960392D01*
X146841100Y-95781068D01*
X146591807Y-95647818D01*
X146321308Y-95565764D01*
X146040000Y-95538057D01*
X145758691Y-95565764D01*
X145488192Y-95647818D01*
X145238899Y-95781068D01*
X145020392Y-95960393D01*
X144841068Y-96178900D01*
X144770000Y-96311858D01*
X144698932Y-96178899D01*
X144519607Y-95960392D01*
X144301100Y-95781068D01*
X144051807Y-95647818D01*
X143781308Y-95565764D01*
X143500000Y-95538057D01*
X143218691Y-95565764D01*
X143076067Y-95609028D01*
X141159741Y-93692702D01*
X142086903Y-93692702D01*
X142158486Y-93936671D01*
X142413996Y-94057571D01*
X142688184Y-94126300D01*
X142970512Y-94140217D01*
X143250130Y-94098787D01*
X143516292Y-94003603D01*
X143641514Y-93936671D01*
X143713097Y-93692702D01*
X142900000Y-92879605D01*
X142086903Y-93692702D01*
X141159741Y-93692702D01*
X140237551Y-92770512D01*
X141459783Y-92770512D01*
X141501213Y-93050130D01*
X141596397Y-93316292D01*
X141663329Y-93441514D01*
X141907298Y-93513097D01*
X142720395Y-92700000D01*
X141907298Y-91886903D01*
X141663329Y-91958486D01*
X141542429Y-92213996D01*
X141473700Y-92488184D01*
X141459783Y-92770512D01*
X140237551Y-92770512D01*
X136369106Y-88902068D01*
X136339277Y-88865721D01*
X136194240Y-88746693D01*
X136028768Y-88658247D01*
X135849222Y-88603782D01*
X135709284Y-88589999D01*
X135662499Y-88585391D01*
X135615714Y-88589999D01*
X127604285Y-88589999D01*
X127557500Y-88585391D01*
X127370778Y-88603782D01*
X127191232Y-88658247D01*
X127025760Y-88746693D01*
X126880723Y-88865721D01*
X126850898Y-88902063D01*
X126661033Y-89091928D01*
X125654999Y-89091928D01*
X125481745Y-89108992D01*
X125315149Y-89159528D01*
X125161613Y-89241595D01*
X125027038Y-89352038D01*
X124916595Y-89486613D01*
X124834528Y-89640149D01*
X124783992Y-89806745D01*
X124766928Y-89979999D01*
X124766928Y-91220001D01*
X124783992Y-91393255D01*
X124834528Y-91559851D01*
X124916595Y-91713387D01*
X125027038Y-91847962D01*
X125161613Y-91958405D01*
X125271114Y-92016934D01*
X125205655Y-92070655D01*
X125017583Y-92299821D01*
X124877834Y-92561275D01*
X124791776Y-92844968D01*
X124762718Y-93140000D01*
X124791776Y-93435032D01*
X124807173Y-93485788D01*
X123499564Y-94793398D01*
X123463223Y-94823222D01*
X123433399Y-94859563D01*
X123344194Y-94968260D01*
X123255749Y-95133731D01*
X123201283Y-95313278D01*
X123182892Y-95500000D01*
X123187501Y-95546795D01*
X123187500Y-108723104D01*
X123025363Y-108885241D01*
X122868320Y-109120273D01*
X122760147Y-109381426D01*
X122705000Y-109658665D01*
X122160000Y-109658665D01*
X122160000Y-81540000D01*
X124762718Y-81540000D01*
X124791776Y-81835032D01*
X124877834Y-82118725D01*
X125017583Y-82380179D01*
X125205655Y-82609345D01*
X125434821Y-82797417D01*
X125458362Y-82810000D01*
X125434821Y-82822583D01*
X125205655Y-83010655D01*
X125017583Y-83239821D01*
X124877834Y-83501275D01*
X124791776Y-83784968D01*
X124762718Y-84080000D01*
X124791776Y-84375032D01*
X124877834Y-84658725D01*
X125017583Y-84920179D01*
X125205655Y-85149345D01*
X125434821Y-85337417D01*
X125696275Y-85477166D01*
X125979968Y-85563224D01*
X126201064Y-85585000D01*
X126798936Y-85585000D01*
X127020032Y-85563224D01*
X127303725Y-85477166D01*
X127565179Y-85337417D01*
X127794345Y-85149345D01*
X127890237Y-85032500D01*
X140229999Y-85032500D01*
X140230000Y-88435705D01*
X140225391Y-88482499D01*
X140243782Y-88669221D01*
X140298248Y-88848768D01*
X140386180Y-89013278D01*
X140386694Y-89014240D01*
X140505722Y-89159277D01*
X140542063Y-89189101D01*
X142640714Y-91287753D01*
X142549870Y-91301213D01*
X142283708Y-91396397D01*
X142158486Y-91463329D01*
X142086903Y-91707298D01*
X142900000Y-92520395D01*
X142914143Y-92506253D01*
X143093748Y-92685858D01*
X143079605Y-92700000D01*
X143892702Y-93513097D01*
X144136671Y-93441514D01*
X144150324Y-93412659D01*
X144285363Y-93614759D01*
X144485241Y-93814637D01*
X144720273Y-93971680D01*
X144981426Y-94079853D01*
X145258665Y-94135000D01*
X145541335Y-94135000D01*
X145818574Y-94079853D01*
X146079727Y-93971680D01*
X146314759Y-93814637D01*
X146514637Y-93614759D01*
X146671680Y-93379727D01*
X146779853Y-93118574D01*
X146835000Y-92841335D01*
X146835000Y-92758665D01*
X147165000Y-92758665D01*
X147165000Y-93041335D01*
X147220147Y-93318574D01*
X147328320Y-93579727D01*
X147485363Y-93814759D01*
X147685241Y-94014637D01*
X147920273Y-94171680D01*
X148181426Y-94279853D01*
X148458665Y-94335000D01*
X148741335Y-94335000D01*
X149018574Y-94279853D01*
X149279727Y-94171680D01*
X149514759Y-94014637D01*
X149714637Y-93814759D01*
X149871680Y-93579727D01*
X149979853Y-93318574D01*
X150035000Y-93041335D01*
X150035000Y-92758665D01*
X149979853Y-92481426D01*
X149871680Y-92220273D01*
X149714637Y-91985241D01*
X149514759Y-91785363D01*
X149279727Y-91628320D01*
X149018574Y-91520147D01*
X148741335Y-91465000D01*
X148458665Y-91465000D01*
X148181426Y-91520147D01*
X147920273Y-91628320D01*
X147685241Y-91785363D01*
X147485363Y-91985241D01*
X147328320Y-92220273D01*
X147220147Y-92481426D01*
X147165000Y-92758665D01*
X146835000Y-92758665D01*
X146835000Y-92558665D01*
X146779853Y-92281426D01*
X146671680Y-92020273D01*
X146514637Y-91785241D01*
X146314759Y-91585363D01*
X146079727Y-91428320D01*
X145818574Y-91320147D01*
X145541335Y-91265000D01*
X145312039Y-91265000D01*
X142134999Y-88087961D01*
X142134999Y-84364285D01*
X142139607Y-84317500D01*
X142134999Y-84270715D01*
X142134999Y-82598665D01*
X147165000Y-82598665D01*
X147165000Y-82881335D01*
X147220147Y-83158574D01*
X147328320Y-83419727D01*
X147485363Y-83654759D01*
X147685241Y-83854637D01*
X147920273Y-84011680D01*
X148181426Y-84119853D01*
X148458665Y-84175000D01*
X148741335Y-84175000D01*
X149018574Y-84119853D01*
X149279727Y-84011680D01*
X149514759Y-83854637D01*
X149714637Y-83654759D01*
X149871680Y-83419727D01*
X149979853Y-83158574D01*
X150035000Y-82881335D01*
X150035000Y-82598665D01*
X149979853Y-82321426D01*
X149871680Y-82060273D01*
X149714637Y-81825241D01*
X149514759Y-81625363D01*
X149279727Y-81468320D01*
X149018574Y-81360147D01*
X148741335Y-81305000D01*
X148458665Y-81305000D01*
X148181426Y-81360147D01*
X147920273Y-81468320D01*
X147685241Y-81625363D01*
X147485363Y-81825241D01*
X147328320Y-82060273D01*
X147220147Y-82321426D01*
X147165000Y-82598665D01*
X142134999Y-82598665D01*
X142134999Y-80338072D01*
X143300000Y-80338072D01*
X143424482Y-80325812D01*
X143544180Y-80289502D01*
X143654494Y-80230537D01*
X143751185Y-80151185D01*
X143830537Y-80054494D01*
X143889502Y-79944180D01*
X143925812Y-79824482D01*
X143927581Y-79806517D01*
X144020393Y-79919608D01*
X144238900Y-80098932D01*
X144488193Y-80232182D01*
X144758692Y-80314236D01*
X145040000Y-80341943D01*
X145321309Y-80314236D01*
X145591808Y-80232182D01*
X145841101Y-80098932D01*
X146059608Y-79919608D01*
X146238932Y-79701101D01*
X146307265Y-79573259D01*
X146457399Y-79802839D01*
X146655105Y-80004500D01*
X146888354Y-80163715D01*
X147148182Y-80274367D01*
X147230961Y-80291904D01*
X147453000Y-80169915D01*
X147453000Y-78627000D01*
X147433000Y-78627000D01*
X147433000Y-78373000D01*
X147453000Y-78373000D01*
X147453000Y-76830085D01*
X147230961Y-76708096D01*
X147148182Y-76725633D01*
X146888354Y-76836285D01*
X146655105Y-76995500D01*
X146457399Y-77197161D01*
X146307265Y-77426741D01*
X146238932Y-77298899D01*
X146059607Y-77080392D01*
X145841100Y-76901068D01*
X145591807Y-76767818D01*
X145321308Y-76685764D01*
X145040000Y-76658057D01*
X144758691Y-76685764D01*
X144488192Y-76767818D01*
X144238899Y-76901068D01*
X144020392Y-77080393D01*
X143927581Y-77193483D01*
X143925812Y-77175518D01*
X143889502Y-77055820D01*
X143830537Y-76945506D01*
X143751185Y-76848815D01*
X143654494Y-76769463D01*
X143544180Y-76710498D01*
X143424482Y-76674188D01*
X143300000Y-76661928D01*
X142134999Y-76661928D01*
X142134999Y-76470512D01*
X153259783Y-76470512D01*
X153301213Y-76750130D01*
X153396397Y-77016292D01*
X153463329Y-77141514D01*
X153707298Y-77213097D01*
X154520395Y-76400000D01*
X154879605Y-76400000D01*
X155692702Y-77213097D01*
X155936671Y-77141514D01*
X156057571Y-76886004D01*
X156117096Y-76648531D01*
X160509389Y-76648531D01*
X160551401Y-76938019D01*
X160649081Y-77213747D01*
X160722528Y-77351157D01*
X160971603Y-77428792D01*
X161820395Y-76580000D01*
X162179605Y-76580000D01*
X163028397Y-77428792D01*
X163270000Y-77353486D01*
X163511603Y-77428792D01*
X164360395Y-76580000D01*
X164719605Y-76580000D01*
X165568397Y-77428792D01*
X165817472Y-77351157D01*
X165943371Y-77087117D01*
X166015339Y-76803589D01*
X166030611Y-76511469D01*
X165988599Y-76221981D01*
X165890919Y-75946253D01*
X165817472Y-75808843D01*
X165568397Y-75731208D01*
X164719605Y-76580000D01*
X164360395Y-76580000D01*
X163511603Y-75731208D01*
X163270000Y-75806514D01*
X163028397Y-75731208D01*
X162179605Y-76580000D01*
X161820395Y-76580000D01*
X160971603Y-75731208D01*
X160722528Y-75808843D01*
X160596629Y-76072883D01*
X160524661Y-76356411D01*
X160509389Y-76648531D01*
X156117096Y-76648531D01*
X156126300Y-76611816D01*
X156140217Y-76329488D01*
X156098787Y-76049870D01*
X156003603Y-75783708D01*
X155936671Y-75658486D01*
X155692702Y-75586903D01*
X154879605Y-76400000D01*
X154520395Y-76400000D01*
X153707298Y-75586903D01*
X153463329Y-75658486D01*
X153342429Y-75913996D01*
X153273700Y-76188184D01*
X153259783Y-76470512D01*
X142134999Y-76470512D01*
X142134999Y-75407298D01*
X153886903Y-75407298D01*
X154700000Y-76220395D01*
X155513097Y-75407298D01*
X155441514Y-75163329D01*
X155240885Y-75068397D01*
X161151208Y-75068397D01*
X161226514Y-75310000D01*
X161151208Y-75551603D01*
X162000000Y-76400395D01*
X162848792Y-75551603D01*
X162773486Y-75310000D01*
X162848792Y-75068397D01*
X163691208Y-75068397D01*
X163766514Y-75310000D01*
X163691208Y-75551603D01*
X164540000Y-76400395D01*
X165388792Y-75551603D01*
X165313486Y-75310000D01*
X165388792Y-75068397D01*
X164540000Y-74219605D01*
X163691208Y-75068397D01*
X162848792Y-75068397D01*
X162000000Y-74219605D01*
X161151208Y-75068397D01*
X155240885Y-75068397D01*
X155186004Y-75042429D01*
X154911816Y-74973700D01*
X154629488Y-74959783D01*
X154349870Y-75001213D01*
X154083708Y-75096397D01*
X153958486Y-75163329D01*
X153886903Y-75407298D01*
X142134999Y-75407298D01*
X142134999Y-75132039D01*
X143158507Y-74108531D01*
X160509389Y-74108531D01*
X160551401Y-74398019D01*
X160649081Y-74673747D01*
X160722528Y-74811157D01*
X160971603Y-74888792D01*
X161820395Y-74040000D01*
X162179605Y-74040000D01*
X163028397Y-74888792D01*
X163270000Y-74813486D01*
X163511603Y-74888792D01*
X164360395Y-74040000D01*
X164719605Y-74040000D01*
X165568397Y-74888792D01*
X165817472Y-74811157D01*
X165943371Y-74547117D01*
X166015339Y-74263589D01*
X166030611Y-73971469D01*
X165988599Y-73681981D01*
X165890919Y-73406253D01*
X165817472Y-73268843D01*
X165568397Y-73191208D01*
X164719605Y-74040000D01*
X164360395Y-74040000D01*
X163511603Y-73191208D01*
X163270000Y-73266514D01*
X163028397Y-73191208D01*
X162179605Y-74040000D01*
X161820395Y-74040000D01*
X160971603Y-73191208D01*
X160722528Y-73268843D01*
X160596629Y-73532883D01*
X160524661Y-73816411D01*
X160509389Y-74108531D01*
X143158507Y-74108531D01*
X144616067Y-72650972D01*
X144758692Y-72694236D01*
X145040000Y-72721943D01*
X145321309Y-72694236D01*
X145591808Y-72612182D01*
X145841101Y-72478932D01*
X146059608Y-72299608D01*
X146238932Y-72081101D01*
X146310000Y-71948142D01*
X146381068Y-72081101D01*
X146560393Y-72299608D01*
X146778900Y-72478932D01*
X147028193Y-72612182D01*
X147298692Y-72694236D01*
X147580000Y-72721943D01*
X147861309Y-72694236D01*
X148131808Y-72612182D01*
X148381101Y-72478932D01*
X148599608Y-72299608D01*
X148778932Y-72081101D01*
X148850000Y-71948142D01*
X148921068Y-72081101D01*
X149100393Y-72299608D01*
X149318900Y-72478932D01*
X149568193Y-72612182D01*
X149838692Y-72694236D01*
X150120000Y-72721943D01*
X150401309Y-72694236D01*
X150671808Y-72612182D01*
X150921101Y-72478932D01*
X151139608Y-72299608D01*
X151318932Y-72081101D01*
X151452182Y-71831808D01*
X151534236Y-71561309D01*
X151555000Y-71350491D01*
X151555000Y-70900000D01*
X160511928Y-70900000D01*
X160511928Y-72100000D01*
X160528992Y-72273254D01*
X160579528Y-72439850D01*
X160661595Y-72593386D01*
X160772038Y-72727962D01*
X160906614Y-72838405D01*
X161060150Y-72920472D01*
X161169293Y-72953580D01*
X161151208Y-73011603D01*
X162000000Y-73860395D01*
X162848792Y-73011603D01*
X162830707Y-72953580D01*
X162939850Y-72920472D01*
X163093386Y-72838405D01*
X163227962Y-72727962D01*
X163338405Y-72593386D01*
X163406285Y-72466392D01*
X163593368Y-72653475D01*
X163766729Y-72769311D01*
X163691208Y-73011603D01*
X164540000Y-73860395D01*
X165388792Y-73011603D01*
X165313271Y-72769311D01*
X165486632Y-72653475D01*
X165693475Y-72446632D01*
X165855990Y-72203411D01*
X165967932Y-71933158D01*
X166025000Y-71646260D01*
X166025000Y-71353740D01*
X165967932Y-71066842D01*
X165855990Y-70796589D01*
X165693475Y-70553368D01*
X165486632Y-70346525D01*
X165243411Y-70184010D01*
X164973158Y-70072068D01*
X164686260Y-70015000D01*
X164393740Y-70015000D01*
X164106842Y-70072068D01*
X163836589Y-70184010D01*
X163593368Y-70346525D01*
X163406285Y-70533608D01*
X163338405Y-70406614D01*
X163227962Y-70272038D01*
X163093386Y-70161595D01*
X162939850Y-70079528D01*
X162773254Y-70028992D01*
X162600000Y-70011928D01*
X161400000Y-70011928D01*
X161226746Y-70028992D01*
X161060150Y-70079528D01*
X160906614Y-70161595D01*
X160772038Y-70272038D01*
X160661595Y-70406614D01*
X160579528Y-70560150D01*
X160528992Y-70726746D01*
X160511928Y-70900000D01*
X151555000Y-70900000D01*
X151555000Y-70409508D01*
X151534236Y-70198691D01*
X151452182Y-69928192D01*
X151318932Y-69678899D01*
X151139607Y-69460392D01*
X150921100Y-69281068D01*
X150671807Y-69147818D01*
X150401308Y-69065764D01*
X150120000Y-69038057D01*
X149838691Y-69065764D01*
X149568192Y-69147818D01*
X149318899Y-69281068D01*
X149100392Y-69460393D01*
X148921068Y-69678900D01*
X148850000Y-69811858D01*
X148778932Y-69678899D01*
X148599607Y-69460392D01*
X148381100Y-69281068D01*
X148131807Y-69147818D01*
X147861308Y-69065764D01*
X147580000Y-69038057D01*
X147298691Y-69065764D01*
X147028192Y-69147818D01*
X146778899Y-69281068D01*
X146560392Y-69460393D01*
X146381068Y-69678900D01*
X146310000Y-69811858D01*
X146238932Y-69678899D01*
X146059607Y-69460392D01*
X145841100Y-69281068D01*
X145591807Y-69147818D01*
X145321308Y-69065764D01*
X145040000Y-69038057D01*
X144758691Y-69065764D01*
X144488192Y-69147818D01*
X144238899Y-69281068D01*
X144020392Y-69460393D01*
X143841068Y-69678900D01*
X143770000Y-69811858D01*
X143698932Y-69678899D01*
X143519607Y-69460392D01*
X143301100Y-69281068D01*
X143051807Y-69147818D01*
X142781308Y-69065764D01*
X142500000Y-69038057D01*
X142218691Y-69065764D01*
X141948192Y-69147818D01*
X141698899Y-69281068D01*
X141480392Y-69460393D01*
X141301068Y-69678900D01*
X141167818Y-69928193D01*
X141085764Y-70198692D01*
X141065000Y-70409509D01*
X141065000Y-71350492D01*
X141085764Y-71561309D01*
X141167818Y-71831808D01*
X141301068Y-72081101D01*
X141480393Y-72299608D01*
X141698900Y-72478932D01*
X141948193Y-72612182D01*
X141957850Y-72615111D01*
X140542068Y-74030894D01*
X140505721Y-74060723D01*
X140386693Y-74205760D01*
X140298247Y-74371233D01*
X140256351Y-74509345D01*
X140243782Y-74550779D01*
X140225391Y-74737501D01*
X140229999Y-74784286D01*
X140230000Y-83127500D01*
X127890237Y-83127500D01*
X127794345Y-83010655D01*
X127565179Y-82822583D01*
X127541638Y-82810000D01*
X127565179Y-82797417D01*
X127794345Y-82609345D01*
X127890237Y-82492500D01*
X130213215Y-82492500D01*
X130260000Y-82497108D01*
X130306785Y-82492500D01*
X130446723Y-82478717D01*
X130626269Y-82424252D01*
X130791741Y-82335806D01*
X130936778Y-82216778D01*
X130966607Y-82180431D01*
X132684027Y-80463011D01*
X132665000Y-80558665D01*
X132665000Y-80841335D01*
X132720147Y-81118574D01*
X132828320Y-81379727D01*
X132985363Y-81614759D01*
X133185241Y-81814637D01*
X133420273Y-81971680D01*
X133681426Y-82079853D01*
X133958665Y-82135000D01*
X134241335Y-82135000D01*
X134518574Y-82079853D01*
X134779727Y-81971680D01*
X135014759Y-81814637D01*
X135214637Y-81614759D01*
X135371680Y-81379727D01*
X135479853Y-81118574D01*
X135535000Y-80841335D01*
X135535000Y-80558665D01*
X135479853Y-80281426D01*
X135371680Y-80020273D01*
X135214637Y-79785241D01*
X135014759Y-79585363D01*
X134779727Y-79428320D01*
X134518574Y-79320147D01*
X134241335Y-79265000D01*
X133958665Y-79265000D01*
X133863011Y-79284027D01*
X135508966Y-77638072D01*
X136400000Y-77638072D01*
X136524482Y-77625812D01*
X136644180Y-77589502D01*
X136754494Y-77530537D01*
X136851185Y-77451185D01*
X136930537Y-77354494D01*
X136989502Y-77244180D01*
X137025812Y-77124482D01*
X137038072Y-77000000D01*
X137038072Y-75400000D01*
X137025812Y-75275518D01*
X136989502Y-75155820D01*
X136930537Y-75045506D01*
X136851185Y-74948815D01*
X136754494Y-74869463D01*
X136644180Y-74810498D01*
X136524482Y-74774188D01*
X136400000Y-74761928D01*
X136392785Y-74761928D01*
X136413097Y-74692702D01*
X135600000Y-73879605D01*
X134786903Y-74692702D01*
X134807215Y-74761928D01*
X134800000Y-74761928D01*
X134675518Y-74774188D01*
X134555820Y-74810498D01*
X134445506Y-74869463D01*
X134348815Y-74948815D01*
X134269463Y-75045506D01*
X134210498Y-75155820D01*
X134174188Y-75275518D01*
X134161928Y-75400000D01*
X134161928Y-76291034D01*
X129865462Y-80587500D01*
X127890237Y-80587500D01*
X127795953Y-80472615D01*
X127839180Y-80459502D01*
X127949494Y-80400537D01*
X128046185Y-80321185D01*
X128125537Y-80224494D01*
X128184502Y-80114180D01*
X128220812Y-79994482D01*
X128233072Y-79870000D01*
X128230000Y-79285750D01*
X128071250Y-79127000D01*
X126627000Y-79127000D01*
X126627000Y-79147000D01*
X126373000Y-79147000D01*
X126373000Y-79127000D01*
X124928750Y-79127000D01*
X124770000Y-79285750D01*
X124766928Y-79870000D01*
X124779188Y-79994482D01*
X124815498Y-80114180D01*
X124874463Y-80224494D01*
X124953815Y-80321185D01*
X125050506Y-80400537D01*
X125160820Y-80459502D01*
X125204047Y-80472615D01*
X125017583Y-80699821D01*
X124877834Y-80961275D01*
X124791776Y-81244968D01*
X124762718Y-81540000D01*
X122160000Y-81540000D01*
X122160000Y-78130000D01*
X124766928Y-78130000D01*
X124770000Y-78714250D01*
X124928750Y-78873000D01*
X126373000Y-78873000D01*
X126373000Y-77653750D01*
X126627000Y-77653750D01*
X126627000Y-78873000D01*
X128071250Y-78873000D01*
X128230000Y-78714250D01*
X128233072Y-78130000D01*
X128220812Y-78005518D01*
X128184502Y-77885820D01*
X128125537Y-77775506D01*
X128046185Y-77678815D01*
X127949494Y-77599463D01*
X127839180Y-77540498D01*
X127719482Y-77504188D01*
X127595000Y-77491928D01*
X126785750Y-77495000D01*
X126627000Y-77653750D01*
X126373000Y-77653750D01*
X126214250Y-77495000D01*
X125405000Y-77491928D01*
X125280518Y-77504188D01*
X125160820Y-77540498D01*
X125050506Y-77599463D01*
X124953815Y-77678815D01*
X124874463Y-77775506D01*
X124815498Y-77885820D01*
X124779188Y-78005518D01*
X124766928Y-78130000D01*
X122160000Y-78130000D01*
X122160000Y-73440000D01*
X124762718Y-73440000D01*
X124791776Y-73735032D01*
X124877834Y-74018725D01*
X125017583Y-74280179D01*
X125205655Y-74509345D01*
X125434821Y-74697417D01*
X125696275Y-74837166D01*
X125979968Y-74923224D01*
X126201064Y-74945000D01*
X126798936Y-74945000D01*
X127020032Y-74923224D01*
X127303725Y-74837166D01*
X127565179Y-74697417D01*
X127794345Y-74509345D01*
X127982417Y-74280179D01*
X128122166Y-74018725D01*
X128197461Y-73770512D01*
X134159783Y-73770512D01*
X134201213Y-74050130D01*
X134296397Y-74316292D01*
X134363329Y-74441514D01*
X134607298Y-74513097D01*
X135420395Y-73700000D01*
X135779605Y-73700000D01*
X136592702Y-74513097D01*
X136836671Y-74441514D01*
X136957571Y-74186004D01*
X137026300Y-73911816D01*
X137040217Y-73629488D01*
X136998787Y-73349870D01*
X136903603Y-73083708D01*
X136836671Y-72958486D01*
X136592702Y-72886903D01*
X135779605Y-73700000D01*
X135420395Y-73700000D01*
X134607298Y-72886903D01*
X134363329Y-72958486D01*
X134242429Y-73213996D01*
X134173700Y-73488184D01*
X134159783Y-73770512D01*
X128197461Y-73770512D01*
X128208224Y-73735032D01*
X128237282Y-73440000D01*
X128208224Y-73144968D01*
X128122166Y-72861275D01*
X128039865Y-72707298D01*
X134786903Y-72707298D01*
X135600000Y-73520395D01*
X136413097Y-72707298D01*
X136341514Y-72463329D01*
X136086004Y-72342429D01*
X135811816Y-72273700D01*
X135529488Y-72259783D01*
X135249870Y-72301213D01*
X134983708Y-72396397D01*
X134858486Y-72463329D01*
X134786903Y-72707298D01*
X128039865Y-72707298D01*
X127982417Y-72599821D01*
X127795953Y-72372615D01*
X127839180Y-72359502D01*
X127949494Y-72300537D01*
X128046185Y-72221185D01*
X128125537Y-72124494D01*
X128184502Y-72014180D01*
X128220812Y-71894482D01*
X128233072Y-71770000D01*
X128230000Y-71185750D01*
X128071250Y-71027000D01*
X126627000Y-71027000D01*
X126627000Y-71047000D01*
X126373000Y-71047000D01*
X126373000Y-71027000D01*
X124928750Y-71027000D01*
X124770000Y-71185750D01*
X124766928Y-71770000D01*
X124779188Y-71894482D01*
X124815498Y-72014180D01*
X124874463Y-72124494D01*
X124953815Y-72221185D01*
X125050506Y-72300537D01*
X125160820Y-72359502D01*
X125204047Y-72372615D01*
X125017583Y-72599821D01*
X124877834Y-72861275D01*
X124791776Y-73144968D01*
X124762718Y-73440000D01*
X122160000Y-73440000D01*
X122160000Y-70030000D01*
X124766928Y-70030000D01*
X124770000Y-70614250D01*
X124928750Y-70773000D01*
X126373000Y-70773000D01*
X126373000Y-69553750D01*
X126627000Y-69553750D01*
X126627000Y-70773000D01*
X128071250Y-70773000D01*
X128230000Y-70614250D01*
X128233072Y-70030000D01*
X128220812Y-69905518D01*
X128184502Y-69785820D01*
X128125537Y-69675506D01*
X128046185Y-69578815D01*
X127949494Y-69499463D01*
X127839180Y-69440498D01*
X127719482Y-69404188D01*
X127595000Y-69391928D01*
X126785750Y-69395000D01*
X126627000Y-69553750D01*
X126373000Y-69553750D01*
X126214250Y-69395000D01*
X125405000Y-69391928D01*
X125280518Y-69404188D01*
X125160820Y-69440498D01*
X125050506Y-69499463D01*
X124953815Y-69578815D01*
X124874463Y-69675506D01*
X124815498Y-69785820D01*
X124779188Y-69905518D01*
X124766928Y-70030000D01*
X122160000Y-70030000D01*
X122160000Y-67000000D01*
X133161928Y-67000000D01*
X133174188Y-67124482D01*
X133210498Y-67244180D01*
X133269463Y-67354494D01*
X133348815Y-67451185D01*
X133445506Y-67530537D01*
X133555820Y-67589502D01*
X133675518Y-67625812D01*
X133800000Y-67638072D01*
X134314250Y-67635000D01*
X134473000Y-67476250D01*
X134473000Y-66327000D01*
X133323750Y-66327000D01*
X133165000Y-66485750D01*
X133161928Y-67000000D01*
X122160000Y-67000000D01*
X122160000Y-65400000D01*
X133161928Y-65400000D01*
X133165000Y-65914250D01*
X133323750Y-66073000D01*
X134473000Y-66073000D01*
X134473000Y-64923750D01*
X134727000Y-64923750D01*
X134727000Y-66073000D01*
X134747000Y-66073000D01*
X134747000Y-66327000D01*
X134727000Y-66327000D01*
X134727000Y-67476250D01*
X134885750Y-67635000D01*
X135400000Y-67638072D01*
X135524482Y-67625812D01*
X135644180Y-67589502D01*
X135754494Y-67530537D01*
X135851185Y-67451185D01*
X135930537Y-67354494D01*
X135989502Y-67244180D01*
X136018661Y-67148057D01*
X136185241Y-67314637D01*
X136420273Y-67471680D01*
X136681426Y-67579853D01*
X136958665Y-67635000D01*
X137241335Y-67635000D01*
X137518574Y-67579853D01*
X137779727Y-67471680D01*
X138014759Y-67314637D01*
X138176896Y-67152500D01*
X142703313Y-67152500D01*
X142750098Y-67157108D01*
X142796883Y-67152500D01*
X142936821Y-67138717D01*
X143116367Y-67084252D01*
X143281839Y-66995806D01*
X143426876Y-66876778D01*
X143456705Y-66840431D01*
X143725124Y-66572012D01*
X143728320Y-66579727D01*
X143885363Y-66814759D01*
X144085241Y-67014637D01*
X144320273Y-67171680D01*
X144581426Y-67279853D01*
X144858665Y-67335000D01*
X145141335Y-67335000D01*
X145418574Y-67279853D01*
X145679727Y-67171680D01*
X145914759Y-67014637D01*
X146036694Y-66892702D01*
X146686903Y-66892702D01*
X146758486Y-67136671D01*
X147013996Y-67257571D01*
X147288184Y-67326300D01*
X147570512Y-67340217D01*
X147850130Y-67298787D01*
X148116292Y-67203603D01*
X148241514Y-67136671D01*
X148313097Y-66892702D01*
X147500000Y-66079605D01*
X146686903Y-66892702D01*
X146036694Y-66892702D01*
X146114637Y-66814759D01*
X146248692Y-66614131D01*
X146263329Y-66641514D01*
X146507298Y-66713097D01*
X147320395Y-65900000D01*
X147679605Y-65900000D01*
X148492702Y-66713097D01*
X148736671Y-66641514D01*
X148857571Y-66386004D01*
X148926300Y-66111816D01*
X148940217Y-65829488D01*
X148898787Y-65549870D01*
X148803603Y-65283708D01*
X148758861Y-65200000D01*
X151861928Y-65200000D01*
X151861928Y-66800000D01*
X151874188Y-66924482D01*
X151910498Y-67044180D01*
X151969463Y-67154494D01*
X152048815Y-67251185D01*
X152145506Y-67330537D01*
X152255820Y-67389502D01*
X152375518Y-67425812D01*
X152500000Y-67438072D01*
X154100000Y-67438072D01*
X154224482Y-67425812D01*
X154344180Y-67389502D01*
X154454494Y-67330537D01*
X154551185Y-67251185D01*
X154630537Y-67154494D01*
X154689502Y-67044180D01*
X154705117Y-66992702D01*
X154986903Y-66992702D01*
X155058486Y-67236671D01*
X155313996Y-67357571D01*
X155588184Y-67426300D01*
X155870512Y-67440217D01*
X156150130Y-67398787D01*
X156416292Y-67303603D01*
X156541514Y-67236671D01*
X156613097Y-66992702D01*
X155800000Y-66179605D01*
X154986903Y-66992702D01*
X154705117Y-66992702D01*
X154725812Y-66924482D01*
X154738072Y-66800000D01*
X154738072Y-66792785D01*
X154807298Y-66813097D01*
X155620395Y-66000000D01*
X155979605Y-66000000D01*
X156792702Y-66813097D01*
X157036671Y-66741514D01*
X157157571Y-66486004D01*
X157226300Y-66211816D01*
X157240217Y-65929488D01*
X157198787Y-65649870D01*
X157103603Y-65383708D01*
X157036671Y-65258486D01*
X156792702Y-65186903D01*
X155979605Y-66000000D01*
X155620395Y-66000000D01*
X154807298Y-65186903D01*
X154738072Y-65207215D01*
X154738072Y-65200000D01*
X154725812Y-65075518D01*
X154705118Y-65007298D01*
X154986903Y-65007298D01*
X155800000Y-65820395D01*
X156613097Y-65007298D01*
X156541514Y-64763329D01*
X156286004Y-64642429D01*
X156011816Y-64573700D01*
X155729488Y-64559783D01*
X155449870Y-64601213D01*
X155183708Y-64696397D01*
X155058486Y-64763329D01*
X154986903Y-65007298D01*
X154705118Y-65007298D01*
X154689502Y-64955820D01*
X154630537Y-64845506D01*
X154551185Y-64748815D01*
X154454494Y-64669463D01*
X154344180Y-64610498D01*
X154224482Y-64574188D01*
X154100000Y-64561928D01*
X152500000Y-64561928D01*
X152375518Y-64574188D01*
X152255820Y-64610498D01*
X152145506Y-64669463D01*
X152048815Y-64748815D01*
X151969463Y-64845506D01*
X151910498Y-64955820D01*
X151874188Y-65075518D01*
X151861928Y-65200000D01*
X148758861Y-65200000D01*
X148736671Y-65158486D01*
X148492702Y-65086903D01*
X147679605Y-65900000D01*
X147320395Y-65900000D01*
X146507298Y-65086903D01*
X146263329Y-65158486D01*
X146249676Y-65187341D01*
X146114637Y-64985241D01*
X146036694Y-64907298D01*
X146686903Y-64907298D01*
X147500000Y-65720395D01*
X148313097Y-64907298D01*
X148241514Y-64663329D01*
X147986004Y-64542429D01*
X147711816Y-64473700D01*
X147429488Y-64459783D01*
X147149870Y-64501213D01*
X146883708Y-64596397D01*
X146758486Y-64663329D01*
X146686903Y-64907298D01*
X146036694Y-64907298D01*
X145914759Y-64785363D01*
X145679727Y-64628320D01*
X145672012Y-64625124D01*
X148344636Y-61952500D01*
X148423104Y-61952500D01*
X148585241Y-62114637D01*
X148820273Y-62271680D01*
X149081426Y-62379853D01*
X149358665Y-62435000D01*
X149641335Y-62435000D01*
X149918574Y-62379853D01*
X150179727Y-62271680D01*
X150414759Y-62114637D01*
X150614637Y-61914759D01*
X150771680Y-61679727D01*
X150879853Y-61418574D01*
X150935000Y-61141335D01*
X150935000Y-60858665D01*
X158225000Y-60858665D01*
X158225000Y-61141335D01*
X158280147Y-61418574D01*
X158388320Y-61679727D01*
X158545363Y-61914759D01*
X158745241Y-62114637D01*
X158980273Y-62271680D01*
X159241426Y-62379853D01*
X159518665Y-62435000D01*
X159801335Y-62435000D01*
X160078574Y-62379853D01*
X160339727Y-62271680D01*
X160574759Y-62114637D01*
X160774637Y-61914759D01*
X160931680Y-61679727D01*
X161039853Y-61418574D01*
X161095000Y-61141335D01*
X161095000Y-60858665D01*
X161039853Y-60581426D01*
X160931680Y-60320273D01*
X160774637Y-60085241D01*
X160574759Y-59885363D01*
X160339727Y-59728320D01*
X160078574Y-59620147D01*
X159801335Y-59565000D01*
X159518665Y-59565000D01*
X159241426Y-59620147D01*
X158980273Y-59728320D01*
X158745241Y-59885363D01*
X158545363Y-60085241D01*
X158388320Y-60320273D01*
X158280147Y-60581426D01*
X158225000Y-60858665D01*
X150935000Y-60858665D01*
X150879853Y-60581426D01*
X150771680Y-60320273D01*
X150614637Y-60085241D01*
X150414759Y-59885363D01*
X150179727Y-59728320D01*
X149918574Y-59620147D01*
X149641335Y-59565000D01*
X149358665Y-59565000D01*
X149081426Y-59620147D01*
X148820273Y-59728320D01*
X148585241Y-59885363D01*
X148423104Y-60047500D01*
X147996883Y-60047500D01*
X147950098Y-60042892D01*
X147903313Y-60047500D01*
X147763375Y-60061283D01*
X147583829Y-60115748D01*
X147418357Y-60204194D01*
X147273320Y-60323222D01*
X147243491Y-60359569D01*
X147034517Y-60568543D01*
X146931680Y-60320273D01*
X146774637Y-60085241D01*
X146574759Y-59885363D01*
X146339727Y-59728320D01*
X146078574Y-59620147D01*
X145801335Y-59565000D01*
X145518665Y-59565000D01*
X145241426Y-59620147D01*
X144980273Y-59728320D01*
X144745241Y-59885363D01*
X144545363Y-60085241D01*
X144388320Y-60320273D01*
X144280147Y-60581426D01*
X144225000Y-60858665D01*
X144225000Y-61141335D01*
X144280147Y-61418574D01*
X144388320Y-61679727D01*
X144545363Y-61914759D01*
X144745241Y-62114637D01*
X144980273Y-62271680D01*
X145228543Y-62374517D01*
X142355560Y-65247500D01*
X138176896Y-65247500D01*
X138014759Y-65085363D01*
X137779727Y-64928320D01*
X137518574Y-64820147D01*
X137241335Y-64765000D01*
X136958665Y-64765000D01*
X136681426Y-64820147D01*
X136420273Y-64928320D01*
X136185241Y-65085363D01*
X136018661Y-65251943D01*
X135989502Y-65155820D01*
X135930537Y-65045506D01*
X135851185Y-64948815D01*
X135754494Y-64869463D01*
X135644180Y-64810498D01*
X135524482Y-64774188D01*
X135400000Y-64761928D01*
X134885750Y-64765000D01*
X134727000Y-64923750D01*
X134473000Y-64923750D01*
X134314250Y-64765000D01*
X133800000Y-64761928D01*
X133675518Y-64774188D01*
X133555820Y-64810498D01*
X133445506Y-64869463D01*
X133348815Y-64948815D01*
X133269463Y-65045506D01*
X133210498Y-65155820D01*
X133174188Y-65275518D01*
X133161928Y-65400000D01*
X122160000Y-65400000D01*
X122160000Y-60858665D01*
X134065000Y-60858665D01*
X134065000Y-61141335D01*
X134120147Y-61418574D01*
X134228320Y-61679727D01*
X134385363Y-61914759D01*
X134585241Y-62114637D01*
X134820273Y-62271680D01*
X135081426Y-62379853D01*
X135358665Y-62435000D01*
X135641335Y-62435000D01*
X135918574Y-62379853D01*
X136179727Y-62271680D01*
X136414759Y-62114637D01*
X136614637Y-61914759D01*
X136771680Y-61679727D01*
X136879853Y-61418574D01*
X136935000Y-61141335D01*
X136935000Y-60858665D01*
X136879853Y-60581426D01*
X136771680Y-60320273D01*
X136614637Y-60085241D01*
X136414759Y-59885363D01*
X136179727Y-59728320D01*
X135918574Y-59620147D01*
X135641335Y-59565000D01*
X135358665Y-59565000D01*
X135081426Y-59620147D01*
X134820273Y-59728320D01*
X134585241Y-59885363D01*
X134385363Y-60085241D01*
X134228320Y-60320273D01*
X134120147Y-60581426D01*
X134065000Y-60858665D01*
X122160000Y-60858665D01*
X122160000Y-59160000D01*
X168340001Y-59160000D01*
X168340000Y-125340000D01*
%TA.AperFunction,Conductor*%
D21*
G36*
X168340000Y-125340000D02*
G01*
X122160000Y-125340000D01*
X122160000Y-122095000D01*
X142291928Y-122095000D01*
X142304188Y-122219482D01*
X142340498Y-122339180D01*
X142399463Y-122449494D01*
X142478815Y-122546185D01*
X142575506Y-122625537D01*
X142685820Y-122684502D01*
X142805518Y-122720812D01*
X142930000Y-122733072D01*
X143514250Y-122730000D01*
X143673000Y-122571250D01*
X143673000Y-121127000D01*
X142453750Y-121127000D01*
X142295000Y-121285750D01*
X142291928Y-122095000D01*
X122160000Y-122095000D01*
X122160000Y-119258665D01*
X122665000Y-119258665D01*
X122665000Y-119541335D01*
X122720147Y-119818574D01*
X122828320Y-120079727D01*
X122985363Y-120314759D01*
X123185241Y-120514637D01*
X123420273Y-120671680D01*
X123681426Y-120779853D01*
X123958665Y-120835000D01*
X124241335Y-120835000D01*
X124518574Y-120779853D01*
X124779727Y-120671680D01*
X125014759Y-120514637D01*
X125214637Y-120314759D01*
X125371680Y-120079727D01*
X125479853Y-119818574D01*
X125535000Y-119541335D01*
X125535000Y-119258665D01*
X132825000Y-119258665D01*
X132825000Y-119541335D01*
X132880147Y-119818574D01*
X132988320Y-120079727D01*
X133145363Y-120314759D01*
X133345241Y-120514637D01*
X133580273Y-120671680D01*
X133841426Y-120779853D01*
X134118665Y-120835000D01*
X134401335Y-120835000D01*
X134678574Y-120779853D01*
X134939727Y-120671680D01*
X135174759Y-120514637D01*
X135374637Y-120314759D01*
X135531680Y-120079727D01*
X135604054Y-119905000D01*
X142291928Y-119905000D01*
X142295000Y-120714250D01*
X142453750Y-120873000D01*
X143673000Y-120873000D01*
X143673000Y-119428750D01*
X143927000Y-119428750D01*
X143927000Y-120873000D01*
X143947000Y-120873000D01*
X143947000Y-121127000D01*
X143927000Y-121127000D01*
X143927000Y-122571250D01*
X144085750Y-122730000D01*
X144670000Y-122733072D01*
X144794482Y-122720812D01*
X144914180Y-122684502D01*
X145024494Y-122625537D01*
X145121185Y-122546185D01*
X145200537Y-122449494D01*
X145259502Y-122339180D01*
X145272615Y-122295953D01*
X145499822Y-122482417D01*
X145761276Y-122622166D01*
X146044969Y-122708224D01*
X146340000Y-122737282D01*
X146635032Y-122708224D01*
X146918725Y-122622166D01*
X147180179Y-122482417D01*
X147409345Y-122294345D01*
X147597417Y-122065179D01*
X147610000Y-122041638D01*
X147622583Y-122065179D01*
X147810655Y-122294345D01*
X148039822Y-122482417D01*
X148301276Y-122622166D01*
X148584969Y-122708224D01*
X148880000Y-122737282D01*
X149175032Y-122708224D01*
X149458725Y-122622166D01*
X149720179Y-122482417D01*
X149949345Y-122294345D01*
X150137417Y-122065179D01*
X150277166Y-121803724D01*
X150363224Y-121520031D01*
X150385000Y-121298935D01*
X150385000Y-120701064D01*
X150363224Y-120479968D01*
X150277166Y-120196275D01*
X150137417Y-119934821D01*
X149949345Y-119705655D01*
X149720178Y-119517583D01*
X149458724Y-119377834D01*
X149363801Y-119349039D01*
X153948096Y-119349039D01*
X153988754Y-119483087D01*
X154108963Y-119737420D01*
X154276481Y-119963414D01*
X154484869Y-120152385D01*
X154726119Y-120297070D01*
X154990960Y-120391909D01*
X155213000Y-120270624D01*
X155213000Y-119127000D01*
X155467000Y-119127000D01*
X155467000Y-120270624D01*
X155689040Y-120391909D01*
X155953881Y-120297070D01*
X156195131Y-120152385D01*
X156403519Y-119963414D01*
X156571037Y-119737420D01*
X156691246Y-119483087D01*
X156731904Y-119349039D01*
X156609915Y-119127000D01*
X155467000Y-119127000D01*
X155213000Y-119127000D01*
X154070085Y-119127000D01*
X153948096Y-119349039D01*
X149363801Y-119349039D01*
X149175031Y-119291776D01*
X148880000Y-119262718D01*
X148584968Y-119291776D01*
X148301275Y-119377834D01*
X148039821Y-119517583D01*
X147810655Y-119705655D01*
X147622583Y-119934822D01*
X147610000Y-119958363D01*
X147597417Y-119934821D01*
X147409345Y-119705655D01*
X147180178Y-119517583D01*
X146918724Y-119377834D01*
X146635031Y-119291776D01*
X146340000Y-119262718D01*
X146044968Y-119291776D01*
X145761275Y-119377834D01*
X145499821Y-119517583D01*
X145272615Y-119704047D01*
X145259502Y-119660820D01*
X145200537Y-119550506D01*
X145121185Y-119453815D01*
X145024494Y-119374463D01*
X144914180Y-119315498D01*
X144794482Y-119279188D01*
X144670000Y-119266928D01*
X144085750Y-119270000D01*
X143927000Y-119428750D01*
X143673000Y-119428750D01*
X143514250Y-119270000D01*
X142930000Y-119266928D01*
X142805518Y-119279188D01*
X142685820Y-119315498D01*
X142575506Y-119374463D01*
X142478815Y-119453815D01*
X142399463Y-119550506D01*
X142340498Y-119660820D01*
X142304188Y-119780518D01*
X142291928Y-119905000D01*
X135604054Y-119905000D01*
X135639853Y-119818574D01*
X135695000Y-119541335D01*
X135695000Y-119258665D01*
X135639853Y-118981426D01*
X135531680Y-118720273D01*
X135485368Y-118650961D01*
X153948096Y-118650961D01*
X154070085Y-118873000D01*
X155213000Y-118873000D01*
X155213000Y-117729376D01*
X155467000Y-117729376D01*
X155467000Y-118873000D01*
X156609915Y-118873000D01*
X156617790Y-118858665D01*
X164065000Y-118858665D01*
X164065000Y-119141335D01*
X164120147Y-119418574D01*
X164228320Y-119679727D01*
X164385363Y-119914759D01*
X164585241Y-120114637D01*
X164820273Y-120271680D01*
X165081426Y-120379853D01*
X165358665Y-120435000D01*
X165641335Y-120435000D01*
X165918574Y-120379853D01*
X166179727Y-120271680D01*
X166414759Y-120114637D01*
X166614637Y-119914759D01*
X166771680Y-119679727D01*
X166879853Y-119418574D01*
X166935000Y-119141335D01*
X166935000Y-118858665D01*
X166879853Y-118581426D01*
X166771680Y-118320273D01*
X166614637Y-118085241D01*
X166414759Y-117885363D01*
X166179727Y-117728320D01*
X165918574Y-117620147D01*
X165641335Y-117565000D01*
X165358665Y-117565000D01*
X165081426Y-117620147D01*
X164820273Y-117728320D01*
X164585241Y-117885363D01*
X164385363Y-118085241D01*
X164228320Y-118320273D01*
X164120147Y-118581426D01*
X164065000Y-118858665D01*
X156617790Y-118858665D01*
X156731904Y-118650961D01*
X156691246Y-118516913D01*
X156571037Y-118262580D01*
X156403519Y-118036586D01*
X156195131Y-117847615D01*
X155953881Y-117702930D01*
X155689040Y-117608091D01*
X155467000Y-117729376D01*
X155213000Y-117729376D01*
X154990960Y-117608091D01*
X154726119Y-117702930D01*
X154484869Y-117847615D01*
X154276481Y-118036586D01*
X154108963Y-118262580D01*
X153988754Y-118516913D01*
X153948096Y-118650961D01*
X135485368Y-118650961D01*
X135374637Y-118485241D01*
X135174759Y-118285363D01*
X134939727Y-118128320D01*
X134678574Y-118020147D01*
X134401335Y-117965000D01*
X134118665Y-117965000D01*
X133841426Y-118020147D01*
X133580273Y-118128320D01*
X133345241Y-118285363D01*
X133145363Y-118485241D01*
X132988320Y-118720273D01*
X132880147Y-118981426D01*
X132825000Y-119258665D01*
X125535000Y-119258665D01*
X125479853Y-118981426D01*
X125371680Y-118720273D01*
X125214637Y-118485241D01*
X125014759Y-118285363D01*
X124779727Y-118128320D01*
X124518574Y-118020147D01*
X124241335Y-117965000D01*
X123958665Y-117965000D01*
X123681426Y-118020147D01*
X123420273Y-118128320D01*
X123185241Y-118285363D01*
X122985363Y-118485241D01*
X122828320Y-118720273D01*
X122720147Y-118981426D01*
X122665000Y-119258665D01*
X122160000Y-119258665D01*
X122160000Y-116058665D01*
X122665000Y-116058665D01*
X122665000Y-116341335D01*
X122720147Y-116618574D01*
X122828320Y-116879727D01*
X122985363Y-117114759D01*
X123185241Y-117314637D01*
X123420273Y-117471680D01*
X123681426Y-117579853D01*
X123958665Y-117635000D01*
X124241335Y-117635000D01*
X124518574Y-117579853D01*
X124779727Y-117471680D01*
X125014759Y-117314637D01*
X125214637Y-117114759D01*
X125371680Y-116879727D01*
X125479853Y-116618574D01*
X125535000Y-116341335D01*
X125535000Y-116058665D01*
X132825000Y-116058665D01*
X132825000Y-116341335D01*
X132880147Y-116618574D01*
X132988320Y-116879727D01*
X133145363Y-117114759D01*
X133345241Y-117314637D01*
X133580273Y-117471680D01*
X133841426Y-117579853D01*
X134118665Y-117635000D01*
X134401335Y-117635000D01*
X134678574Y-117579853D01*
X134939727Y-117471680D01*
X135174759Y-117314637D01*
X135336896Y-117152500D01*
X144953215Y-117152500D01*
X145000000Y-117157108D01*
X145046785Y-117152500D01*
X145186723Y-117138717D01*
X145366269Y-117084252D01*
X145531741Y-116995806D01*
X145676778Y-116876778D01*
X145706607Y-116840431D01*
X149012038Y-113535000D01*
X149241335Y-113535000D01*
X149518574Y-113479853D01*
X149779727Y-113371680D01*
X150014759Y-113214637D01*
X150214637Y-113014759D01*
X150371680Y-112779727D01*
X150479853Y-112518574D01*
X150535000Y-112241335D01*
X150535000Y-111958665D01*
X152665000Y-111958665D01*
X152665000Y-112241335D01*
X152720147Y-112518574D01*
X152828320Y-112779727D01*
X152985363Y-113014759D01*
X153185241Y-113214637D01*
X153420273Y-113371680D01*
X153681426Y-113479853D01*
X153958665Y-113535000D01*
X154241335Y-113535000D01*
X154518574Y-113479853D01*
X154779727Y-113371680D01*
X155014759Y-113214637D01*
X155214637Y-113014759D01*
X155371680Y-112779727D01*
X155479853Y-112518574D01*
X155535000Y-112241335D01*
X155535000Y-112200000D01*
X160561928Y-112200000D01*
X160561928Y-113800000D01*
X160574188Y-113924482D01*
X160610498Y-114044180D01*
X160669463Y-114154494D01*
X160748815Y-114251185D01*
X160845506Y-114330537D01*
X160955820Y-114389502D01*
X161075518Y-114425812D01*
X161200000Y-114438072D01*
X162800000Y-114438072D01*
X162924482Y-114425812D01*
X163044180Y-114389502D01*
X163154494Y-114330537D01*
X163251185Y-114251185D01*
X163330537Y-114154494D01*
X163389502Y-114044180D01*
X163425812Y-113924482D01*
X163438072Y-113800000D01*
X163438072Y-112878665D01*
X163565000Y-112878665D01*
X163565000Y-113161335D01*
X163620147Y-113438574D01*
X163728320Y-113699727D01*
X163885363Y-113934759D01*
X164085241Y-114134637D01*
X164320273Y-114291680D01*
X164581426Y-114399853D01*
X164858665Y-114455000D01*
X165141335Y-114455000D01*
X165418574Y-114399853D01*
X165679727Y-114291680D01*
X165914759Y-114134637D01*
X166114637Y-113934759D01*
X166271680Y-113699727D01*
X166379853Y-113438574D01*
X166435000Y-113161335D01*
X166435000Y-112878665D01*
X166379853Y-112601426D01*
X166271680Y-112340273D01*
X166114637Y-112105241D01*
X165914759Y-111905363D01*
X165679727Y-111748320D01*
X165418574Y-111640147D01*
X165141335Y-111585000D01*
X164858665Y-111585000D01*
X164581426Y-111640147D01*
X164320273Y-111748320D01*
X164085241Y-111905363D01*
X163885363Y-112105241D01*
X163728320Y-112340273D01*
X163620147Y-112601426D01*
X163565000Y-112878665D01*
X163438072Y-112878665D01*
X163438072Y-112200000D01*
X163425812Y-112075518D01*
X163389502Y-111955820D01*
X163330537Y-111845506D01*
X163251185Y-111748815D01*
X163154494Y-111669463D01*
X163044180Y-111610498D01*
X162924482Y-111574188D01*
X162800000Y-111561928D01*
X161200000Y-111561928D01*
X161075518Y-111574188D01*
X160955820Y-111610498D01*
X160845506Y-111669463D01*
X160748815Y-111748815D01*
X160669463Y-111845506D01*
X160610498Y-111955820D01*
X160574188Y-112075518D01*
X160561928Y-112200000D01*
X155535000Y-112200000D01*
X155535000Y-111958665D01*
X155479853Y-111681426D01*
X155371680Y-111420273D01*
X155214637Y-111185241D01*
X155014759Y-110985363D01*
X154779727Y-110828320D01*
X154518574Y-110720147D01*
X154241335Y-110665000D01*
X153958665Y-110665000D01*
X153681426Y-110720147D01*
X153420273Y-110828320D01*
X153185241Y-110985363D01*
X152985363Y-111185241D01*
X152828320Y-111420273D01*
X152720147Y-111681426D01*
X152665000Y-111958665D01*
X150535000Y-111958665D01*
X150479853Y-111681426D01*
X150371680Y-111420273D01*
X150214637Y-111185241D01*
X150014759Y-110985363D01*
X149779727Y-110828320D01*
X149518574Y-110720147D01*
X149241335Y-110665000D01*
X148958665Y-110665000D01*
X148681426Y-110720147D01*
X148420273Y-110828320D01*
X148185241Y-110985363D01*
X147985363Y-111185241D01*
X147828320Y-111420273D01*
X147720147Y-111681426D01*
X147665000Y-111958665D01*
X147665000Y-112187962D01*
X144605462Y-115247500D01*
X135336896Y-115247500D01*
X135174759Y-115085363D01*
X134939727Y-114928320D01*
X134678574Y-114820147D01*
X134401335Y-114765000D01*
X134118665Y-114765000D01*
X133841426Y-114820147D01*
X133580273Y-114928320D01*
X133345241Y-115085363D01*
X133145363Y-115285241D01*
X132988320Y-115520273D01*
X132880147Y-115781426D01*
X132825000Y-116058665D01*
X125535000Y-116058665D01*
X125479853Y-115781426D01*
X125371680Y-115520273D01*
X125214637Y-115285241D01*
X125014759Y-115085363D01*
X124779727Y-114928320D01*
X124518574Y-114820147D01*
X124241335Y-114765000D01*
X123958665Y-114765000D01*
X123681426Y-114820147D01*
X123420273Y-114928320D01*
X123185241Y-115085363D01*
X122985363Y-115285241D01*
X122828320Y-115520273D01*
X122720147Y-115781426D01*
X122665000Y-116058665D01*
X122160000Y-116058665D01*
X122160000Y-112858665D01*
X122665000Y-112858665D01*
X122665000Y-113141335D01*
X122720147Y-113418574D01*
X122828320Y-113679727D01*
X122985363Y-113914759D01*
X123185241Y-114114637D01*
X123420273Y-114271680D01*
X123681426Y-114379853D01*
X123958665Y-114435000D01*
X124241335Y-114435000D01*
X124518574Y-114379853D01*
X124779727Y-114271680D01*
X125014759Y-114114637D01*
X125214637Y-113914759D01*
X125371680Y-113679727D01*
X125479853Y-113418574D01*
X125493684Y-113349039D01*
X132868096Y-113349039D01*
X132908754Y-113483087D01*
X133028963Y-113737420D01*
X133196481Y-113963414D01*
X133404869Y-114152385D01*
X133646119Y-114297070D01*
X133910960Y-114391909D01*
X134133000Y-114270624D01*
X134133000Y-113127000D01*
X134387000Y-113127000D01*
X134387000Y-114270624D01*
X134609040Y-114391909D01*
X134873881Y-114297070D01*
X135115131Y-114152385D01*
X135323519Y-113963414D01*
X135491037Y-113737420D01*
X135611246Y-113483087D01*
X135651904Y-113349039D01*
X135529915Y-113127000D01*
X134387000Y-113127000D01*
X134133000Y-113127000D01*
X132990085Y-113127000D01*
X132868096Y-113349039D01*
X125493684Y-113349039D01*
X125535000Y-113141335D01*
X125535000Y-112858665D01*
X125493685Y-112650961D01*
X132868096Y-112650961D01*
X132990085Y-112873000D01*
X134133000Y-112873000D01*
X134133000Y-111729376D01*
X134387000Y-111729376D01*
X134387000Y-112873000D01*
X135529915Y-112873000D01*
X135651904Y-112650961D01*
X135611246Y-112516913D01*
X135491037Y-112262580D01*
X135323519Y-112036586D01*
X135237592Y-111958665D01*
X136865000Y-111958665D01*
X136865000Y-112241335D01*
X136920147Y-112518574D01*
X137028320Y-112779727D01*
X137185363Y-113014759D01*
X137385241Y-113214637D01*
X137620273Y-113371680D01*
X137881426Y-113479853D01*
X138158665Y-113535000D01*
X138441335Y-113535000D01*
X138718574Y-113479853D01*
X138979727Y-113371680D01*
X139214759Y-113214637D01*
X139414637Y-113014759D01*
X139571680Y-112779727D01*
X139679853Y-112518574D01*
X139735000Y-112241335D01*
X139735000Y-111958665D01*
X141865000Y-111958665D01*
X141865000Y-112241335D01*
X141920147Y-112518574D01*
X142028320Y-112779727D01*
X142185363Y-113014759D01*
X142385241Y-113214637D01*
X142620273Y-113371680D01*
X142881426Y-113479853D01*
X143158665Y-113535000D01*
X143441335Y-113535000D01*
X143718574Y-113479853D01*
X143979727Y-113371680D01*
X144214759Y-113214637D01*
X144414637Y-113014759D01*
X144571680Y-112779727D01*
X144679853Y-112518574D01*
X144735000Y-112241335D01*
X144735000Y-111958665D01*
X144679853Y-111681426D01*
X144571680Y-111420273D01*
X144414637Y-111185241D01*
X144214759Y-110985363D01*
X143979727Y-110828320D01*
X143718574Y-110720147D01*
X143441335Y-110665000D01*
X143158665Y-110665000D01*
X142881426Y-110720147D01*
X142620273Y-110828320D01*
X142385241Y-110985363D01*
X142185363Y-111185241D01*
X142028320Y-111420273D01*
X141920147Y-111681426D01*
X141865000Y-111958665D01*
X139735000Y-111958665D01*
X139679853Y-111681426D01*
X139571680Y-111420273D01*
X139414637Y-111185241D01*
X139214759Y-110985363D01*
X138979727Y-110828320D01*
X138718574Y-110720147D01*
X138441335Y-110665000D01*
X138158665Y-110665000D01*
X137881426Y-110720147D01*
X137620273Y-110828320D01*
X137385241Y-110985363D01*
X137185363Y-111185241D01*
X137028320Y-111420273D01*
X136920147Y-111681426D01*
X136865000Y-111958665D01*
X135237592Y-111958665D01*
X135115131Y-111847615D01*
X134873881Y-111702930D01*
X134609040Y-111608091D01*
X134387000Y-111729376D01*
X134133000Y-111729376D01*
X133910960Y-111608091D01*
X133646119Y-111702930D01*
X133404869Y-111847615D01*
X133196481Y-112036586D01*
X133028963Y-112262580D01*
X132908754Y-112516913D01*
X132868096Y-112650961D01*
X125493685Y-112650961D01*
X125479853Y-112581426D01*
X125371680Y-112320273D01*
X125214637Y-112085241D01*
X125014759Y-111885363D01*
X124779727Y-111728320D01*
X124518574Y-111620147D01*
X124241335Y-111565000D01*
X123958665Y-111565000D01*
X123681426Y-111620147D01*
X123420273Y-111728320D01*
X123185241Y-111885363D01*
X122985363Y-112085241D01*
X122828320Y-112320273D01*
X122720147Y-112581426D01*
X122665000Y-112858665D01*
X122160000Y-112858665D01*
X122160000Y-109658665D01*
X122705000Y-109658665D01*
X122705000Y-109941335D01*
X122760147Y-110218574D01*
X122868320Y-110479727D01*
X123025363Y-110714759D01*
X123225241Y-110914637D01*
X123460273Y-111071680D01*
X123721426Y-111179853D01*
X123998665Y-111235000D01*
X124281335Y-111235000D01*
X124558574Y-111179853D01*
X124819727Y-111071680D01*
X125054759Y-110914637D01*
X125254637Y-110714759D01*
X125411680Y-110479727D01*
X125519853Y-110218574D01*
X125575000Y-109941335D01*
X125575000Y-109658665D01*
X132865000Y-109658665D01*
X132865000Y-109941335D01*
X132920147Y-110218574D01*
X133028320Y-110479727D01*
X133185363Y-110714759D01*
X133385241Y-110914637D01*
X133620273Y-111071680D01*
X133881426Y-111179853D01*
X134158665Y-111235000D01*
X134441335Y-111235000D01*
X134718574Y-111179853D01*
X134979727Y-111071680D01*
X135214759Y-110914637D01*
X135414637Y-110714759D01*
X135571680Y-110479727D01*
X135679853Y-110218574D01*
X135735000Y-109941335D01*
X135735000Y-109658665D01*
X135679853Y-109381426D01*
X135571680Y-109120273D01*
X135414637Y-108885241D01*
X135214759Y-108685363D01*
X134979727Y-108528320D01*
X134718574Y-108420147D01*
X134441335Y-108365000D01*
X134158665Y-108365000D01*
X133881426Y-108420147D01*
X133620273Y-108528320D01*
X133385241Y-108685363D01*
X133185363Y-108885241D01*
X133028320Y-109120273D01*
X132920147Y-109381426D01*
X132865000Y-109658665D01*
X125575000Y-109658665D01*
X125519853Y-109381426D01*
X125411680Y-109120273D01*
X125254637Y-108885241D01*
X125092500Y-108723104D01*
X125092500Y-107011465D01*
X125205655Y-107149345D01*
X125434821Y-107337417D01*
X125696275Y-107477166D01*
X125979968Y-107563224D01*
X126201064Y-107585000D01*
X126798936Y-107585000D01*
X127020032Y-107563224D01*
X127303725Y-107477166D01*
X127565179Y-107337417D01*
X127794345Y-107149345D01*
X127982417Y-106920179D01*
X128122166Y-106658725D01*
X128208224Y-106375032D01*
X128237282Y-106080000D01*
X128208224Y-105784968D01*
X128122166Y-105501275D01*
X127982417Y-105239821D01*
X127833746Y-105058665D01*
X131365000Y-105058665D01*
X131365000Y-105341335D01*
X131420147Y-105618574D01*
X131528320Y-105879727D01*
X131685363Y-106114759D01*
X131885241Y-106314637D01*
X132120273Y-106471680D01*
X132381426Y-106579853D01*
X132658665Y-106635000D01*
X132941335Y-106635000D01*
X133218574Y-106579853D01*
X133479727Y-106471680D01*
X133714759Y-106314637D01*
X133914637Y-106114759D01*
X134071680Y-105879727D01*
X134179853Y-105618574D01*
X134235000Y-105341335D01*
X134235000Y-105058665D01*
X134179853Y-104781426D01*
X134071680Y-104520273D01*
X133924499Y-104300000D01*
X134561928Y-104300000D01*
X134561928Y-105900000D01*
X134574188Y-106024482D01*
X134610498Y-106144180D01*
X134669463Y-106254494D01*
X134748815Y-106351185D01*
X134845506Y-106430537D01*
X134955820Y-106489502D01*
X135075518Y-106525812D01*
X135200000Y-106538072D01*
X136800000Y-106538072D01*
X136924482Y-106525812D01*
X137044180Y-106489502D01*
X137154494Y-106430537D01*
X137251185Y-106351185D01*
X137330537Y-106254494D01*
X137389502Y-106144180D01*
X137425812Y-106024482D01*
X137438072Y-105900000D01*
X137438072Y-104978665D01*
X137565000Y-104978665D01*
X137565000Y-105261335D01*
X137620147Y-105538574D01*
X137728320Y-105799727D01*
X137885363Y-106034759D01*
X138085241Y-106234637D01*
X138320273Y-106391680D01*
X138581426Y-106499853D01*
X138858665Y-106555000D01*
X139141335Y-106555000D01*
X139418574Y-106499853D01*
X139679727Y-106391680D01*
X139914759Y-106234637D01*
X140114637Y-106034759D01*
X140271680Y-105799727D01*
X140379853Y-105538574D01*
X140435000Y-105261335D01*
X140435000Y-104978665D01*
X140379853Y-104701426D01*
X140271680Y-104440273D01*
X140114637Y-104205241D01*
X139914759Y-104005363D01*
X139679727Y-103848320D01*
X139418574Y-103740147D01*
X139141335Y-103685000D01*
X138858665Y-103685000D01*
X138581426Y-103740147D01*
X138320273Y-103848320D01*
X138085241Y-104005363D01*
X137885363Y-104205241D01*
X137728320Y-104440273D01*
X137620147Y-104701426D01*
X137565000Y-104978665D01*
X137438072Y-104978665D01*
X137438072Y-104300000D01*
X137425812Y-104175518D01*
X137389502Y-104055820D01*
X137330537Y-103945506D01*
X137251185Y-103848815D01*
X137154494Y-103769463D01*
X137044180Y-103710498D01*
X136924482Y-103674188D01*
X136800000Y-103661928D01*
X135200000Y-103661928D01*
X135075518Y-103674188D01*
X134955820Y-103710498D01*
X134845506Y-103769463D01*
X134748815Y-103848815D01*
X134669463Y-103945506D01*
X134610498Y-104055820D01*
X134574188Y-104175518D01*
X134561928Y-104300000D01*
X133924499Y-104300000D01*
X133914637Y-104285241D01*
X133714759Y-104085363D01*
X133479727Y-103928320D01*
X133218574Y-103820147D01*
X132941335Y-103765000D01*
X132658665Y-103765000D01*
X132381426Y-103820147D01*
X132120273Y-103928320D01*
X131885241Y-104085363D01*
X131685363Y-104285241D01*
X131528320Y-104520273D01*
X131420147Y-104781426D01*
X131365000Y-105058665D01*
X127833746Y-105058665D01*
X127794345Y-105010655D01*
X127565179Y-104822583D01*
X127541638Y-104810000D01*
X127565179Y-104797417D01*
X127794345Y-104609345D01*
X127982417Y-104380179D01*
X128122166Y-104118725D01*
X128208224Y-103835032D01*
X128237282Y-103540000D01*
X128208224Y-103244968D01*
X128195254Y-103202211D01*
X132122935Y-99274530D01*
X132159277Y-99244705D01*
X132278305Y-99099668D01*
X132366751Y-98934196D01*
X132421216Y-98754650D01*
X132434999Y-98614712D01*
X132434999Y-98614711D01*
X132439607Y-98567928D01*
X132434999Y-98521143D01*
X132434999Y-97338665D01*
X134565000Y-97338665D01*
X134565000Y-97621335D01*
X134620147Y-97898574D01*
X134728320Y-98159727D01*
X134885363Y-98394759D01*
X135085241Y-98594637D01*
X135320273Y-98751680D01*
X135581426Y-98859853D01*
X135858665Y-98915000D01*
X136141335Y-98915000D01*
X136418574Y-98859853D01*
X136679727Y-98751680D01*
X136914759Y-98594637D01*
X137114637Y-98394759D01*
X137271680Y-98159727D01*
X137379853Y-97898574D01*
X137435000Y-97621335D01*
X137435000Y-97338665D01*
X137379853Y-97061426D01*
X137271680Y-96800273D01*
X137204680Y-96700000D01*
X137561928Y-96700000D01*
X137561928Y-98300000D01*
X137574188Y-98424482D01*
X137610498Y-98544180D01*
X137669463Y-98654494D01*
X137748815Y-98751185D01*
X137845506Y-98830537D01*
X137955820Y-98889502D01*
X138075518Y-98925812D01*
X138200000Y-98938072D01*
X139800000Y-98938072D01*
X139924482Y-98925812D01*
X140044180Y-98889502D01*
X140154494Y-98830537D01*
X140251185Y-98751185D01*
X140330537Y-98654494D01*
X140389502Y-98544180D01*
X140425812Y-98424482D01*
X140438072Y-98300000D01*
X140438072Y-96700000D01*
X140425812Y-96575518D01*
X140389502Y-96455820D01*
X140330537Y-96345506D01*
X140251185Y-96248815D01*
X140154494Y-96169463D01*
X140044180Y-96110498D01*
X139924482Y-96074188D01*
X139800000Y-96061928D01*
X138200000Y-96061928D01*
X138075518Y-96074188D01*
X137955820Y-96110498D01*
X137845506Y-96169463D01*
X137748815Y-96248815D01*
X137669463Y-96345506D01*
X137610498Y-96455820D01*
X137574188Y-96575518D01*
X137561928Y-96700000D01*
X137204680Y-96700000D01*
X137114637Y-96565241D01*
X136914759Y-96365363D01*
X136679727Y-96208320D01*
X136418574Y-96100147D01*
X136141335Y-96045000D01*
X135858665Y-96045000D01*
X135581426Y-96100147D01*
X135320273Y-96208320D01*
X135085241Y-96365363D01*
X134885363Y-96565241D01*
X134728320Y-96800273D01*
X134620147Y-97061426D01*
X134565000Y-97338665D01*
X132434999Y-97338665D01*
X132434999Y-96427063D01*
X132450961Y-96431904D01*
X132673000Y-96309915D01*
X132673000Y-95167000D01*
X132927000Y-95167000D01*
X132927000Y-96309915D01*
X133149039Y-96431904D01*
X133283087Y-96391246D01*
X133537420Y-96271037D01*
X133763414Y-96103519D01*
X133952385Y-95895131D01*
X134097070Y-95653881D01*
X134191909Y-95389040D01*
X134070624Y-95167000D01*
X132927000Y-95167000D01*
X132673000Y-95167000D01*
X132653000Y-95167000D01*
X132653000Y-94913000D01*
X132673000Y-94913000D01*
X132673000Y-93770085D01*
X132927000Y-93770085D01*
X132927000Y-94913000D01*
X134070624Y-94913000D01*
X134191909Y-94690960D01*
X134097070Y-94426119D01*
X133952385Y-94184869D01*
X133763414Y-93976481D01*
X133537420Y-93808963D01*
X133283087Y-93688754D01*
X133149039Y-93648096D01*
X132927000Y-93770085D01*
X132673000Y-93770085D01*
X132585194Y-93721844D01*
X134012038Y-92295000D01*
X134241335Y-92295000D01*
X134518574Y-92239853D01*
X134779727Y-92131680D01*
X135014759Y-91974637D01*
X135214637Y-91774759D01*
X135371680Y-91539727D01*
X135479853Y-91278574D01*
X135535000Y-91001335D01*
X135535000Y-90762038D01*
X142065000Y-97292039D01*
X142065000Y-97850492D01*
X142085764Y-98061309D01*
X142167818Y-98331808D01*
X142301068Y-98581101D01*
X142480393Y-98799608D01*
X142698900Y-98978932D01*
X142948193Y-99112182D01*
X143218692Y-99194236D01*
X143500000Y-99221943D01*
X143781309Y-99194236D01*
X144051808Y-99112182D01*
X144301101Y-98978932D01*
X144519608Y-98799608D01*
X144698932Y-98581101D01*
X144770000Y-98448142D01*
X144841068Y-98581101D01*
X145020393Y-98799608D01*
X145238900Y-98978932D01*
X145488193Y-99112182D01*
X145758692Y-99194236D01*
X146040000Y-99221943D01*
X146321309Y-99194236D01*
X146591808Y-99112182D01*
X146841101Y-98978932D01*
X147059608Y-98799608D01*
X147238932Y-98581101D01*
X147310000Y-98448142D01*
X147381068Y-98581101D01*
X147560393Y-98799608D01*
X147778900Y-98978932D01*
X148028193Y-99112182D01*
X148298692Y-99194236D01*
X148580000Y-99221943D01*
X148861309Y-99194236D01*
X149131808Y-99112182D01*
X149381101Y-98978932D01*
X149599608Y-98799608D01*
X149778932Y-98581101D01*
X149850000Y-98448142D01*
X149921068Y-98581101D01*
X150100393Y-98799608D01*
X150318900Y-98978932D01*
X150568193Y-99112182D01*
X150838692Y-99194236D01*
X151120000Y-99221943D01*
X151401309Y-99194236D01*
X151485010Y-99168846D01*
X151485011Y-103211155D01*
X151401308Y-103185764D01*
X151120000Y-103158057D01*
X150838691Y-103185764D01*
X150568192Y-103267818D01*
X150318899Y-103401068D01*
X150100392Y-103580393D01*
X149921068Y-103798900D01*
X149850000Y-103931858D01*
X149778932Y-103798899D01*
X149599607Y-103580392D01*
X149381100Y-103401068D01*
X149131807Y-103267818D01*
X148861308Y-103185764D01*
X148580000Y-103158057D01*
X148298691Y-103185764D01*
X148028192Y-103267818D01*
X147778899Y-103401068D01*
X147560392Y-103580393D01*
X147381068Y-103798900D01*
X147310000Y-103931858D01*
X147238932Y-103798899D01*
X147059607Y-103580392D01*
X146841100Y-103401068D01*
X146591807Y-103267818D01*
X146321308Y-103185764D01*
X146040000Y-103158057D01*
X145758691Y-103185764D01*
X145488192Y-103267818D01*
X145238899Y-103401068D01*
X145020392Y-103580393D01*
X144927581Y-103693483D01*
X144925812Y-103675518D01*
X144889502Y-103555820D01*
X144830537Y-103445506D01*
X144751185Y-103348815D01*
X144654494Y-103269463D01*
X144544180Y-103210498D01*
X144424482Y-103174188D01*
X144300000Y-103161928D01*
X142700000Y-103161928D01*
X142575518Y-103174188D01*
X142455820Y-103210498D01*
X142345506Y-103269463D01*
X142248815Y-103348815D01*
X142169463Y-103445506D01*
X142110498Y-103555820D01*
X142074188Y-103675518D01*
X142061928Y-103800000D01*
X142061928Y-106200000D01*
X142074188Y-106324482D01*
X142110498Y-106444180D01*
X142169463Y-106554494D01*
X142248815Y-106651185D01*
X142345506Y-106730537D01*
X142455820Y-106789502D01*
X142575518Y-106825812D01*
X142700000Y-106838072D01*
X144300000Y-106838072D01*
X144424482Y-106825812D01*
X144544180Y-106789502D01*
X144654494Y-106730537D01*
X144751185Y-106651185D01*
X144830537Y-106554494D01*
X144889502Y-106444180D01*
X144925812Y-106324482D01*
X144927581Y-106306517D01*
X145020393Y-106419608D01*
X145238900Y-106598932D01*
X145488193Y-106732182D01*
X145758692Y-106814236D01*
X146040000Y-106841943D01*
X146321309Y-106814236D01*
X146591808Y-106732182D01*
X146841101Y-106598932D01*
X147059608Y-106419608D01*
X147238932Y-106201101D01*
X147310000Y-106068142D01*
X147381068Y-106201101D01*
X147560393Y-106419608D01*
X147778900Y-106598932D01*
X148028193Y-106732182D01*
X148298692Y-106814236D01*
X148580000Y-106841943D01*
X148861309Y-106814236D01*
X149131808Y-106732182D01*
X149381101Y-106598932D01*
X149599608Y-106419608D01*
X149778932Y-106201101D01*
X149850000Y-106068142D01*
X149921068Y-106201101D01*
X150100393Y-106419608D01*
X150318900Y-106598932D01*
X150568193Y-106732182D01*
X150838692Y-106814236D01*
X151120000Y-106841943D01*
X151401309Y-106814236D01*
X151671808Y-106732182D01*
X151921101Y-106598932D01*
X152139608Y-106419608D01*
X152271690Y-106258665D01*
X155265000Y-106258665D01*
X155265000Y-106541335D01*
X155320147Y-106818574D01*
X155428320Y-107079727D01*
X155585363Y-107314759D01*
X155785241Y-107514637D01*
X156020273Y-107671680D01*
X156281426Y-107779853D01*
X156558665Y-107835000D01*
X156841335Y-107835000D01*
X157118574Y-107779853D01*
X157379727Y-107671680D01*
X157614759Y-107514637D01*
X157736694Y-107392702D01*
X158386903Y-107392702D01*
X158458486Y-107636671D01*
X158713996Y-107757571D01*
X158988184Y-107826300D01*
X159270512Y-107840217D01*
X159550130Y-107798787D01*
X159816292Y-107703603D01*
X159941514Y-107636671D01*
X160013097Y-107392702D01*
X159200000Y-106579605D01*
X158386903Y-107392702D01*
X157736694Y-107392702D01*
X157814637Y-107314759D01*
X157948692Y-107114131D01*
X157963329Y-107141514D01*
X158207298Y-107213097D01*
X159020395Y-106400000D01*
X159379605Y-106400000D01*
X160192702Y-107213097D01*
X160436671Y-107141514D01*
X160557571Y-106886004D01*
X160626300Y-106611816D01*
X160640217Y-106329488D01*
X160598787Y-106049870D01*
X160503603Y-105783708D01*
X160436671Y-105658486D01*
X160192702Y-105586903D01*
X159379605Y-106400000D01*
X159020395Y-106400000D01*
X158207298Y-105586903D01*
X157963329Y-105658486D01*
X157949676Y-105687341D01*
X157814637Y-105485241D01*
X157736694Y-105407298D01*
X158386903Y-105407298D01*
X159200000Y-106220395D01*
X160013097Y-105407298D01*
X159963619Y-105238665D01*
X160565000Y-105238665D01*
X160565000Y-105521335D01*
X160620147Y-105798574D01*
X160728320Y-106059727D01*
X160885363Y-106294759D01*
X161085241Y-106494637D01*
X161320273Y-106651680D01*
X161581426Y-106759853D01*
X161858665Y-106815000D01*
X162141335Y-106815000D01*
X162418574Y-106759853D01*
X162679727Y-106651680D01*
X162914759Y-106494637D01*
X163114637Y-106294759D01*
X163271680Y-106059727D01*
X163379853Y-105798574D01*
X163435000Y-105521335D01*
X163435000Y-105238665D01*
X163379853Y-104961426D01*
X163271680Y-104700273D01*
X163204680Y-104600000D01*
X163561928Y-104600000D01*
X163561928Y-106200000D01*
X163574188Y-106324482D01*
X163610498Y-106444180D01*
X163669463Y-106554494D01*
X163748815Y-106651185D01*
X163845506Y-106730537D01*
X163955820Y-106789502D01*
X164075518Y-106825812D01*
X164200000Y-106838072D01*
X165800000Y-106838072D01*
X165924482Y-106825812D01*
X166044180Y-106789502D01*
X166154494Y-106730537D01*
X166251185Y-106651185D01*
X166330537Y-106554494D01*
X166389502Y-106444180D01*
X166425812Y-106324482D01*
X166438072Y-106200000D01*
X166438072Y-104600000D01*
X166425812Y-104475518D01*
X166389502Y-104355820D01*
X166330537Y-104245506D01*
X166251185Y-104148815D01*
X166154494Y-104069463D01*
X166044180Y-104010498D01*
X165924482Y-103974188D01*
X165800000Y-103961928D01*
X164200000Y-103961928D01*
X164075518Y-103974188D01*
X163955820Y-104010498D01*
X163845506Y-104069463D01*
X163748815Y-104148815D01*
X163669463Y-104245506D01*
X163610498Y-104355820D01*
X163574188Y-104475518D01*
X163561928Y-104600000D01*
X163204680Y-104600000D01*
X163114637Y-104465241D01*
X162914759Y-104265363D01*
X162679727Y-104108320D01*
X162418574Y-104000147D01*
X162141335Y-103945000D01*
X161858665Y-103945000D01*
X161581426Y-104000147D01*
X161320273Y-104108320D01*
X161085241Y-104265363D01*
X160885363Y-104465241D01*
X160728320Y-104700273D01*
X160620147Y-104961426D01*
X160565000Y-105238665D01*
X159963619Y-105238665D01*
X159941514Y-105163329D01*
X159686004Y-105042429D01*
X159411816Y-104973700D01*
X159129488Y-104959783D01*
X158849870Y-105001213D01*
X158583708Y-105096397D01*
X158458486Y-105163329D01*
X158386903Y-105407298D01*
X157736694Y-105407298D01*
X157614759Y-105285363D01*
X157379727Y-105128320D01*
X157118574Y-105020147D01*
X156841335Y-104965000D01*
X156558665Y-104965000D01*
X156281426Y-105020147D01*
X156020273Y-105128320D01*
X155785241Y-105285363D01*
X155585363Y-105485241D01*
X155428320Y-105720273D01*
X155320147Y-105981426D01*
X155265000Y-106258665D01*
X152271690Y-106258665D01*
X152318932Y-106201101D01*
X152452182Y-105951808D01*
X152534236Y-105681309D01*
X152555000Y-105470491D01*
X152555000Y-104912038D01*
X153077941Y-104389097D01*
X153114288Y-104359268D01*
X153233316Y-104214231D01*
X153321762Y-104048759D01*
X153376227Y-103869213D01*
X153390010Y-103729275D01*
X153394618Y-103682490D01*
X153390010Y-103635705D01*
X153390010Y-102918665D01*
X155765000Y-102918665D01*
X155765000Y-103201335D01*
X155820147Y-103478574D01*
X155928320Y-103739727D01*
X156085363Y-103974759D01*
X156285241Y-104174637D01*
X156520273Y-104331680D01*
X156781426Y-104439853D01*
X157058665Y-104495000D01*
X157341335Y-104495000D01*
X157618574Y-104439853D01*
X157879727Y-104331680D01*
X158114759Y-104174637D01*
X158314637Y-103974759D01*
X158471680Y-103739727D01*
X158579853Y-103478574D01*
X158635000Y-103201335D01*
X158635000Y-102918665D01*
X158579853Y-102641426D01*
X158471680Y-102380273D01*
X158314637Y-102145241D01*
X158239396Y-102070000D01*
X162666928Y-102070000D01*
X162679188Y-102194482D01*
X162715498Y-102314180D01*
X162774463Y-102424494D01*
X162853815Y-102521185D01*
X162950506Y-102600537D01*
X163060820Y-102659502D01*
X163180518Y-102695812D01*
X163305000Y-102708072D01*
X164114250Y-102705000D01*
X164273000Y-102546250D01*
X164273000Y-101327000D01*
X164527000Y-101327000D01*
X164527000Y-102546250D01*
X164685750Y-102705000D01*
X165495000Y-102708072D01*
X165619482Y-102695812D01*
X165739180Y-102659502D01*
X165849494Y-102600537D01*
X165946185Y-102521185D01*
X166025537Y-102424494D01*
X166084502Y-102314180D01*
X166120812Y-102194482D01*
X166133072Y-102070000D01*
X166130000Y-101485750D01*
X165971250Y-101327000D01*
X164527000Y-101327000D01*
X164273000Y-101327000D01*
X162828750Y-101327000D01*
X162670000Y-101485750D01*
X162666928Y-102070000D01*
X158239396Y-102070000D01*
X158114759Y-101945363D01*
X157879727Y-101788320D01*
X157618574Y-101680147D01*
X157341335Y-101625000D01*
X157058665Y-101625000D01*
X156781426Y-101680147D01*
X156520273Y-101788320D01*
X156285241Y-101945363D01*
X156085363Y-102145241D01*
X155928320Y-102380273D01*
X155820147Y-102641426D01*
X155765000Y-102918665D01*
X153390010Y-102918665D01*
X153390010Y-98660000D01*
X162662718Y-98660000D01*
X162691776Y-98955032D01*
X162777834Y-99238725D01*
X162917583Y-99500179D01*
X163104047Y-99727385D01*
X163060820Y-99740498D01*
X162950506Y-99799463D01*
X162853815Y-99878815D01*
X162774463Y-99975506D01*
X162715498Y-100085820D01*
X162679188Y-100205518D01*
X162666928Y-100330000D01*
X162670000Y-100914250D01*
X162828750Y-101073000D01*
X164273000Y-101073000D01*
X164273000Y-101053000D01*
X164527000Y-101053000D01*
X164527000Y-101073000D01*
X165971250Y-101073000D01*
X166130000Y-100914250D01*
X166133072Y-100330000D01*
X166120812Y-100205518D01*
X166084502Y-100085820D01*
X166025537Y-99975506D01*
X165946185Y-99878815D01*
X165849494Y-99799463D01*
X165739180Y-99740498D01*
X165695953Y-99727385D01*
X165882417Y-99500179D01*
X166022166Y-99238725D01*
X166108224Y-98955032D01*
X166137282Y-98660000D01*
X166108224Y-98364968D01*
X166022166Y-98081275D01*
X165882417Y-97819821D01*
X165694345Y-97590655D01*
X165465179Y-97402583D01*
X165203725Y-97262834D01*
X164920032Y-97176776D01*
X164698936Y-97155000D01*
X164101064Y-97155000D01*
X163879968Y-97176776D01*
X163596275Y-97262834D01*
X163334821Y-97402583D01*
X163105655Y-97590655D01*
X162917583Y-97819821D01*
X162777834Y-98081275D01*
X162691776Y-98364968D01*
X162662718Y-98660000D01*
X153390010Y-98660000D01*
X153390010Y-96107126D01*
X155925124Y-93572012D01*
X155928320Y-93579727D01*
X156085363Y-93814759D01*
X156285241Y-94014637D01*
X156520273Y-94171680D01*
X156781426Y-94279853D01*
X157058665Y-94335000D01*
X157341335Y-94335000D01*
X157618574Y-94279853D01*
X157879727Y-94171680D01*
X158114759Y-94014637D01*
X158314637Y-93814759D01*
X158471680Y-93579727D01*
X158579853Y-93318574D01*
X158635000Y-93041335D01*
X158635000Y-92758665D01*
X158579853Y-92481426D01*
X158471680Y-92220273D01*
X158314637Y-91985241D01*
X158114759Y-91785363D01*
X157879727Y-91628320D01*
X157664127Y-91539016D01*
X157674609Y-91432598D01*
X157670001Y-91385813D01*
X157670001Y-83709286D01*
X157674609Y-83662501D01*
X157656218Y-83475778D01*
X157639215Y-83419727D01*
X157601753Y-83296232D01*
X157513307Y-83130760D01*
X157394279Y-82985723D01*
X157357937Y-82955898D01*
X155915779Y-81513740D01*
X160515000Y-81513740D01*
X160515000Y-81806260D01*
X160572068Y-82093158D01*
X160684010Y-82363411D01*
X160846525Y-82606632D01*
X161053368Y-82813475D01*
X161296589Y-82975990D01*
X161566842Y-83087932D01*
X161853740Y-83145000D01*
X162146260Y-83145000D01*
X162433158Y-83087932D01*
X162703411Y-82975990D01*
X162946632Y-82813475D01*
X163153475Y-82606632D01*
X163270000Y-82432240D01*
X163386525Y-82606632D01*
X163593368Y-82813475D01*
X163836589Y-82975990D01*
X164106842Y-83087932D01*
X164393740Y-83145000D01*
X164686260Y-83145000D01*
X164973158Y-83087932D01*
X165243411Y-82975990D01*
X165486632Y-82813475D01*
X165693475Y-82606632D01*
X165855990Y-82363411D01*
X165967932Y-82093158D01*
X166025000Y-81806260D01*
X166025000Y-81513740D01*
X165967932Y-81226842D01*
X165855990Y-80956589D01*
X165693475Y-80713368D01*
X165486632Y-80506525D01*
X165313271Y-80390689D01*
X165388792Y-80148397D01*
X164540000Y-79299605D01*
X163691208Y-80148397D01*
X163766729Y-80390689D01*
X163593368Y-80506525D01*
X163386525Y-80713368D01*
X163270000Y-80887760D01*
X163153475Y-80713368D01*
X162946632Y-80506525D01*
X162773271Y-80390689D01*
X162848792Y-80148397D01*
X162000000Y-79299605D01*
X161151208Y-80148397D01*
X161226729Y-80390689D01*
X161053368Y-80506525D01*
X160846525Y-80713368D01*
X160684010Y-80956589D01*
X160572068Y-81226842D01*
X160515000Y-81513740D01*
X155915779Y-81513740D01*
X154737038Y-80335000D01*
X154841335Y-80335000D01*
X155118574Y-80279853D01*
X155379727Y-80171680D01*
X155614759Y-80014637D01*
X155814637Y-79814759D01*
X155971680Y-79579727D01*
X156079853Y-79318574D01*
X156105720Y-79188531D01*
X160509389Y-79188531D01*
X160551401Y-79478019D01*
X160649081Y-79753747D01*
X160722528Y-79891157D01*
X160971603Y-79968792D01*
X161820395Y-79120000D01*
X162179605Y-79120000D01*
X163028397Y-79968792D01*
X163270000Y-79893486D01*
X163511603Y-79968792D01*
X164360395Y-79120000D01*
X164719605Y-79120000D01*
X165568397Y-79968792D01*
X165817472Y-79891157D01*
X165943371Y-79627117D01*
X166015339Y-79343589D01*
X166030611Y-79051469D01*
X165988599Y-78761981D01*
X165890919Y-78486253D01*
X165817472Y-78348843D01*
X165568397Y-78271208D01*
X164719605Y-79120000D01*
X164360395Y-79120000D01*
X163511603Y-78271208D01*
X163270000Y-78346514D01*
X163028397Y-78271208D01*
X162179605Y-79120000D01*
X161820395Y-79120000D01*
X160971603Y-78271208D01*
X160722528Y-78348843D01*
X160596629Y-78612883D01*
X160524661Y-78896411D01*
X160509389Y-79188531D01*
X156105720Y-79188531D01*
X156135000Y-79041335D01*
X156135000Y-78758665D01*
X156079853Y-78481426D01*
X155971680Y-78220273D01*
X155814637Y-77985241D01*
X155614759Y-77785363D01*
X155414131Y-77651308D01*
X155441514Y-77636671D01*
X155449809Y-77608397D01*
X161151208Y-77608397D01*
X161226514Y-77850000D01*
X161151208Y-78091603D01*
X162000000Y-78940395D01*
X162848792Y-78091603D01*
X162773486Y-77850000D01*
X162848792Y-77608397D01*
X163691208Y-77608397D01*
X163766514Y-77850000D01*
X163691208Y-78091603D01*
X164540000Y-78940395D01*
X165388792Y-78091603D01*
X165313486Y-77850000D01*
X165388792Y-77608397D01*
X164540000Y-76759605D01*
X163691208Y-77608397D01*
X162848792Y-77608397D01*
X162000000Y-76759605D01*
X161151208Y-77608397D01*
X155449809Y-77608397D01*
X155513097Y-77392702D01*
X154700000Y-76579605D01*
X153886903Y-77392702D01*
X153958486Y-77636671D01*
X153987341Y-77650324D01*
X153785241Y-77785363D01*
X153585363Y-77985241D01*
X153428320Y-78220273D01*
X153320147Y-78481426D01*
X153265000Y-78758665D01*
X153265000Y-78862962D01*
X152261607Y-77859569D01*
X152231778Y-77823222D01*
X152086741Y-77704194D01*
X151921269Y-77615748D01*
X151741723Y-77561283D01*
X151601785Y-77547500D01*
X151555000Y-77542892D01*
X151508215Y-77547500D01*
X151451812Y-77547500D01*
X151318932Y-77298899D01*
X151139607Y-77080392D01*
X150921100Y-76901068D01*
X150671807Y-76767818D01*
X150401308Y-76685764D01*
X150120000Y-76658057D01*
X149838691Y-76685764D01*
X149568192Y-76767818D01*
X149318899Y-76901068D01*
X149100392Y-77080393D01*
X148921068Y-77298900D01*
X148852735Y-77426742D01*
X148702601Y-77197161D01*
X148504895Y-76995500D01*
X148271646Y-76836285D01*
X148011818Y-76725633D01*
X147929039Y-76708096D01*
X147707000Y-76830085D01*
X147707000Y-78373000D01*
X147727000Y-78373000D01*
X147727000Y-78627000D01*
X147707000Y-78627000D01*
X147707000Y-80169915D01*
X147929039Y-80291904D01*
X148011818Y-80274367D01*
X148271646Y-80163715D01*
X148504895Y-80004500D01*
X148702601Y-79802839D01*
X148852735Y-79573259D01*
X148921068Y-79701101D01*
X149100393Y-79919608D01*
X149318900Y-80098932D01*
X149568193Y-80232182D01*
X149838692Y-80314236D01*
X150120000Y-80341943D01*
X150401309Y-80314236D01*
X150671808Y-80232182D01*
X150921101Y-80098932D01*
X151139608Y-79919608D01*
X151318932Y-79701101D01*
X151350327Y-79642365D01*
X155765001Y-84057040D01*
X155765001Y-85309491D01*
X155541335Y-85265000D01*
X155258665Y-85265000D01*
X154981426Y-85320147D01*
X154720273Y-85428320D01*
X154485241Y-85585363D01*
X154285363Y-85785241D01*
X154128320Y-86020273D01*
X154020147Y-86281426D01*
X153965000Y-86558665D01*
X153965000Y-86841335D01*
X154020147Y-87118574D01*
X154128320Y-87379727D01*
X154285363Y-87614759D01*
X154485241Y-87814637D01*
X154687827Y-87950000D01*
X154485241Y-88085363D01*
X154285363Y-88285241D01*
X154128320Y-88520273D01*
X154020147Y-88781426D01*
X153965000Y-89058665D01*
X153965000Y-89287961D01*
X150479564Y-92773398D01*
X150443223Y-92803222D01*
X150413399Y-92839563D01*
X150324194Y-92948260D01*
X150235749Y-93113731D01*
X150181283Y-93293278D01*
X150162892Y-93480000D01*
X150167501Y-93526794D01*
X150167500Y-95905318D01*
X150100392Y-95960393D01*
X149921068Y-96178900D01*
X149850000Y-96311858D01*
X149778932Y-96178899D01*
X149599607Y-95960392D01*
X149381100Y-95781068D01*
X149131807Y-95647818D01*
X148861308Y-95565764D01*
X148580000Y-95538057D01*
X148298691Y-95565764D01*
X148028192Y-95647818D01*
X147778899Y-95781068D01*
X147560392Y-95960393D01*
X147381068Y-96178900D01*
X147310000Y-96311858D01*
X147238932Y-96178899D01*
X147059607Y-95960392D01*
X146841100Y-95781068D01*
X146591807Y-95647818D01*
X146321308Y-95565764D01*
X146040000Y-95538057D01*
X145758691Y-95565764D01*
X145488192Y-95647818D01*
X145238899Y-95781068D01*
X145020392Y-95960393D01*
X144841068Y-96178900D01*
X144770000Y-96311858D01*
X144698932Y-96178899D01*
X144519607Y-95960392D01*
X144301100Y-95781068D01*
X144051807Y-95647818D01*
X143781308Y-95565764D01*
X143500000Y-95538057D01*
X143218691Y-95565764D01*
X143076067Y-95609028D01*
X141159741Y-93692702D01*
X142086903Y-93692702D01*
X142158486Y-93936671D01*
X142413996Y-94057571D01*
X142688184Y-94126300D01*
X142970512Y-94140217D01*
X143250130Y-94098787D01*
X143516292Y-94003603D01*
X143641514Y-93936671D01*
X143713097Y-93692702D01*
X142900000Y-92879605D01*
X142086903Y-93692702D01*
X141159741Y-93692702D01*
X140237551Y-92770512D01*
X141459783Y-92770512D01*
X141501213Y-93050130D01*
X141596397Y-93316292D01*
X141663329Y-93441514D01*
X141907298Y-93513097D01*
X142720395Y-92700000D01*
X141907298Y-91886903D01*
X141663329Y-91958486D01*
X141542429Y-92213996D01*
X141473700Y-92488184D01*
X141459783Y-92770512D01*
X140237551Y-92770512D01*
X136369106Y-88902068D01*
X136339277Y-88865721D01*
X136194240Y-88746693D01*
X136028768Y-88658247D01*
X135849222Y-88603782D01*
X135709284Y-88589999D01*
X135662499Y-88585391D01*
X135615714Y-88589999D01*
X127604285Y-88589999D01*
X127557500Y-88585391D01*
X127370778Y-88603782D01*
X127191232Y-88658247D01*
X127025760Y-88746693D01*
X126880723Y-88865721D01*
X126850898Y-88902063D01*
X126661033Y-89091928D01*
X125654999Y-89091928D01*
X125481745Y-89108992D01*
X125315149Y-89159528D01*
X125161613Y-89241595D01*
X125027038Y-89352038D01*
X124916595Y-89486613D01*
X124834528Y-89640149D01*
X124783992Y-89806745D01*
X124766928Y-89979999D01*
X124766928Y-91220001D01*
X124783992Y-91393255D01*
X124834528Y-91559851D01*
X124916595Y-91713387D01*
X125027038Y-91847962D01*
X125161613Y-91958405D01*
X125271114Y-92016934D01*
X125205655Y-92070655D01*
X125017583Y-92299821D01*
X124877834Y-92561275D01*
X124791776Y-92844968D01*
X124762718Y-93140000D01*
X124791776Y-93435032D01*
X124807173Y-93485788D01*
X123499564Y-94793398D01*
X123463223Y-94823222D01*
X123433399Y-94859563D01*
X123344194Y-94968260D01*
X123255749Y-95133731D01*
X123201283Y-95313278D01*
X123182892Y-95500000D01*
X123187501Y-95546795D01*
X123187500Y-108723104D01*
X123025363Y-108885241D01*
X122868320Y-109120273D01*
X122760147Y-109381426D01*
X122705000Y-109658665D01*
X122160000Y-109658665D01*
X122160000Y-81540000D01*
X124762718Y-81540000D01*
X124791776Y-81835032D01*
X124877834Y-82118725D01*
X125017583Y-82380179D01*
X125205655Y-82609345D01*
X125434821Y-82797417D01*
X125458362Y-82810000D01*
X125434821Y-82822583D01*
X125205655Y-83010655D01*
X125017583Y-83239821D01*
X124877834Y-83501275D01*
X124791776Y-83784968D01*
X124762718Y-84080000D01*
X124791776Y-84375032D01*
X124877834Y-84658725D01*
X125017583Y-84920179D01*
X125205655Y-85149345D01*
X125434821Y-85337417D01*
X125696275Y-85477166D01*
X125979968Y-85563224D01*
X126201064Y-85585000D01*
X126798936Y-85585000D01*
X127020032Y-85563224D01*
X127303725Y-85477166D01*
X127565179Y-85337417D01*
X127794345Y-85149345D01*
X127890237Y-85032500D01*
X140229999Y-85032500D01*
X140230000Y-88435705D01*
X140225391Y-88482499D01*
X140243782Y-88669221D01*
X140298248Y-88848768D01*
X140386180Y-89013278D01*
X140386694Y-89014240D01*
X140505722Y-89159277D01*
X140542063Y-89189101D01*
X142640714Y-91287753D01*
X142549870Y-91301213D01*
X142283708Y-91396397D01*
X142158486Y-91463329D01*
X142086903Y-91707298D01*
X142900000Y-92520395D01*
X142914143Y-92506253D01*
X143093748Y-92685858D01*
X143079605Y-92700000D01*
X143892702Y-93513097D01*
X144136671Y-93441514D01*
X144150324Y-93412659D01*
X144285363Y-93614759D01*
X144485241Y-93814637D01*
X144720273Y-93971680D01*
X144981426Y-94079853D01*
X145258665Y-94135000D01*
X145541335Y-94135000D01*
X145818574Y-94079853D01*
X146079727Y-93971680D01*
X146314759Y-93814637D01*
X146514637Y-93614759D01*
X146671680Y-93379727D01*
X146779853Y-93118574D01*
X146835000Y-92841335D01*
X146835000Y-92758665D01*
X147165000Y-92758665D01*
X147165000Y-93041335D01*
X147220147Y-93318574D01*
X147328320Y-93579727D01*
X147485363Y-93814759D01*
X147685241Y-94014637D01*
X147920273Y-94171680D01*
X148181426Y-94279853D01*
X148458665Y-94335000D01*
X148741335Y-94335000D01*
X149018574Y-94279853D01*
X149279727Y-94171680D01*
X149514759Y-94014637D01*
X149714637Y-93814759D01*
X149871680Y-93579727D01*
X149979853Y-93318574D01*
X150035000Y-93041335D01*
X150035000Y-92758665D01*
X149979853Y-92481426D01*
X149871680Y-92220273D01*
X149714637Y-91985241D01*
X149514759Y-91785363D01*
X149279727Y-91628320D01*
X149018574Y-91520147D01*
X148741335Y-91465000D01*
X148458665Y-91465000D01*
X148181426Y-91520147D01*
X147920273Y-91628320D01*
X147685241Y-91785363D01*
X147485363Y-91985241D01*
X147328320Y-92220273D01*
X147220147Y-92481426D01*
X147165000Y-92758665D01*
X146835000Y-92758665D01*
X146835000Y-92558665D01*
X146779853Y-92281426D01*
X146671680Y-92020273D01*
X146514637Y-91785241D01*
X146314759Y-91585363D01*
X146079727Y-91428320D01*
X145818574Y-91320147D01*
X145541335Y-91265000D01*
X145312039Y-91265000D01*
X142134999Y-88087961D01*
X142134999Y-84364285D01*
X142139607Y-84317500D01*
X142134999Y-84270715D01*
X142134999Y-82598665D01*
X147165000Y-82598665D01*
X147165000Y-82881335D01*
X147220147Y-83158574D01*
X147328320Y-83419727D01*
X147485363Y-83654759D01*
X147685241Y-83854637D01*
X147920273Y-84011680D01*
X148181426Y-84119853D01*
X148458665Y-84175000D01*
X148741335Y-84175000D01*
X149018574Y-84119853D01*
X149279727Y-84011680D01*
X149514759Y-83854637D01*
X149714637Y-83654759D01*
X149871680Y-83419727D01*
X149979853Y-83158574D01*
X150035000Y-82881335D01*
X150035000Y-82598665D01*
X149979853Y-82321426D01*
X149871680Y-82060273D01*
X149714637Y-81825241D01*
X149514759Y-81625363D01*
X149279727Y-81468320D01*
X149018574Y-81360147D01*
X148741335Y-81305000D01*
X148458665Y-81305000D01*
X148181426Y-81360147D01*
X147920273Y-81468320D01*
X147685241Y-81625363D01*
X147485363Y-81825241D01*
X147328320Y-82060273D01*
X147220147Y-82321426D01*
X147165000Y-82598665D01*
X142134999Y-82598665D01*
X142134999Y-80338072D01*
X143300000Y-80338072D01*
X143424482Y-80325812D01*
X143544180Y-80289502D01*
X143654494Y-80230537D01*
X143751185Y-80151185D01*
X143830537Y-80054494D01*
X143889502Y-79944180D01*
X143925812Y-79824482D01*
X143927581Y-79806517D01*
X144020393Y-79919608D01*
X144238900Y-80098932D01*
X144488193Y-80232182D01*
X144758692Y-80314236D01*
X145040000Y-80341943D01*
X145321309Y-80314236D01*
X145591808Y-80232182D01*
X145841101Y-80098932D01*
X146059608Y-79919608D01*
X146238932Y-79701101D01*
X146307265Y-79573259D01*
X146457399Y-79802839D01*
X146655105Y-80004500D01*
X146888354Y-80163715D01*
X147148182Y-80274367D01*
X147230961Y-80291904D01*
X147453000Y-80169915D01*
X147453000Y-78627000D01*
X147433000Y-78627000D01*
X147433000Y-78373000D01*
X147453000Y-78373000D01*
X147453000Y-76830085D01*
X147230961Y-76708096D01*
X147148182Y-76725633D01*
X146888354Y-76836285D01*
X146655105Y-76995500D01*
X146457399Y-77197161D01*
X146307265Y-77426741D01*
X146238932Y-77298899D01*
X146059607Y-77080392D01*
X145841100Y-76901068D01*
X145591807Y-76767818D01*
X145321308Y-76685764D01*
X145040000Y-76658057D01*
X144758691Y-76685764D01*
X144488192Y-76767818D01*
X144238899Y-76901068D01*
X144020392Y-77080393D01*
X143927581Y-77193483D01*
X143925812Y-77175518D01*
X143889502Y-77055820D01*
X143830537Y-76945506D01*
X143751185Y-76848815D01*
X143654494Y-76769463D01*
X143544180Y-76710498D01*
X143424482Y-76674188D01*
X143300000Y-76661928D01*
X142134999Y-76661928D01*
X142134999Y-76470512D01*
X153259783Y-76470512D01*
X153301213Y-76750130D01*
X153396397Y-77016292D01*
X153463329Y-77141514D01*
X153707298Y-77213097D01*
X154520395Y-76400000D01*
X154879605Y-76400000D01*
X155692702Y-77213097D01*
X155936671Y-77141514D01*
X156057571Y-76886004D01*
X156117096Y-76648531D01*
X160509389Y-76648531D01*
X160551401Y-76938019D01*
X160649081Y-77213747D01*
X160722528Y-77351157D01*
X160971603Y-77428792D01*
X161820395Y-76580000D01*
X162179605Y-76580000D01*
X163028397Y-77428792D01*
X163270000Y-77353486D01*
X163511603Y-77428792D01*
X164360395Y-76580000D01*
X164719605Y-76580000D01*
X165568397Y-77428792D01*
X165817472Y-77351157D01*
X165943371Y-77087117D01*
X166015339Y-76803589D01*
X166030611Y-76511469D01*
X165988599Y-76221981D01*
X165890919Y-75946253D01*
X165817472Y-75808843D01*
X165568397Y-75731208D01*
X164719605Y-76580000D01*
X164360395Y-76580000D01*
X163511603Y-75731208D01*
X163270000Y-75806514D01*
X163028397Y-75731208D01*
X162179605Y-76580000D01*
X161820395Y-76580000D01*
X160971603Y-75731208D01*
X160722528Y-75808843D01*
X160596629Y-76072883D01*
X160524661Y-76356411D01*
X160509389Y-76648531D01*
X156117096Y-76648531D01*
X156126300Y-76611816D01*
X156140217Y-76329488D01*
X156098787Y-76049870D01*
X156003603Y-75783708D01*
X155936671Y-75658486D01*
X155692702Y-75586903D01*
X154879605Y-76400000D01*
X154520395Y-76400000D01*
X153707298Y-75586903D01*
X153463329Y-75658486D01*
X153342429Y-75913996D01*
X153273700Y-76188184D01*
X153259783Y-76470512D01*
X142134999Y-76470512D01*
X142134999Y-75407298D01*
X153886903Y-75407298D01*
X154700000Y-76220395D01*
X155513097Y-75407298D01*
X155441514Y-75163329D01*
X155240885Y-75068397D01*
X161151208Y-75068397D01*
X161226514Y-75310000D01*
X161151208Y-75551603D01*
X162000000Y-76400395D01*
X162848792Y-75551603D01*
X162773486Y-75310000D01*
X162848792Y-75068397D01*
X163691208Y-75068397D01*
X163766514Y-75310000D01*
X163691208Y-75551603D01*
X164540000Y-76400395D01*
X165388792Y-75551603D01*
X165313486Y-75310000D01*
X165388792Y-75068397D01*
X164540000Y-74219605D01*
X163691208Y-75068397D01*
X162848792Y-75068397D01*
X162000000Y-74219605D01*
X161151208Y-75068397D01*
X155240885Y-75068397D01*
X155186004Y-75042429D01*
X154911816Y-74973700D01*
X154629488Y-74959783D01*
X154349870Y-75001213D01*
X154083708Y-75096397D01*
X153958486Y-75163329D01*
X153886903Y-75407298D01*
X142134999Y-75407298D01*
X142134999Y-75132039D01*
X143158507Y-74108531D01*
X160509389Y-74108531D01*
X160551401Y-74398019D01*
X160649081Y-74673747D01*
X160722528Y-74811157D01*
X160971603Y-74888792D01*
X161820395Y-74040000D01*
X162179605Y-74040000D01*
X163028397Y-74888792D01*
X163270000Y-74813486D01*
X163511603Y-74888792D01*
X164360395Y-74040000D01*
X164719605Y-74040000D01*
X165568397Y-74888792D01*
X165817472Y-74811157D01*
X165943371Y-74547117D01*
X166015339Y-74263589D01*
X166030611Y-73971469D01*
X165988599Y-73681981D01*
X165890919Y-73406253D01*
X165817472Y-73268843D01*
X165568397Y-73191208D01*
X164719605Y-74040000D01*
X164360395Y-74040000D01*
X163511603Y-73191208D01*
X163270000Y-73266514D01*
X163028397Y-73191208D01*
X162179605Y-74040000D01*
X161820395Y-74040000D01*
X160971603Y-73191208D01*
X160722528Y-73268843D01*
X160596629Y-73532883D01*
X160524661Y-73816411D01*
X160509389Y-74108531D01*
X143158507Y-74108531D01*
X144616067Y-72650972D01*
X144758692Y-72694236D01*
X145040000Y-72721943D01*
X145321309Y-72694236D01*
X145591808Y-72612182D01*
X145841101Y-72478932D01*
X146059608Y-72299608D01*
X146238932Y-72081101D01*
X146310000Y-71948142D01*
X146381068Y-72081101D01*
X146560393Y-72299608D01*
X146778900Y-72478932D01*
X147028193Y-72612182D01*
X147298692Y-72694236D01*
X147580000Y-72721943D01*
X147861309Y-72694236D01*
X148131808Y-72612182D01*
X148381101Y-72478932D01*
X148599608Y-72299608D01*
X148778932Y-72081101D01*
X148850000Y-71948142D01*
X148921068Y-72081101D01*
X149100393Y-72299608D01*
X149318900Y-72478932D01*
X149568193Y-72612182D01*
X149838692Y-72694236D01*
X150120000Y-72721943D01*
X150401309Y-72694236D01*
X150671808Y-72612182D01*
X150921101Y-72478932D01*
X151139608Y-72299608D01*
X151318932Y-72081101D01*
X151452182Y-71831808D01*
X151534236Y-71561309D01*
X151555000Y-71350491D01*
X151555000Y-70900000D01*
X160511928Y-70900000D01*
X160511928Y-72100000D01*
X160528992Y-72273254D01*
X160579528Y-72439850D01*
X160661595Y-72593386D01*
X160772038Y-72727962D01*
X160906614Y-72838405D01*
X161060150Y-72920472D01*
X161169293Y-72953580D01*
X161151208Y-73011603D01*
X162000000Y-73860395D01*
X162848792Y-73011603D01*
X162830707Y-72953580D01*
X162939850Y-72920472D01*
X163093386Y-72838405D01*
X163227962Y-72727962D01*
X163338405Y-72593386D01*
X163406285Y-72466392D01*
X163593368Y-72653475D01*
X163766729Y-72769311D01*
X163691208Y-73011603D01*
X164540000Y-73860395D01*
X165388792Y-73011603D01*
X165313271Y-72769311D01*
X165486632Y-72653475D01*
X165693475Y-72446632D01*
X165855990Y-72203411D01*
X165967932Y-71933158D01*
X166025000Y-71646260D01*
X166025000Y-71353740D01*
X165967932Y-71066842D01*
X165855990Y-70796589D01*
X165693475Y-70553368D01*
X165486632Y-70346525D01*
X165243411Y-70184010D01*
X164973158Y-70072068D01*
X164686260Y-70015000D01*
X164393740Y-70015000D01*
X164106842Y-70072068D01*
X163836589Y-70184010D01*
X163593368Y-70346525D01*
X163406285Y-70533608D01*
X163338405Y-70406614D01*
X163227962Y-70272038D01*
X163093386Y-70161595D01*
X162939850Y-70079528D01*
X162773254Y-70028992D01*
X162600000Y-70011928D01*
X161400000Y-70011928D01*
X161226746Y-70028992D01*
X161060150Y-70079528D01*
X160906614Y-70161595D01*
X160772038Y-70272038D01*
X160661595Y-70406614D01*
X160579528Y-70560150D01*
X160528992Y-70726746D01*
X160511928Y-70900000D01*
X151555000Y-70900000D01*
X151555000Y-70409508D01*
X151534236Y-70198691D01*
X151452182Y-69928192D01*
X151318932Y-69678899D01*
X151139607Y-69460392D01*
X150921100Y-69281068D01*
X150671807Y-69147818D01*
X150401308Y-69065764D01*
X150120000Y-69038057D01*
X149838691Y-69065764D01*
X149568192Y-69147818D01*
X149318899Y-69281068D01*
X149100392Y-69460393D01*
X148921068Y-69678900D01*
X148850000Y-69811858D01*
X148778932Y-69678899D01*
X148599607Y-69460392D01*
X148381100Y-69281068D01*
X148131807Y-69147818D01*
X147861308Y-69065764D01*
X147580000Y-69038057D01*
X147298691Y-69065764D01*
X147028192Y-69147818D01*
X146778899Y-69281068D01*
X146560392Y-69460393D01*
X146381068Y-69678900D01*
X146310000Y-69811858D01*
X146238932Y-69678899D01*
X146059607Y-69460392D01*
X145841100Y-69281068D01*
X145591807Y-69147818D01*
X145321308Y-69065764D01*
X145040000Y-69038057D01*
X144758691Y-69065764D01*
X144488192Y-69147818D01*
X144238899Y-69281068D01*
X144020392Y-69460393D01*
X143841068Y-69678900D01*
X143770000Y-69811858D01*
X143698932Y-69678899D01*
X143519607Y-69460392D01*
X143301100Y-69281068D01*
X143051807Y-69147818D01*
X142781308Y-69065764D01*
X142500000Y-69038057D01*
X142218691Y-69065764D01*
X141948192Y-69147818D01*
X141698899Y-69281068D01*
X141480392Y-69460393D01*
X141301068Y-69678900D01*
X141167818Y-69928193D01*
X141085764Y-70198692D01*
X141065000Y-70409509D01*
X141065000Y-71350492D01*
X141085764Y-71561309D01*
X141167818Y-71831808D01*
X141301068Y-72081101D01*
X141480393Y-72299608D01*
X141698900Y-72478932D01*
X141948193Y-72612182D01*
X141957850Y-72615111D01*
X140542068Y-74030894D01*
X140505721Y-74060723D01*
X140386693Y-74205760D01*
X140298247Y-74371233D01*
X140256351Y-74509345D01*
X140243782Y-74550779D01*
X140225391Y-74737501D01*
X140229999Y-74784286D01*
X140230000Y-83127500D01*
X127890237Y-83127500D01*
X127794345Y-83010655D01*
X127565179Y-82822583D01*
X127541638Y-82810000D01*
X127565179Y-82797417D01*
X127794345Y-82609345D01*
X127890237Y-82492500D01*
X130213215Y-82492500D01*
X130260000Y-82497108D01*
X130306785Y-82492500D01*
X130446723Y-82478717D01*
X130626269Y-82424252D01*
X130791741Y-82335806D01*
X130936778Y-82216778D01*
X130966607Y-82180431D01*
X132684027Y-80463011D01*
X132665000Y-80558665D01*
X132665000Y-80841335D01*
X132720147Y-81118574D01*
X132828320Y-81379727D01*
X132985363Y-81614759D01*
X133185241Y-81814637D01*
X133420273Y-81971680D01*
X133681426Y-82079853D01*
X133958665Y-82135000D01*
X134241335Y-82135000D01*
X134518574Y-82079853D01*
X134779727Y-81971680D01*
X135014759Y-81814637D01*
X135214637Y-81614759D01*
X135371680Y-81379727D01*
X135479853Y-81118574D01*
X135535000Y-80841335D01*
X135535000Y-80558665D01*
X135479853Y-80281426D01*
X135371680Y-80020273D01*
X135214637Y-79785241D01*
X135014759Y-79585363D01*
X134779727Y-79428320D01*
X134518574Y-79320147D01*
X134241335Y-79265000D01*
X133958665Y-79265000D01*
X133863011Y-79284027D01*
X135508966Y-77638072D01*
X136400000Y-77638072D01*
X136524482Y-77625812D01*
X136644180Y-77589502D01*
X136754494Y-77530537D01*
X136851185Y-77451185D01*
X136930537Y-77354494D01*
X136989502Y-77244180D01*
X137025812Y-77124482D01*
X137038072Y-77000000D01*
X137038072Y-75400000D01*
X137025812Y-75275518D01*
X136989502Y-75155820D01*
X136930537Y-75045506D01*
X136851185Y-74948815D01*
X136754494Y-74869463D01*
X136644180Y-74810498D01*
X136524482Y-74774188D01*
X136400000Y-74761928D01*
X136392785Y-74761928D01*
X136413097Y-74692702D01*
X135600000Y-73879605D01*
X134786903Y-74692702D01*
X134807215Y-74761928D01*
X134800000Y-74761928D01*
X134675518Y-74774188D01*
X134555820Y-74810498D01*
X134445506Y-74869463D01*
X134348815Y-74948815D01*
X134269463Y-75045506D01*
X134210498Y-75155820D01*
X134174188Y-75275518D01*
X134161928Y-75400000D01*
X134161928Y-76291034D01*
X129865462Y-80587500D01*
X127890237Y-80587500D01*
X127795953Y-80472615D01*
X127839180Y-80459502D01*
X127949494Y-80400537D01*
X128046185Y-80321185D01*
X128125537Y-80224494D01*
X128184502Y-80114180D01*
X128220812Y-79994482D01*
X128233072Y-79870000D01*
X128230000Y-79285750D01*
X128071250Y-79127000D01*
X126627000Y-79127000D01*
X126627000Y-79147000D01*
X126373000Y-79147000D01*
X126373000Y-79127000D01*
X124928750Y-79127000D01*
X124770000Y-79285750D01*
X124766928Y-79870000D01*
X124779188Y-79994482D01*
X124815498Y-80114180D01*
X124874463Y-80224494D01*
X124953815Y-80321185D01*
X125050506Y-80400537D01*
X125160820Y-80459502D01*
X125204047Y-80472615D01*
X125017583Y-80699821D01*
X124877834Y-80961275D01*
X124791776Y-81244968D01*
X124762718Y-81540000D01*
X122160000Y-81540000D01*
X122160000Y-78130000D01*
X124766928Y-78130000D01*
X124770000Y-78714250D01*
X124928750Y-78873000D01*
X126373000Y-78873000D01*
X126373000Y-77653750D01*
X126627000Y-77653750D01*
X126627000Y-78873000D01*
X128071250Y-78873000D01*
X128230000Y-78714250D01*
X128233072Y-78130000D01*
X128220812Y-78005518D01*
X128184502Y-77885820D01*
X128125537Y-77775506D01*
X128046185Y-77678815D01*
X127949494Y-77599463D01*
X127839180Y-77540498D01*
X127719482Y-77504188D01*
X127595000Y-77491928D01*
X126785750Y-77495000D01*
X126627000Y-77653750D01*
X126373000Y-77653750D01*
X126214250Y-77495000D01*
X125405000Y-77491928D01*
X125280518Y-77504188D01*
X125160820Y-77540498D01*
X125050506Y-77599463D01*
X124953815Y-77678815D01*
X124874463Y-77775506D01*
X124815498Y-77885820D01*
X124779188Y-78005518D01*
X124766928Y-78130000D01*
X122160000Y-78130000D01*
X122160000Y-73440000D01*
X124762718Y-73440000D01*
X124791776Y-73735032D01*
X124877834Y-74018725D01*
X125017583Y-74280179D01*
X125205655Y-74509345D01*
X125434821Y-74697417D01*
X125696275Y-74837166D01*
X125979968Y-74923224D01*
X126201064Y-74945000D01*
X126798936Y-74945000D01*
X127020032Y-74923224D01*
X127303725Y-74837166D01*
X127565179Y-74697417D01*
X127794345Y-74509345D01*
X127982417Y-74280179D01*
X128122166Y-74018725D01*
X128197461Y-73770512D01*
X134159783Y-73770512D01*
X134201213Y-74050130D01*
X134296397Y-74316292D01*
X134363329Y-74441514D01*
X134607298Y-74513097D01*
X135420395Y-73700000D01*
X135779605Y-73700000D01*
X136592702Y-74513097D01*
X136836671Y-74441514D01*
X136957571Y-74186004D01*
X137026300Y-73911816D01*
X137040217Y-73629488D01*
X136998787Y-73349870D01*
X136903603Y-73083708D01*
X136836671Y-72958486D01*
X136592702Y-72886903D01*
X135779605Y-73700000D01*
X135420395Y-73700000D01*
X134607298Y-72886903D01*
X134363329Y-72958486D01*
X134242429Y-73213996D01*
X134173700Y-73488184D01*
X134159783Y-73770512D01*
X128197461Y-73770512D01*
X128208224Y-73735032D01*
X128237282Y-73440000D01*
X128208224Y-73144968D01*
X128122166Y-72861275D01*
X128039865Y-72707298D01*
X134786903Y-72707298D01*
X135600000Y-73520395D01*
X136413097Y-72707298D01*
X136341514Y-72463329D01*
X136086004Y-72342429D01*
X135811816Y-72273700D01*
X135529488Y-72259783D01*
X135249870Y-72301213D01*
X134983708Y-72396397D01*
X134858486Y-72463329D01*
X134786903Y-72707298D01*
X128039865Y-72707298D01*
X127982417Y-72599821D01*
X127795953Y-72372615D01*
X127839180Y-72359502D01*
X127949494Y-72300537D01*
X128046185Y-72221185D01*
X128125537Y-72124494D01*
X128184502Y-72014180D01*
X128220812Y-71894482D01*
X128233072Y-71770000D01*
X128230000Y-71185750D01*
X128071250Y-71027000D01*
X126627000Y-71027000D01*
X126627000Y-71047000D01*
X126373000Y-71047000D01*
X126373000Y-71027000D01*
X124928750Y-71027000D01*
X124770000Y-71185750D01*
X124766928Y-71770000D01*
X124779188Y-71894482D01*
X124815498Y-72014180D01*
X124874463Y-72124494D01*
X124953815Y-72221185D01*
X125050506Y-72300537D01*
X125160820Y-72359502D01*
X125204047Y-72372615D01*
X125017583Y-72599821D01*
X124877834Y-72861275D01*
X124791776Y-73144968D01*
X124762718Y-73440000D01*
X122160000Y-73440000D01*
X122160000Y-70030000D01*
X124766928Y-70030000D01*
X124770000Y-70614250D01*
X124928750Y-70773000D01*
X126373000Y-70773000D01*
X126373000Y-69553750D01*
X126627000Y-69553750D01*
X126627000Y-70773000D01*
X128071250Y-70773000D01*
X128230000Y-70614250D01*
X128233072Y-70030000D01*
X128220812Y-69905518D01*
X128184502Y-69785820D01*
X128125537Y-69675506D01*
X128046185Y-69578815D01*
X127949494Y-69499463D01*
X127839180Y-69440498D01*
X127719482Y-69404188D01*
X127595000Y-69391928D01*
X126785750Y-69395000D01*
X126627000Y-69553750D01*
X126373000Y-69553750D01*
X126214250Y-69395000D01*
X125405000Y-69391928D01*
X125280518Y-69404188D01*
X125160820Y-69440498D01*
X125050506Y-69499463D01*
X124953815Y-69578815D01*
X124874463Y-69675506D01*
X124815498Y-69785820D01*
X124779188Y-69905518D01*
X124766928Y-70030000D01*
X122160000Y-70030000D01*
X122160000Y-67000000D01*
X133161928Y-67000000D01*
X133174188Y-67124482D01*
X133210498Y-67244180D01*
X133269463Y-67354494D01*
X133348815Y-67451185D01*
X133445506Y-67530537D01*
X133555820Y-67589502D01*
X133675518Y-67625812D01*
X133800000Y-67638072D01*
X134314250Y-67635000D01*
X134473000Y-67476250D01*
X134473000Y-66327000D01*
X133323750Y-66327000D01*
X133165000Y-66485750D01*
X133161928Y-67000000D01*
X122160000Y-67000000D01*
X122160000Y-65400000D01*
X133161928Y-65400000D01*
X133165000Y-65914250D01*
X133323750Y-66073000D01*
X134473000Y-66073000D01*
X134473000Y-64923750D01*
X134727000Y-64923750D01*
X134727000Y-66073000D01*
X134747000Y-66073000D01*
X134747000Y-66327000D01*
X134727000Y-66327000D01*
X134727000Y-67476250D01*
X134885750Y-67635000D01*
X135400000Y-67638072D01*
X135524482Y-67625812D01*
X135644180Y-67589502D01*
X135754494Y-67530537D01*
X135851185Y-67451185D01*
X135930537Y-67354494D01*
X135989502Y-67244180D01*
X136018661Y-67148057D01*
X136185241Y-67314637D01*
X136420273Y-67471680D01*
X136681426Y-67579853D01*
X136958665Y-67635000D01*
X137241335Y-67635000D01*
X137518574Y-67579853D01*
X137779727Y-67471680D01*
X138014759Y-67314637D01*
X138176896Y-67152500D01*
X142703313Y-67152500D01*
X142750098Y-67157108D01*
X142796883Y-67152500D01*
X142936821Y-67138717D01*
X143116367Y-67084252D01*
X143281839Y-66995806D01*
X143426876Y-66876778D01*
X143456705Y-66840431D01*
X143725124Y-66572012D01*
X143728320Y-66579727D01*
X143885363Y-66814759D01*
X144085241Y-67014637D01*
X144320273Y-67171680D01*
X144581426Y-67279853D01*
X144858665Y-67335000D01*
X145141335Y-67335000D01*
X145418574Y-67279853D01*
X145679727Y-67171680D01*
X145914759Y-67014637D01*
X146036694Y-66892702D01*
X146686903Y-66892702D01*
X146758486Y-67136671D01*
X147013996Y-67257571D01*
X147288184Y-67326300D01*
X147570512Y-67340217D01*
X147850130Y-67298787D01*
X148116292Y-67203603D01*
X148241514Y-67136671D01*
X148313097Y-66892702D01*
X147500000Y-66079605D01*
X146686903Y-66892702D01*
X146036694Y-66892702D01*
X146114637Y-66814759D01*
X146248692Y-66614131D01*
X146263329Y-66641514D01*
X146507298Y-66713097D01*
X147320395Y-65900000D01*
X147679605Y-65900000D01*
X148492702Y-66713097D01*
X148736671Y-66641514D01*
X148857571Y-66386004D01*
X148926300Y-66111816D01*
X148940217Y-65829488D01*
X148898787Y-65549870D01*
X148803603Y-65283708D01*
X148758861Y-65200000D01*
X151861928Y-65200000D01*
X151861928Y-66800000D01*
X151874188Y-66924482D01*
X151910498Y-67044180D01*
X151969463Y-67154494D01*
X152048815Y-67251185D01*
X152145506Y-67330537D01*
X152255820Y-67389502D01*
X152375518Y-67425812D01*
X152500000Y-67438072D01*
X154100000Y-67438072D01*
X154224482Y-67425812D01*
X154344180Y-67389502D01*
X154454494Y-67330537D01*
X154551185Y-67251185D01*
X154630537Y-67154494D01*
X154689502Y-67044180D01*
X154705117Y-66992702D01*
X154986903Y-66992702D01*
X155058486Y-67236671D01*
X155313996Y-67357571D01*
X155588184Y-67426300D01*
X155870512Y-67440217D01*
X156150130Y-67398787D01*
X156416292Y-67303603D01*
X156541514Y-67236671D01*
X156613097Y-66992702D01*
X155800000Y-66179605D01*
X154986903Y-66992702D01*
X154705117Y-66992702D01*
X154725812Y-66924482D01*
X154738072Y-66800000D01*
X154738072Y-66792785D01*
X154807298Y-66813097D01*
X155620395Y-66000000D01*
X155979605Y-66000000D01*
X156792702Y-66813097D01*
X157036671Y-66741514D01*
X157157571Y-66486004D01*
X157226300Y-66211816D01*
X157240217Y-65929488D01*
X157198787Y-65649870D01*
X157103603Y-65383708D01*
X157036671Y-65258486D01*
X156792702Y-65186903D01*
X155979605Y-66000000D01*
X155620395Y-66000000D01*
X154807298Y-65186903D01*
X154738072Y-65207215D01*
X154738072Y-65200000D01*
X154725812Y-65075518D01*
X154705118Y-65007298D01*
X154986903Y-65007298D01*
X155800000Y-65820395D01*
X156613097Y-65007298D01*
X156541514Y-64763329D01*
X156286004Y-64642429D01*
X156011816Y-64573700D01*
X155729488Y-64559783D01*
X155449870Y-64601213D01*
X155183708Y-64696397D01*
X155058486Y-64763329D01*
X154986903Y-65007298D01*
X154705118Y-65007298D01*
X154689502Y-64955820D01*
X154630537Y-64845506D01*
X154551185Y-64748815D01*
X154454494Y-64669463D01*
X154344180Y-64610498D01*
X154224482Y-64574188D01*
X154100000Y-64561928D01*
X152500000Y-64561928D01*
X152375518Y-64574188D01*
X152255820Y-64610498D01*
X152145506Y-64669463D01*
X152048815Y-64748815D01*
X151969463Y-64845506D01*
X151910498Y-64955820D01*
X151874188Y-65075518D01*
X151861928Y-65200000D01*
X148758861Y-65200000D01*
X148736671Y-65158486D01*
X148492702Y-65086903D01*
X147679605Y-65900000D01*
X147320395Y-65900000D01*
X146507298Y-65086903D01*
X146263329Y-65158486D01*
X146249676Y-65187341D01*
X146114637Y-64985241D01*
X146036694Y-64907298D01*
X146686903Y-64907298D01*
X147500000Y-65720395D01*
X148313097Y-64907298D01*
X148241514Y-64663329D01*
X147986004Y-64542429D01*
X147711816Y-64473700D01*
X147429488Y-64459783D01*
X147149870Y-64501213D01*
X146883708Y-64596397D01*
X146758486Y-64663329D01*
X146686903Y-64907298D01*
X146036694Y-64907298D01*
X145914759Y-64785363D01*
X145679727Y-64628320D01*
X145672012Y-64625124D01*
X148344636Y-61952500D01*
X148423104Y-61952500D01*
X148585241Y-62114637D01*
X148820273Y-62271680D01*
X149081426Y-62379853D01*
X149358665Y-62435000D01*
X149641335Y-62435000D01*
X149918574Y-62379853D01*
X150179727Y-62271680D01*
X150414759Y-62114637D01*
X150614637Y-61914759D01*
X150771680Y-61679727D01*
X150879853Y-61418574D01*
X150935000Y-61141335D01*
X150935000Y-60858665D01*
X158225000Y-60858665D01*
X158225000Y-61141335D01*
X158280147Y-61418574D01*
X158388320Y-61679727D01*
X158545363Y-61914759D01*
X158745241Y-62114637D01*
X158980273Y-62271680D01*
X159241426Y-62379853D01*
X159518665Y-62435000D01*
X159801335Y-62435000D01*
X160078574Y-62379853D01*
X160339727Y-62271680D01*
X160574759Y-62114637D01*
X160774637Y-61914759D01*
X160931680Y-61679727D01*
X161039853Y-61418574D01*
X161095000Y-61141335D01*
X161095000Y-60858665D01*
X161039853Y-60581426D01*
X160931680Y-60320273D01*
X160774637Y-60085241D01*
X160574759Y-59885363D01*
X160339727Y-59728320D01*
X160078574Y-59620147D01*
X159801335Y-59565000D01*
X159518665Y-59565000D01*
X159241426Y-59620147D01*
X158980273Y-59728320D01*
X158745241Y-59885363D01*
X158545363Y-60085241D01*
X158388320Y-60320273D01*
X158280147Y-60581426D01*
X158225000Y-60858665D01*
X150935000Y-60858665D01*
X150879853Y-60581426D01*
X150771680Y-60320273D01*
X150614637Y-60085241D01*
X150414759Y-59885363D01*
X150179727Y-59728320D01*
X149918574Y-59620147D01*
X149641335Y-59565000D01*
X149358665Y-59565000D01*
X149081426Y-59620147D01*
X148820273Y-59728320D01*
X148585241Y-59885363D01*
X148423104Y-60047500D01*
X147996883Y-60047500D01*
X147950098Y-60042892D01*
X147903313Y-60047500D01*
X147763375Y-60061283D01*
X147583829Y-60115748D01*
X147418357Y-60204194D01*
X147273320Y-60323222D01*
X147243491Y-60359569D01*
X147034517Y-60568543D01*
X146931680Y-60320273D01*
X146774637Y-60085241D01*
X146574759Y-59885363D01*
X146339727Y-59728320D01*
X146078574Y-59620147D01*
X145801335Y-59565000D01*
X145518665Y-59565000D01*
X145241426Y-59620147D01*
X144980273Y-59728320D01*
X144745241Y-59885363D01*
X144545363Y-60085241D01*
X144388320Y-60320273D01*
X144280147Y-60581426D01*
X144225000Y-60858665D01*
X144225000Y-61141335D01*
X144280147Y-61418574D01*
X144388320Y-61679727D01*
X144545363Y-61914759D01*
X144745241Y-62114637D01*
X144980273Y-62271680D01*
X145228543Y-62374517D01*
X142355560Y-65247500D01*
X138176896Y-65247500D01*
X138014759Y-65085363D01*
X137779727Y-64928320D01*
X137518574Y-64820147D01*
X137241335Y-64765000D01*
X136958665Y-64765000D01*
X136681426Y-64820147D01*
X136420273Y-64928320D01*
X136185241Y-65085363D01*
X136018661Y-65251943D01*
X135989502Y-65155820D01*
X135930537Y-65045506D01*
X135851185Y-64948815D01*
X135754494Y-64869463D01*
X135644180Y-64810498D01*
X135524482Y-64774188D01*
X135400000Y-64761928D01*
X134885750Y-64765000D01*
X134727000Y-64923750D01*
X134473000Y-64923750D01*
X134314250Y-64765000D01*
X133800000Y-64761928D01*
X133675518Y-64774188D01*
X133555820Y-64810498D01*
X133445506Y-64869463D01*
X133348815Y-64948815D01*
X133269463Y-65045506D01*
X133210498Y-65155820D01*
X133174188Y-65275518D01*
X133161928Y-65400000D01*
X122160000Y-65400000D01*
X122160000Y-60858665D01*
X134065000Y-60858665D01*
X134065000Y-61141335D01*
X134120147Y-61418574D01*
X134228320Y-61679727D01*
X134385363Y-61914759D01*
X134585241Y-62114637D01*
X134820273Y-62271680D01*
X135081426Y-62379853D01*
X135358665Y-62435000D01*
X135641335Y-62435000D01*
X135918574Y-62379853D01*
X136179727Y-62271680D01*
X136414759Y-62114637D01*
X136614637Y-61914759D01*
X136771680Y-61679727D01*
X136879853Y-61418574D01*
X136935000Y-61141335D01*
X136935000Y-60858665D01*
X136879853Y-60581426D01*
X136771680Y-60320273D01*
X136614637Y-60085241D01*
X136414759Y-59885363D01*
X136179727Y-59728320D01*
X135918574Y-59620147D01*
X135641335Y-59565000D01*
X135358665Y-59565000D01*
X135081426Y-59620147D01*
X134820273Y-59728320D01*
X134585241Y-59885363D01*
X134385363Y-60085241D01*
X134228320Y-60320273D01*
X134120147Y-60581426D01*
X134065000Y-60858665D01*
X122160000Y-60858665D01*
X122160000Y-59160000D01*
X168340001Y-59160000D01*
X168340000Y-125340000D01*
G37*
%TD.AperFunction*%
%TD*%
M02*
